<?xml version="1.0" encoding="us-ascii" standalone="no"?><svg xmlns="http://www.w3.org/2000/svg" xmlns:xlink="http://www.w3.org/1999/xlink" contentStyleType="text/css" height="398px" preserveAspectRatio="none" style="width:909px;height:398px;background:#FFFFFF;" version="1.1" viewBox="0 0 909 398" width="909px" zoomAndPan="magnify"><defs/><g><text fill="#000000" font-family="sans-serif" font-size="14" font-weight="bold" lengthAdjust="spacing" textLength="136" x="385" y="35.1074">Apple Bundle&#27963;&#21160;&#22270;</text><ellipse cx="454.5" cy="59.6211" fill="#222222" rx="10" ry="10" style="stroke:#222222;stroke-width:1.0;"/><rect fill="#555555" height="6" rx="2.5" ry="2.5" style="stroke:#555555;stroke-width:1.0;" width="887" x="11" y="89.6211"/><rect fill="#F1F1F1" height="35.9609" rx="12.5" ry="12.5" style="stroke:#181818;stroke-width:0.5;" width="83" x="142" y="115.6211"/><text fill="#000000" font-family="sans-serif" font-size="12" lengthAdjust="spacing" textLength="63" x="152" y="138.5703">&#30003;&#35831;Bundle</text><path d="M28,171.582 L23,189.5625 L28,207.543 M339,171.582 L344,189.5625 L339,207.543 " fill="#F1F1F1" style="stroke:#181818;stroke-width:0.5;"/><text fill="#000000" font-family="sans-serif" font-size="12" lengthAdjust="spacing" textLength="301" x="33" y="194.5313">&#21517;&#31216;&#30001;&#23383;&#27597;&#21644;&#23567;&#25968;&#28857;&#32452;&#25104; &amp;&amp; &#25968;&#25454;&#24211;&#20013;&#19981;&#23384;&#22312;&#21516;&#21517;Bundle</text><rect fill="#F1F1F1" height="35.9609" rx="12.5" ry="12.5" style="stroke:#181818;stroke-width:0.5;" width="123" x="122" y="227.543"/><text fill="#000000" font-family="sans-serif" font-size="12" lengthAdjust="spacing" textLength="103" x="132" y="250.4922">&#35831;&#27714;Apple&#21518;&#21488;&#25509;&#21475;</text><polygon fill="#F1F1F1" points="106.5,283.5039,270.5,283.5039,260.5,319.4648,96.5,319.4648" style="stroke:#181818;stroke-width:0.5;"/><text fill="#000000" font-family="sans-serif" font-size="12" lengthAdjust="spacing" textLength="154" x="106.5" y="306.4531">&#26032;&#22686;&#25968;&#25454;AppleBundle&#34920;&#20803;&#32452;</text><rect fill="#F1F1F1" height="35.9609" rx="12.5" ry="12.5" style="stroke:#181818;stroke-width:0.5;" width="83" x="472" y="115.6211"/><text fill="#000000" font-family="sans-serif" font-size="12" lengthAdjust="spacing" textLength="63" x="482" y="138.5703">&#21024;&#38500;Bundle</text><path d="M380.5,171.582 L375.5,189.5625 L380.5,207.543 M646.5,171.582 L651.5,189.5625 L646.5,207.543 " fill="#F1F1F1" style="stroke:#181818;stroke-width:0.5;"/><text fill="#000000" font-family="sans-serif" font-size="12" lengthAdjust="spacing" textLength="256" x="385.5" y="194.5313">&#26816;&#39564;&#25968;&#25454;&#24211;&#23384;&#22312;&#35813;Bundle &amp;&amp; Bundle&#23646;&#20110;&#35813;&#24212;&#29992;</text><rect fill="#F1F1F1" height="35.9609" rx="12.5" ry="12.5" style="stroke:#181818;stroke-width:0.5;" width="123" x="452" y="227.543"/><text fill="#000000" font-family="sans-serif" font-size="12" lengthAdjust="spacing" textLength="103" x="462" y="250.4922">&#35831;&#27714;Apple&#21518;&#21488;&#25509;&#21475;</text><polygon fill="#F1F1F1" points="364,283.5039,673,283.5039,663,319.4648,354,319.4648" style="stroke:#181818;stroke-width:0.5;"/><text fill="#000000" font-family="sans-serif" font-size="12" lengthAdjust="spacing" textLength="299" x="364" y="306.4531">&#21024;&#38500;AppleBundle&#34920;&#20803;&#32452; &amp;&amp; &#21024;&#38500;Bundle&#33021;&#21147;&#20851;&#32852;&#34920;&#20803;&#32452;</text><rect fill="#F1F1F1" height="35.9609" rx="12.5" ry="12.5" style="stroke:#181818;stroke-width:0.5;" width="107" x="731" y="115.6211"/><text fill="#000000" font-family="sans-serif" font-size="12" lengthAdjust="spacing" textLength="87" x="741" y="138.5703">Bundle&#33021;&#21147;&#22686;&#20943;</text><path d="M730,171.582 L725,189.5625 L730,207.543 M839,171.582 L844,189.5625 L839,207.543 " fill="#F1F1F1" style="stroke:#181818;stroke-width:0.5;"/><text fill="#000000" font-family="sans-serif" font-size="12" lengthAdjust="spacing" textLength="99" x="735" y="194.5313">Bundle&#23646;&#20110;&#35813;&#24212;&#29992;</text><rect fill="#F1F1F1" height="35.9609" rx="12.5" ry="12.5" style="stroke:#181818;stroke-width:0.5;" width="123" x="723" y="227.543"/><text fill="#000000" font-family="sans-serif" font-size="12" lengthAdjust="spacing" textLength="103" x="733" y="250.4922">&#35831;&#27714;Apple&#21518;&#21488;&#25509;&#21475;</text><rect fill="#F1F1F1" height="35.9609" rx="12.5" ry="12.5" style="stroke:#181818;stroke-width:0.5;" width="203" x="683" y="283.5039"/><text fill="#000000" font-family="sans-serif" font-size="12" lengthAdjust="spacing" textLength="183" x="693" y="306.4531">&#26032;&#22686;&#25110;&#21024;&#38500;Bundle&#33021;&#21147;&#20851;&#32852;&#34920;&#20803;&#32452;</text><rect fill="#555555" height="6" rx="2.5" ry="2.5" style="stroke:#555555;stroke-width:1.0;" width="887" x="11" y="339.4648"/><ellipse cx="454.5" cy="376.4648" fill="none" rx="11" ry="11" style="stroke:#222222;stroke-width:1.0;"/><ellipse cx="454.5" cy="376.4648" fill="#222222" rx="6" ry="6" style="stroke:#222222;stroke-width:1.0;"/><line style="stroke:#181818;stroke-width:1.0;" x1="183.5" x2="183.5" y1="151.582" y2="171.582"/><polygon fill="#181818" points="179.5,161.582,183.5,171.582,187.5,161.582,183.5,165.582" style="stroke:#181818;stroke-width:1.0;"/><line style="stroke:#181818;stroke-width:1.0;" x1="183.5" x2="183.5" y1="207.543" y2="227.543"/><polygon fill="#181818" points="179.5,217.543,183.5,227.543,187.5,217.543,183.5,221.543" style="stroke:#181818;stroke-width:1.0;"/><line style="stroke:#181818;stroke-width:1.0;" x1="183.5" x2="183.5" y1="263.5039" y2="283.5039"/><polygon fill="#181818" points="179.5,273.5039,183.5,283.5039,187.5,273.5039,183.5,277.5039" style="stroke:#181818;stroke-width:1.0;"/><line style="stroke:#181818;stroke-width:1.0;" x1="513.5" x2="513.5" y1="151.582" y2="171.582"/><polygon fill="#181818" points="509.5,161.582,513.5,171.582,517.5,161.582,513.5,165.582" style="stroke:#181818;stroke-width:1.0;"/><line style="stroke:#181818;stroke-width:1.0;" x1="513.5" x2="513.5" y1="207.543" y2="227.543"/><polygon fill="#181818" points="509.5,217.543,513.5,227.543,517.5,217.543,513.5,221.543" style="stroke:#181818;stroke-width:1.0;"/><line style="stroke:#181818;stroke-width:1.0;" x1="513.5" x2="513.5" y1="263.5039" y2="283.5039"/><polygon fill="#181818" points="509.5,273.5039,513.5,283.5039,517.5,273.5039,513.5,277.5039" style="stroke:#181818;stroke-width:1.0;"/><line style="stroke:#181818;stroke-width:1.0;" x1="784.5" x2="784.5" y1="151.582" y2="171.582"/><polygon fill="#181818" points="780.5,161.582,784.5,171.582,788.5,161.582,784.5,165.582" style="stroke:#181818;stroke-width:1.0;"/><line style="stroke:#181818;stroke-width:1.0;" x1="784.5" x2="784.5" y1="207.543" y2="227.543"/><polygon fill="#181818" points="780.5,217.543,784.5,227.543,788.5,217.543,784.5,221.543" style="stroke:#181818;stroke-width:1.0;"/><line style="stroke:#181818;stroke-width:1.0;" x1="784.5" x2="784.5" y1="263.5039" y2="283.5039"/><polygon fill="#181818" points="780.5,273.5039,784.5,283.5039,788.5,273.5039,784.5,277.5039" style="stroke:#181818;stroke-width:1.0;"/><line style="stroke:#181818;stroke-width:1.0;" x1="183.5" x2="183.5" y1="95.6211" y2="115.6211"/><polygon fill="#181818" points="179.5,105.6211,183.5,115.6211,187.5,105.6211,183.5,109.6211" style="stroke:#181818;stroke-width:1.0;"/><line style="stroke:#181818;stroke-width:1.0;" x1="513.5" x2="513.5" y1="95.6211" y2="115.6211"/><polygon fill="#181818" points="509.5,105.6211,513.5,115.6211,517.5,105.6211,513.5,109.6211" style="stroke:#181818;stroke-width:1.0;"/><line style="stroke:#181818;stroke-width:1.0;" x1="784.5" x2="784.5" y1="95.6211" y2="115.6211"/><polygon fill="#181818" points="780.5,105.6211,784.5,115.6211,788.5,105.6211,784.5,109.6211" style="stroke:#181818;stroke-width:1.0;"/><line style="stroke:#181818;stroke-width:1.0;" x1="183.5" x2="183.5" y1="319.4648" y2="339.4648"/><polygon fill="#181818" points="179.5,329.4648,183.5,339.4648,187.5,329.4648,183.5,333.4648" style="stroke:#181818;stroke-width:1.0;"/><line style="stroke:#181818;stroke-width:1.0;" x1="513.5" x2="513.5" y1="319.4648" y2="339.4648"/><polygon fill="#181818" points="509.5,329.4648,513.5,339.4648,517.5,329.4648,513.5,333.4648" style="stroke:#181818;stroke-width:1.0;"/><line style="stroke:#181818;stroke-width:1.0;" x1="784.5" x2="784.5" y1="319.4648" y2="339.4648"/><polygon fill="#181818" points="780.5,329.4648,784.5,339.4648,788.5,329.4648,784.5,333.4648" style="stroke:#181818;stroke-width:1.0;"/><line style="stroke:#181818;stroke-width:1.0;" x1="454.5" x2="454.5" y1="69.6211" y2="89.6211"/><polygon fill="#181818" points="450.5,79.6211,454.5,89.6211,458.5,79.6211,454.5,83.6211" style="stroke:#181818;stroke-width:1.0;"/><line style="stroke:#181818;stroke-width:1.0;" x1="454.5" x2="454.5" y1="345.4648" y2="365.4648"/><polygon fill="#181818" points="450.5,355.4648,454.5,365.4648,458.5,355.4648,454.5,359.4648" style="stroke:#181818;stroke-width:1.0;"/><!--SRC=[lLdTSnf74d_NNy6zHCvL9QxSvQwkJCfLJiuvgywfKX9VxZ6r5YkP204baA_qXYmZG18Vbj6NXIrX8ql-4A0FMmW4_37PcTrzkd_XUgQ7PHOMa2tNvS4HixqztR_k_dNFxF2zS3WOkdRrQj2d-CCpKxulnm9JLvMniFU-DppxXSUhJ4mhKr_SLSFAq51eqkiFAl3RzLt0x_66lG7_JR_dv_2iJtNTytdzwj0VWjFAn9JYcWcflwZJOU-OuXiPTmNyGqF3OMyOnEZnFbbOfYSrihXFjXf3mw6mCXqU6hv6twMDlJZPtASxPpHPfAbTadvXDBDawvdMpDEvad5wRDJVadWPLUYRDL9VDVFlpAVFtV2-djsdyLCpag1BhqZXXCod_tk-JF9loCAcLZambWxfMenaacHbMQiKwDiyAIteEtDkrpVVW4ypuUlNcGqxUVFrCcf27NJdd9odwKRfj-34rQ1_mlNPPovGXxfWcHucoC4wMxLsW5LOegKax6-KTjdAKTvu_WRD1j6XOHVyXrOOZSSakgi_UOZcQ9M84JjXwl0tADBVlhGqqlWQNIt3typiiO0_xFNF16P2t7RpIPhcgdfscyOpN_tfRrezgPq_CKfFGP6viiljhZV1DI6tbI6HSx3mXx__HI-kq-DLevY7Ft1Rklg2nDT1W04hW5YBQRNtv623PXjtPa8UfX13WDly7fb3t6IaKM1a55_xIVLuGypoa79VHRnNon1gKdrCryha-JDKWD4cqNczzX2q8cnQTObjRoroQsH9krufUOnYGwyNhUpwBX2OzAhWk9ajWeDZeQdGho4r589KPivYFj5qHYzKHQh6CsHn-pfBr43GIcFqp26D1GWyh38KZkds8aAt7QJQKS-y99au1ASxtjvnrnLuNpzvpc75NCFDmJPpSu4K3esJNKWnbZ65FQsQ-ZFy-DmLlgVwNLV2qpFgvvY8Df_DpGo9lqVlsAQ1cR2mbecgVi_GiEeBgQuhumhyhwK1IxPT0TmkAxXW6necF3hO8BbzjhZuda8e-I8zU44gbMutkNehHydY3YHkhqnbiWmMhPAozcQrsXB1dVIjYdwGQE4Wky7tucWomYYM0O9UW8BrD9UWgt6QspPYntGZHTTtvHHiwUE8yJyuQZRO-nQiyEUQl3QenY3bkFciDjkbbLvX3DDoX1MiL4kTDbl-qqhKt2nqUyvr3oeljqDcYOffLHDxpYjg623oZbk5rUB1b5PvhLMhME9QiqYpPztLDXwOdeGwwXPjDmIjigYTxo276QbJabv3xXZnEDPYwPGUFh087WkHrQNK3BgJb9dXKYOKhv_H9JfWcO5K00HdHEPwam0ZGAdsiSsm1c4zmBpbyBUMe2uWhRLAacI085FM1j1Ekeq4c0LSTEi4LCXaQ-Jt7LXKZfw808-UdHTij4ZYMwHM9TKiqzwB75bJZkwY480CMIswzjanIPVXfuWP2d3aMGXuAsSMFDgm8sXf4k5AbsZYCKdoL1NFjXfq9-RKor4VKXANvpQ0Z5P9G5hXJ-ri2HgpGy_5jeLxM4YsgtHlnKWSuGhMt62SvPxJ1sSCuG2SCMOopd8n08MrWze9AGv2M0qa_G3gtibxoOYEFE9G0ZBndGueseyHEmkNyA_gVTKVxeQ7DxfS0WeSQ8YaQhYV3ZqWim1sesQdjePTIAHS8qeMdx6UimU4LY0b1elHtA2vrwJm43In2OpBk3iR7D9JHvIuvywJ0KJGp4O6X4P_S4PYDLcq0__Uq0Acu06aCsckiwcm-Cu1JQUPYCCXig451uaUc-i7_U7ep4ymkSTCb3s6Z26n0wCqv-0vPXFD9SbY7Zg58ED4188B9KkM6i02i2zDnUdJUJClSJXIA2eUyK0U6-LvU38oQlrfFd-afsAC9RYQjWuxKGWDxNcQ3zFyIB14uYjwjSa0piGPeYEZ83OoUlzhhRPhHjP9-fJ45qZY26Pm8nA5Pt-49Vm1eZmAa7Ze99fZBC-JhHDicCmUWCoOhuDL4jrWX2jBZCJvAj0yiFc8XqM0ctkXKT_YFAH0hPxJAbLytnedMcp5LsMs4X7ZDbwKhSZXAcI3ROU1RDKhCMIsQaKMOY97bgKgCptT8xBomKrcBGu-Rx32L8vnRowpOsFdibYw0wYUN3Q8uoNswDjBMQ4FG0s9H732Si9SAJfD5qA9D7uxG23lroSzFiHhSQR0Z44R1tcjrmvWfhwGrpRHo_dU9_n6CyPs-G2cjKsztCQ1Nfkn94pHSZaDyDtXXSiXyB6SKieQZNcSI649Q0o6L6iMRGdrBwwB8egSOsaQI3it_9xfWDVZKeAJaCQASfUHIXvi5DS7-a637LPx4X8EIuseaEFli8i3FgpAY_fXZJnRwdZ4V3rxwHGF-Jad5_iMEAQoMKKidj5yd9_l-qzZ74NXCxwgrS2rl3Ea9Ft8X45LagFlun0PlRRvatBthZVymuyiT3PzLky6KUFa35zWH-74df4NvfgHcj5urExTa6qOFMXoHhrEJezGJgyzfizowB6x8t3_zlezWV-4NACtFrcW46q0GQ_576kaRmmwttQ4NbZzoQ2twViWw75ctYY5PaFeJiTupERZQp1ba4RHg0Chn5bjdszgvoTmyYNDUQrQqAehBENuZ8PYDtynNnr2070ljajhChv4e6_zUDie5lgE1JouLapnfidCHOoNujH8toqPfLNyLq_4QUxjXyHNl7SCpMIx_VQbuil0HmDltVudwdSydl38MIBkzadZumF_0K5jGt-vMhqH3FfKF2QBCy_5IrPej8NB6rH4YA2VvI9uwl_NRRAzBQuALdR9ygPMEJAAJNEzoERr5G3Z5JG7tDygV9fE6ysoqnx1oOchdga9V8J2U3SEG_SWykwLI1TZPmRMf-FcjhR_5pEBTY3ua9_tj4fAZ7QzhkTGplOgpzNu6-lEXdr9MIspOF9pMViK9ZWSuiB9j-VuOZGpuEYaEXiE17munRGRB0ONvmMok0D_u3Eo42L5Vixi-101OR6Pwn0ZlFsqZNhSJQTHptu_oC7gGaDir3uP7i94b6hV3JWEh9RPNGQtBWcCqWAEhcxf1j0Mqdy40XC-TTIdpBAZP_Iu5Li68MP6dtjNLiNu0ehowu9Mo8Gf_Hsn1OwSxfBeAIcTarZLtOaR3vo-DoU-Pfdp-thzI9gYaZ6zkeSft1f6BsDIK0rEVlcRCer8oF3POuzVeX2eTtDznj7lbJ7rRY0mASPr_bK2bVUaIS5DbOXMgpjIahYc-qYSusLIU2YN0kCn_BWIVV_phHjVMPzEsFbx8OdFlbL2wb-_XaMZ_fPbUySneNBaxe08dMGN6fP4dw6TaHhQr3FlP6ONbqxG0tX5k3iVyz4SFwAnBFbsnk_ngICUH8jzdkrPOVQFM68KMZupeycEDi7lZmJoUkqHAJvXrrYygnl51YdmaT4NK3pMTIOMhsHcnu0WxigmjsPIx4QQVtB1ieQpbQstINUKcm-X9YshP1l4kSjPhw0kkr8dZc4locBTn6YhsT6Pq3svLp2j5u_0hJjtHj7WxvLGsAVuLQlDiKJb2Jqkdc1ufERIHVF8x9OtKfuvDc6R7pQNLvRRRc50Fe9Y-iRNygBTbdWem51MHTtSBjdTGV9IKOdSRrSL5XMN5ZqQ9Tn3rzWOi5VMiuVOZzd5QZdDElI3Cy09gjdsYH46JEl-aasWcQHGrEbuBxzXHpay_3cgS8gD51hHJIsxeMY142t3q2J8CHHe4y2WvEjZgEZV3YRoBYJPOypNoU8MQwbpsK5-sDxWbutkrk8bR1MWnjS6cyMjOL-hUTxy3m00]--></g></svg>