<?xml version="1.0" encoding="us-ascii" standalone="no"?><svg xmlns="http://www.w3.org/2000/svg" xmlns:xlink="http://www.w3.org/1999/xlink" contentStyleType="text/css" height="633px" preserveAspectRatio="none" style="width:856px;height:633px;background:#FFFFFF;" version="1.1" viewBox="0 0 856 633" width="856px" zoomAndPan="magnify"><defs/><g><text fill="#000000" font-family="sans-serif" font-size="14" font-weight="bold" lengthAdjust="spacing" textLength="110" x="371.5" y="35.1074">Apple&#35777;&#20070;&#27963;&#21160;&#22270;</text><ellipse cx="428" cy="59.6211" fill="#222222" rx="10" ry="10" style="stroke:#222222;stroke-width:1.0;"/><rect fill="#555555" height="6" rx="2.5" ry="2.5" style="stroke:#555555;stroke-width:1.0;" width="834" x="11" y="89.6211"/><rect fill="#F1F1F1" height="35.9609" rx="12.5" ry="12.5" style="stroke:#181818;stroke-width:0.5;" width="128" x="122.5" y="115.6211"/><text fill="#000000" font-family="sans-serif" font-size="12" lengthAdjust="spacing" textLength="108" x="132.5" y="138.5703">&#25551;&#36848;&#25991;&#20214;&#30003;&#35831;&#21644;&#26356;&#26032;</text><path d="M68,171.582 L63,189.5625 L68,207.543 M305,171.582 L310,189.5625 L305,207.543 " fill="#F1F1F1" style="stroke:#181818;stroke-width:0.5;"/><text fill="#000000" font-family="sans-serif" font-size="12" lengthAdjust="spacing" textLength="227" x="73" y="194.5313">&#25551;&#36848;&#25991;&#20214;&#31867;&#22411;&#21512;&#27861; &amp;&amp; BundleId&#23646;&#20110;&#35813;&#24212;&#29992;</text><polygon fill="#F1F1F1" points="26.5,242.543,336.5,242.543,346.5,278.5039,36.5,278.5039" style="stroke:#181818;stroke-width:0.5;"/><text fill="#000000" font-family="sans-serif" font-size="12" lengthAdjust="spacing" textLength="300" x="36.5" y="265.4922">&#26816;&#32034;&#25968;&#25454;&#24211;&#33719;&#21462;&#21305;&#37197;&#30340;&#31614;&#21517;&#35777;&#20070;&#21644;&#19982;&#24212;&#29992;&#32465;&#23450;&#30340;&#27979;&#35797;&#35774;&#22791;</text><rect fill="#F1F1F1" height="35.9609" rx="12.5" ry="12.5" style="stroke:#181818;stroke-width:0.5;" width="207" x="83" y="362.8193"/><text fill="#000000" font-family="sans-serif" font-size="12" lengthAdjust="spacing" textLength="187" x="93" y="385.7686">&#35831;&#27714;Apple&#21518;&#21488;&#25509;&#21475;&#21024;&#38500;&#32769;&#25551;&#36848;&#25991;&#20214;</text><polygon fill="#F1F1F1" points="153.5,313.5039,219.5,313.5039,231.5,325.5039,219.5,337.5039,153.5,337.5039,141.5,325.5039,153.5,313.5039" style="stroke:#181818;stroke-width:0.5;"/><text fill="#000000" font-family="sans-serif" font-size="11" lengthAdjust="spacing" textLength="19" x="190.5" y="349.374">true</text><text fill="#000000" font-family="sans-serif" font-size="11" lengthAdjust="spacing" textLength="66" x="153.5" y="330.0586">&#26356;&#26032;&#25551;&#36848;&#25991;&#20214;</text><rect fill="#F1F1F1" height="35.9609" rx="12.5" ry="12.5" style="stroke:#181818;stroke-width:0.5;" width="327" x="23" y="462.0957"/><text fill="#000000" font-family="sans-serif" font-size="12" lengthAdjust="spacing" textLength="307" x="33" y="485.0449">&#38468;&#19978;&#35777;&#20070;&#21644;&#27979;&#35797;&#35774;&#22791;&#20449;&#24687;&#35831;&#27714;Apple&#21518;&#21488;&#25509;&#21475;&#30003;&#35831;&#25551;&#36848;&#25991;&#20214;</text><polygon fill="#F1F1F1" points="99,518.0566,284,518.0566,274,554.0176,89,554.0176" style="stroke:#181818;stroke-width:0.5;"/><text fill="#000000" font-family="sans-serif" font-size="12" lengthAdjust="spacing" textLength="175" x="99" y="541.0059">&#26356;&#26032;&#25968;&#25454;&#24211;&#34920;Apple&#25551;&#36848;&#25991;&#20214;&#20803;&#32452;</text><rect fill="#F1F1F1" height="35.9609" rx="12.5" ry="12.5" style="stroke:#181818;stroke-width:0.5;" width="97" x="455" y="214.8975"/><text fill="#000000" font-family="sans-serif" font-size="12" lengthAdjust="spacing" textLength="77" x="465" y="237.8467">Push&#35777;&#20070;&#30003;&#35831;</text><path d="M444,285.8584 L439,303.8389 L444,321.8193 M563,285.8584 L568,303.8389 L563,321.8193 " fill="#F1F1F1" style="stroke:#181818;stroke-width:0.5;"/><text fill="#000000" font-family="sans-serif" font-size="12" lengthAdjust="spacing" textLength="109" x="449" y="308.8076">BundleId&#23646;&#20110;&#35813;&#24212;&#29992;</text><rect fill="#F1F1F1" height="35.9609" rx="12.5" ry="12.5" style="stroke:#181818;stroke-width:0.5;" width="287" x="360" y="356.8193"/><text fill="#000000" font-family="sans-serif" font-size="12" lengthAdjust="spacing" textLength="267" x="370" y="379.7686">HTTP&#35831;&#27714;Fastlane&#26381;&#21153;&#22120;&#65292;&#36816;&#34892;fastlane&#33719;&#21462;&#35777;&#20070;</text><polygon fill="#F1F1F1" points="392,418.7803,625,418.7803,615,454.7412,382,454.7412" style="stroke:#181818;stroke-width:0.5;"/><text fill="#000000" font-family="sans-serif" font-size="12" lengthAdjust="spacing" textLength="223" x="392" y="441.7295">&#21152;&#23494;&#35777;&#20070;&#20869;&#23481;&#26032;&#22686;&#25968;&#25454;&#24211;Apple&#35777;&#20070;&#34920;&#20803;&#32452;</text><rect fill="#F1F1F1" height="35.9609" rx="12.5" ry="12.5" style="stroke:#181818;stroke-width:0.5;" width="157" x="666.5" y="214.8975"/><text fill="#000000" font-family="sans-serif" font-size="12" lengthAdjust="spacing" textLength="137" x="676.5" y="237.8467">&#25551;&#36848;&#25991;&#20214;&#21644;Push&#35777;&#20070;&#21024;&#38500;</text><path d="M686,285.8584 L681,303.8389 L686,321.8193 M804,285.8584 L809,303.8389 L804,321.8193 " fill="#F1F1F1" style="stroke:#181818;stroke-width:0.5;"/><text fill="#000000" font-family="sans-serif" font-size="12" lengthAdjust="spacing" textLength="108" x="691" y="308.8076">&#36873;&#25321;&#30340;&#35777;&#20070;&#23646;&#20110;&#24212;&#29992;</text><rect fill="#F1F1F1" height="35.9609" rx="12.5" ry="12.5" style="stroke:#181818;stroke-width:0.5;" width="171" x="659.5" y="356.8193"/><text fill="#000000" font-family="sans-serif" font-size="12" lengthAdjust="spacing" textLength="151" x="669.5" y="379.7686">&#35831;&#27714;Apple&#21518;&#21488;&#25509;&#21475;&#21024;&#38500;&#35777;&#20070;</text><polygon fill="#F1F1F1" points="667,418.7803,833,418.7803,823,454.7412,657,454.7412" style="stroke:#181818;stroke-width:0.5;"/><text fill="#000000" font-family="sans-serif" font-size="12" lengthAdjust="spacing" textLength="156" x="667" y="441.7295">&#25968;&#25454;&#24211;&#26356;&#26032;&#34920;&#30340;&#21024;&#38500;&#26631;&#35782;&#23383;&#27573;</text><rect fill="#555555" height="6" rx="2.5" ry="2.5" style="stroke:#555555;stroke-width:1.0;" width="834" x="11" y="574.0176"/><ellipse cx="428" cy="611.0176" fill="none" rx="11" ry="11" style="stroke:#222222;stroke-width:1.0;"/><ellipse cx="428" cy="611.0176" fill="#222222" rx="6" ry="6" style="stroke:#222222;stroke-width:1.0;"/><line style="stroke:#181818;stroke-width:1.0;" x1="186.5" x2="186.5" y1="151.582" y2="171.582"/><polygon fill="#181818" points="182.5,161.582,186.5,171.582,190.5,161.582,186.5,165.582" style="stroke:#181818;stroke-width:1.0;"/><line style="stroke:#181818;stroke-width:1.0;" x1="186.5" x2="186.5" y1="207.543" y2="242.543"/><polygon fill="#181818" points="182.5,232.543,186.5,242.543,190.5,232.543,186.5,236.543" style="stroke:#181818;stroke-width:1.0;"/><line style="stroke:#181818;stroke-width:1.0;" x1="186.5" x2="186.5" y1="337.5039" y2="362.8193"/><polygon fill="#181818" points="182.5,352.8193,186.5,362.8193,190.5,352.8193,186.5,356.8193" style="stroke:#181818;stroke-width:1.0;"/><line style="stroke:#181818;stroke-width:1.0;" x1="231.5" x2="300" y1="325.5039" y2="325.5039"/><line style="stroke:#181818;stroke-width:1.0;" x1="300" x2="300" y1="325.5039" y2="421.0957"/><polygon fill="#181818" points="296,411.0957,300,421.0957,304,411.0957,300,415.0957" style="stroke:#181818;stroke-width:1.0;"/><line style="stroke:#181818;stroke-width:1.0;" x1="300" x2="186.5" y1="421.0957" y2="421.0957"/><line style="stroke:#181818;stroke-width:1.0;" x1="186.5" x2="186.5" y1="421.0957" y2="427.0957"/><line style="stroke:#181818;stroke-width:1.0;" x1="186.5" x2="186.5" y1="398.7803" y2="421.0957"/><polygon fill="#181818" points="182.5,411.0957,186.5,421.0957,190.5,411.0957,186.5,415.0957" style="stroke:#181818;stroke-width:1.0;"/><line style="stroke:#181818;stroke-width:1.0;" x1="186.5" x2="186.5" y1="278.5039" y2="313.5039"/><polygon fill="#181818" points="182.5,303.5039,186.5,313.5039,190.5,303.5039,186.5,307.5039" style="stroke:#181818;stroke-width:1.0;"/><line style="stroke:#181818;stroke-width:1.0;" x1="186.5" x2="186.5" y1="427.0957" y2="462.0957"/><polygon fill="#181818" points="182.5,452.0957,186.5,462.0957,190.5,452.0957,186.5,456.0957" style="stroke:#181818;stroke-width:1.0;"/><line style="stroke:#181818;stroke-width:1.0;" x1="186.5" x2="186.5" y1="498.0566" y2="518.0566"/><polygon fill="#181818" points="182.5,508.0566,186.5,518.0566,190.5,508.0566,186.5,512.0566" style="stroke:#181818;stroke-width:1.0;"/><line style="stroke:#181818;stroke-width:1.0;" x1="503.5" x2="503.5" y1="250.8584" y2="285.8584"/><polygon fill="#181818" points="499.5,275.8584,503.5,285.8584,507.5,275.8584,503.5,279.8584" style="stroke:#181818;stroke-width:1.0;"/><line style="stroke:#181818;stroke-width:1.0;" x1="503.5" x2="503.5" y1="321.8193" y2="356.8193"/><polygon fill="#181818" points="499.5,346.8193,503.5,356.8193,507.5,346.8193,503.5,350.8193" style="stroke:#181818;stroke-width:1.0;"/><line style="stroke:#181818;stroke-width:1.0;" x1="503.5" x2="503.5" y1="392.7803" y2="418.7803"/><polygon fill="#181818" points="499.5,408.7803,503.5,418.7803,507.5,408.7803,503.5,412.7803" style="stroke:#181818;stroke-width:1.0;"/><line style="stroke:#181818;stroke-width:1.0;" x1="745" x2="745" y1="250.8584" y2="285.8584"/><polygon fill="#181818" points="741,275.8584,745,285.8584,749,275.8584,745,279.8584" style="stroke:#181818;stroke-width:1.0;"/><line style="stroke:#181818;stroke-width:1.0;" x1="745" x2="745" y1="321.8193" y2="356.8193"/><polygon fill="#181818" points="741,346.8193,745,356.8193,749,346.8193,745,350.8193" style="stroke:#181818;stroke-width:1.0;"/><line style="stroke:#181818;stroke-width:1.0;" x1="745" x2="745" y1="392.7803" y2="418.7803"/><polygon fill="#181818" points="741,408.7803,745,418.7803,749,408.7803,745,412.7803" style="stroke:#181818;stroke-width:1.0;"/><line style="stroke:#181818;stroke-width:1.0;" x1="186.5" x2="186.5" y1="95.6211" y2="115.6211"/><polygon fill="#181818" points="182.5,105.6211,186.5,115.6211,190.5,105.6211,186.5,109.6211" style="stroke:#181818;stroke-width:1.0;"/><line style="stroke:#181818;stroke-width:1.0;" x1="503.5" x2="503.5" y1="95.6211" y2="214.8975"/><polygon fill="#181818" points="499.5,204.8975,503.5,214.8975,507.5,204.8975,503.5,208.8975" style="stroke:#181818;stroke-width:1.0;"/><line style="stroke:#181818;stroke-width:1.0;" x1="745" x2="745" y1="95.6211" y2="214.8975"/><polygon fill="#181818" points="741,204.8975,745,214.8975,749,204.8975,745,208.8975" style="stroke:#181818;stroke-width:1.0;"/><line style="stroke:#181818;stroke-width:1.0;" x1="186.5" x2="186.5" y1="554.0176" y2="574.0176"/><polygon fill="#181818" points="182.5,564.0176,186.5,574.0176,190.5,564.0176,186.5,568.0176" style="stroke:#181818;stroke-width:1.0;"/><line style="stroke:#181818;stroke-width:1.0;" x1="503.5" x2="503.5" y1="454.7412" y2="574.0176"/><polygon fill="#181818" points="499.5,564.0176,503.5,574.0176,507.5,564.0176,503.5,568.0176" style="stroke:#181818;stroke-width:1.0;"/><line style="stroke:#181818;stroke-width:1.0;" x1="745" x2="745" y1="454.7412" y2="574.0176"/><polygon fill="#181818" points="741,564.0176,745,574.0176,749,564.0176,745,568.0176" style="stroke:#181818;stroke-width:1.0;"/><line style="stroke:#181818;stroke-width:1.0;" x1="428" x2="428" y1="69.6211" y2="89.6211"/><polygon fill="#181818" points="424,79.6211,428,89.6211,432,79.6211,428,83.6211" style="stroke:#181818;stroke-width:1.0;"/><line style="stroke:#181818;stroke-width:1.0;" x1="428" x2="428" y1="580.0176" y2="600.0176"/><polygon fill="#181818" points="424,590.0176,428,600.0176,432,590.0176,428,594.0176" style="stroke:#181818;stroke-width:1.0;"/><!--SRC=[lLbRKnjN4dxdLsXVWhDLYIkxsQqjIBdAoJfhQfqgadYpZwan6h22a5H8U8itOImq0dGn5ZSZ6sGBWoz8uc8Z92JzcCmvC_EqVs7xd3wQYpIImBWs3muwqzEd- -lkh_kS6RmVYOJ2GzUlX_nI838pvVzoB3XrNHgB-1xu8hDVU7tInBGqzSKzEI8D38GdVO6G1ByztmK3Nb_45mpS2dX_ZipwPSzzloyW3_mXD2rDJ4cUcR3yYpmTyOr9_f5nJp0mC30OyKL0Z1xlauLbUb8ZY_jagp4m68v8qv61mI7wFgtlAMHpd-wSqMIHfdP9-gNUp9AjvsepJ-TA-kcnNdz7b3Agq3PhfBvgvDyRpruCm_jQTfygfqOqGPTUay89cK__ztoPvD-IXKsrSg0l7TArECaaoSgoMYdGTtbIMj1sveOzttm3Fir4RjnWDkpaZJVBg0brq9rpSfwc6wNVGXFNGu49psUVUK0Twe9bUfWW1-jirTm1Lc69bfAmlrxQPIj7UVt5MpGRH0S6FV0VMg4tdf3OhlRq4PgZLg9w_8Ifmz-WI7ltojH8bJMwMeQ_cTbZmK345vW9peIvxSRJDCrLjUmsLJ9V_UblQZsfdZ_LIyz0aR6oo-skDy4r8RUL8T5piF27l_z5AwxJurMzc8S_S5kw-f8ewo30W1L0hCNLsWToi46pZRipOIzJY270RNwFpY5kTgHHO6GKN_j9zlh2pFAmz416l5VB46fIVKBNokJ5SrI0qIQnUQts2BGYR6frYMrlBd9hx99ElRRaqOiDhLuqi-kxO73I9uFZHhO83ew5fyA_XkLm65APEOlvHDCPhL0LgQfaoEBs3PQemP2PnkYPIneB47XOxL2ufjlBADrsaRAYddb5CWe4fpFUld7FDNXVEtd1OSLSmyt1DcDpWHGEzPDTI36MCOKzjPhwC_put1EvBmSyroBJC_Bdc8WEdutD354-e7Tiq-1CH5ZBHEM0Ts1GzeTbpxLn2VxNqe0bQrK0jyiCBjY6XWcF3ZP8RfyjBdwW44g-I0zUaagbqqsktinHihW3YTijKvaiWqMjfCozMQssH70dRQkY7IHQEDZTu7jnD1bX5Ci0GJT0mNgQIz1LXUQszVWntKZHzLrx2hRqSSJu7nmr1-mz2rRuCsHVwrTZa7BSV5QRLccbLnZ3j1nX1MkhfNQRJVzf9MPi5ZezvxhxbTUmIsQ9YcbL4tlEAseG8FADcuNLui6KMdcZLgjOucgpIBDddTKs7foUX3hg5BKQWbfPLCztaCFqr2b9ho5tZ7XTQx5qIWyVcWIFXSZgqjOCEfEKcU6H9YHVWD4bEc2QWLG01AT7vxgJ02D0M-rZcs4Dmdo0USlXRor1NK1QgvKaoG11fimDe9rq6Wam2xZerWcei9EjdjztOL5xz4G4UFISlE2WHQ9iaLgLLBDCUpToP4qvjej2039ajUZQPySaNOQV8cOem95d8U2jd5dmUCE9eAb9X2jTeead9CbJLJpRQj2Tk5ilHtr8ILoUsm0oQYK1QOK_rRCbQCmkFHVR5kvX8cbLwTwAdZZ25Qov_ZZRUquFd364VN36cDbnjXS3K9WLr7P8SH32QY3fXr3tRjxRZ6ZB8mub8AFij45XFKRiJ5mYlyeFv42a4nxUw789A72W8PAguNuQz83C0jYDcjtQ6dOXaNAD65bypdhE7X1QWPGOB7fpW-RUaC8ZqCGcC2uptDxWa9xQeiGzTvyC8896DjedDDh3CnAlsKNRyEyEBM0A7a0wa-OwcmgBxrtGT9k9E1mY6rfmaDYniNxG6uxs_0IJkyn4sMF8618_q4jpBfvZDj5SaYpceLC8Cav48RXGicIf0Im0-zAKGf_D6taRXoE5ek8HB-InNfw79oEZvf_6YyTQAivOWgknT3Y9GcYmvca-JFCZmH9HLhHgam6SKHYY8wCWDZBwu6krjcj4rqdwb2WB9744CxWUZS6pFy8I_W1H7WL8F7GIpT6NvydM2JPCPWz0fi_NmIeRtM24AqkCnFagq3om-OYNHO2RUw5Ht-Gyf42rdbChLNpV72TQRCLNxMmb8iPjl2XRaSDLo0R73dtPgbjYsDcg5Lc8YJsoB5MPwUakaRKVtEoinS7d3LQOoZ7kpcLER9nS5a-t0TMLo_fnl8qzUlPILkXzK4CY4Pomd31MYcxJXL1Y6xzT8B3lroCzBkErE5DWng2D_RpMQWSmKr_8QuVerNpl4Nwz6MUxN89f7LCljx6lrqOy2LEqlPpw-ExomjKG-5XEAMNrnZnEfB04D0P3gZcBjeHw5zT54KNECJNrfPsR0UzqqEVrIA59I6D9kiT89GysYki3xQ313gjT2Gc7fKPCoF5tsCK17rRjYzfXZJnVQdl4V3rxvHOF-tDEBiujS4nbiufOFADvXP_lUqzZ74NXCxwgri2rl3ka9FtOW47L9aS_A10PhRRvatJldY_omuyiT0vzPky6KVta35zWH-74dfuNvXhHcjvuRFLko3QC7ZGvlLudfqSefzMUqESvz7YuBN3_zWMymV-4FQEtFbcW46q0GQl5NMkaPmpQttQ5NbZzoQ1twBiKz3WpRvJ2is5qfsqyPlFn44mPf57Kwy0A2gljyqtr_0HElgGvhrOBQdM5fHoVqL3irY_6wqC80Ex5TcbDnbS8zEqVx-Z5Gi-nW0VNZ2dUD1cvgFvAd1hf-oMzj8h_QWc5vjvT9hxYlMDe9jlMsrUABmCV3Rnzvv-et_LumYDdYWnR9usF3_mbWcf1VxLQlHaA-MKy9eippyLBLcXqXCiNaaI8e9_bedZg_zSTihqjhWfMTidofbevqejDOxt8vlKL0ECrD0VStonycaxhpRBR7g79YUlUgGbyXC9uDmv3Tp_oxfP85sDd1jQdusPBs_-BcKKx47p8ptjg9IL6ksxNSoZdU9NdglBMlBDXNr9MoooO_5ncdS84XqDSEFbs7L_qPWOSdPHd8y6W7wSOgy5YS75U88ixy0S-8minKkJdpBOF4H0MXxakCSBRJyUenzrq6_MSzuCSh0uqn4RMoV0G9gAKTJVWEh2QPdSOtBeaq4iBEBeEssu07I7zHp0uuPT7_T8iEth6ZbknPH1YPlIuTsLLZ2-WABykQ8LCcDBR4KVWoEakYPsIqZc9LuVRSUE1q_RcnDSiOtvVgn_PfgXaNAlkOGgtXj6hc1IIGvDV_YPD8n9s-9onnozH2DJxkHxZwFVIc7ml69mKuph_Ae7AkzAauAPALAtLNIb9NDDz9CvAcHGUsKk1yHX-N8bz-FdspQ_CJoVi_BsGn6VVIc7vhr_3ebv_nxAzxPXGEHfkWmYTP1SQfeGBIhPsWYPPg20e7FmXEwkB2oVWVruDmsrF-LIEtyzOWdmx4_3wvH4l0iM-pBfZDTJs-KeCGSjdHYpPrY3upP70NAiz9iMdx0ABztEzs205FYpwWv8NrFAP3AlMPgHpCX1tPDXJCobs4yq_jM0vmvdAqTC6S60OCZOVGIMQ5jdt5wSjTws2i1mgtOY5lMUNwc13MvqEZSw4xzlR0wYyCF2txzuTHLk_by8HlnIGpRx6CfDdyBXuWb5fyUTG9wqZavkEs1BBhUdQNN3ukh9iUOHXWDqkmoTzOjfomEf0F01W8okOJXgtJ6xnKUSu9bAzJqD68PmQazfUMSiUOlTbrwZbDEl73yy09QXTnmT562VDsqesRsQIGfCBwRYxRbr6eb8kW4fS1oAN_caP3zKA76XQXtP1ag64LVZzig-djQ9fkzZ9Mu_D97s-JXQtM1-To_Ptnl4ElsCSDbUlPB20LrdhRnkQn3zKyrJw7m00]--></g></svg>