<?xml version="1.0" encoding="us-ascii" standalone="no"?><svg xmlns="http://www.w3.org/2000/svg" xmlns:xlink="http://www.w3.org/1999/xlink" contentStyleType="text/css" height="766px" preserveAspectRatio="none" style="width:770px;height:766px;background:#FFFFFF;" version="1.1" viewBox="0 0 770 766" width="770px" zoomAndPan="magnify"><defs/><g><!--cluster ????--><g id="cluster_&#22806;&#37096;&#32593;&#32476;"><path d="M153.3115,25.9577 C157.8291,12.0839 168.9729,11.0429 177.3545,22.2542 C187.4813,9.6622 197.2493,9.3968 206.2196,23.5045 C214.3434,8.6014 228.6555,11.6693 235.4977,24.8411 C244.8303,13.7655 254.6273,13.4563 263.3132,25.6153 C269.4896,12.8437 279.7146,13.5942 287.612,23.7949 C298.0646,6.9 310.6473,7.7319 319.7072,25.0995 C325.8369,13.316 335.5771,11.6875 343.1412,23.6862 C352.4766,6.2223 365.1162,6 374.8803,23.2948 C383.7625,10.9448 393.4842,11.4275 400.1861,25.3916 C409.2101,13.1206 419.2212,13.6921 428.2567,25.3782 C435.5773,11.9194 446.0394,11.1956 455.2174,23.4292 C462.7187,10.2465 475.7232,10.8578 484.2349,22.2354 C495.9656,8.962 504.7083,13.09 512.8964,26.0986 C524.8532,11.8763 534.8109,10.9866 544,28.7869 C547.4946,28.3204 548.4183,30.7632 547.3927,33.53 C566.8357,41.0167 571.3312,53.5258 554.6703,68.5214 C566.1217,86.3469 558.277,104.6898 537,107.7869 C538.6798,106.6869 539.7185,107.2389 539.8539,109.2182 C531.2982,123.1921 522.7368,121.3427 513.4093,110.0253 C504.2848,123.4611 494.7363,127.7681 482.8672,112.9971 C475.2388,124.4777 466.9576,125.0996 457.7888,114.7684 C449.4572,129.177 439.7857,129.9865 430.7101,115.4647 C421.1326,128.6411 411.328,129.4273 401.4908,115.7473 C392.3846,127.8424 382.8302,130.1488 373.5828,115.8968 C365.5022,127.4039 355.1805,129.2314 346.7011,116.3362 C336.1776,130.6161 327.0484,130.9115 316.423,116.4435 C308.6235,128.7261 297.6494,124.8521 292.339,113.867 C283.8139,127.3028 270.8759,124.5388 264.2686,111.8095 C256.1573,124.1615 247.2552,125.082 236.5106,115.0792 C227.5903,128.0308 217.1321,129.0202 208.9128,114.378 C199.4569,124.4118 186.9897,125.4236 181.3132,110.2413 C165.4724,123.1915 148.9214,124.9248 142,100.7869 C144.9576,101.4664 145.5851,102.9467 143.8617,105.4822 C122.5346,100.0828 119.0802,87.0275 131.2491,69.7912 C115.5403,46.5675 123.1125,29.6292 149,21.7869 C152.0887,20.9361 154.1721,22.7259 153.3115,25.9577 " fill="none" style="stroke:#181818;stroke-width:1.0;"/><text fill="#000000" font-family="sans-serif" font-size="14" font-weight="bold" lengthAdjust="spacing" textLength="56" x="315" y="41.8943">&#22806;&#37096;&#32593;&#32476;</text></g><!--cluster ??--><g id="cluster_&#32593;&#20851;"><path d="M264.5,148.7869 L293.5,148.7869 A3.75,3.75 0 0 1 296,151.2869 L303,173.408 L365.5,173.408 A2.5,2.5 0 0 1 368,175.908 L368,494.2869 A2.5,2.5 0 0 1 365.5,496.7869 L264.5,496.7869 A2.5,2.5 0 0 1 262,494.2869 L262,151.2869 A2.5,2.5 0 0 1 264.5,148.7869 " fill="none" style="stroke:#000000;stroke-width:1.5;"/><line style="stroke:#000000;stroke-width:1.5;" x1="262" x2="303" y1="173.408" y2="173.408"/><text fill="#000000" font-family="sans-serif" font-size="14" font-weight="bold" lengthAdjust="spacing" textLength="28" x="266" y="165.8943">&#32593;&#20851;</text></g><!--cluster ????--><g id="cluster_&#20869;&#37096;&#32593;&#32476;"><path d="M8.5,529.7869 L65.5,529.7869 A3.75,3.75 0 0 1 68,532.2869 L75,554.408 L760.5,554.408 A2.5,2.5 0 0 1 763,556.908 L763,757.2869 A2.5,2.5 0 0 1 760.5,759.7869 L8.5,759.7869 A2.5,2.5 0 0 1 6,757.2869 L6,532.2869 A2.5,2.5 0 0 1 8.5,529.7869 " fill="none" style="stroke:#000000;stroke-width:1.5;"/><line style="stroke:#000000;stroke-width:1.5;" x1="6" x2="75" y1="554.408" y2="554.408"/><text fill="#000000" font-family="sans-serif" font-size="14" font-weight="bold" lengthAdjust="spacing" textLength="56" x="10" y="546.8943">&#20869;&#37096;&#32593;&#32476;</text></g><!--entity ???--><g id="elem_&#27983;&#35272;&#22120;"><rect fill="#F1F1F1" height="48.6211" rx="2.5" ry="2.5" style="stroke:#181818;stroke-width:0.5;" width="82" x="150" y="50.7869"/><rect fill="#F1F1F1" height="10" style="stroke:#181818;stroke-width:0.5;" width="15" x="212" y="55.7869"/><rect fill="#F1F1F1" height="2" style="stroke:#181818;stroke-width:0.5;" width="4" x="210" y="57.7869"/><rect fill="#F1F1F1" height="2" style="stroke:#181818;stroke-width:0.5;" width="4" x="210" y="61.7869"/><text fill="#000000" font-family="sans-serif" font-size="14" lengthAdjust="spacing" textLength="42" x="165" y="85.8943">&#27983;&#35272;&#22120;</text></g><!--entity OpenAPI--><g id="elem_OpenAPI"><rect fill="#F1F1F1" height="48.6211" rx="2.5" ry="2.5" style="stroke:#181818;stroke-width:0.5;" width="96" x="267" y="50.7869"/><rect fill="#F1F1F1" height="10" style="stroke:#181818;stroke-width:0.5;" width="15" x="343" y="55.7869"/><rect fill="#F1F1F1" height="2" style="stroke:#181818;stroke-width:0.5;" width="4" x="341" y="57.7869"/><rect fill="#F1F1F1" height="2" style="stroke:#181818;stroke-width:0.5;" width="4" x="341" y="61.7869"/><text fill="#000000" font-family="sans-serif" font-size="14" lengthAdjust="spacing" textLength="56" x="282" y="85.8943">OpenAPI</text></g><!--entity ???????--><g id="elem_&#33258;&#21160;&#21270;&#31614;&#21517;&#31243;&#24207;"><rect fill="#F1F1F1" height="48.6211" rx="2.5" ry="2.5" style="stroke:#181818;stroke-width:0.5;" width="138" x="398" y="50.7869"/><rect fill="#F1F1F1" height="10" style="stroke:#181818;stroke-width:0.5;" width="15" x="516" y="55.7869"/><rect fill="#F1F1F1" height="2" style="stroke:#181818;stroke-width:0.5;" width="4" x="514" y="57.7869"/><rect fill="#F1F1F1" height="2" style="stroke:#181818;stroke-width:0.5;" width="4" x="514" y="61.7869"/><text fill="#000000" font-family="sans-serif" font-size="14" lengthAdjust="spacing" textLength="98" x="413" y="85.8943">&#33258;&#21160;&#21270;&#31614;&#21517;&#31243;&#24207;</text></g><!--entity Nginx--><g id="elem_Nginx"><polygon fill="#F1F1F1" points="278,318.7869,288,308.7869,352,308.7869,352,347.408,342,357.408,278,357.408,278,318.7869" style="stroke:#181818;stroke-width:0.5;"/><line style="stroke:#181818;stroke-width:0.5;" x1="342" x2="352" y1="318.7869" y2="308.7869"/><line style="stroke:#181818;stroke-width:0.5;" x1="278" x2="342" y1="318.7869" y2="318.7869"/><line style="stroke:#181818;stroke-width:0.5;" x1="342" x2="342" y1="318.7869" y2="357.408"/><text fill="#000000" font-family="sans-serif" font-size="14" lengthAdjust="spacing" textLength="34" x="293" y="343.8943">Nginx</text></g><!--entity https--><g id="elem_https"><ellipse cx="315" cy="216.7869" fill="#F1F1F1" rx="8" ry="8" style="stroke:#181818;stroke-width:0.5;"/><text fill="#000000" font-family="sans-serif" font-size="14" lengthAdjust="spacing" textLength="31" x="299.5" y="248.8943">https</text></g><!--entity http--><g id="elem_http"><ellipse cx="315" cy="449.7869" fill="#F1F1F1" rx="8" ry="8" style="stroke:#181818;stroke-width:0.5;"/><text fill="#000000" font-family="sans-serif" font-size="14" lengthAdjust="spacing" textLength="24" x="303" y="481.8943">http</text></g><!--entity ???????--><g id="elem_&#31614;&#21517;&#26381;&#21153;&#22120;&#38598;&#32676;"><polygon fill="#F1F1F1" points="326,576.7869,336,566.7869,464,566.7869,464,605.408,454,615.408,326,615.408,326,576.7869" style="stroke:#181818;stroke-width:0.5;"/><line style="stroke:#181818;stroke-width:0.5;" x1="454" x2="464" y1="576.7869" y2="566.7869"/><line style="stroke:#181818;stroke-width:0.5;" x1="326" x2="454" y1="576.7869" y2="576.7869"/><line style="stroke:#181818;stroke-width:0.5;" x1="454" x2="454" y1="576.7869" y2="615.408"/><text fill="#000000" font-family="sans-serif" font-size="14" lengthAdjust="spacing" textLength="98" x="341" y="601.8943">&#31614;&#21517;&#26381;&#21153;&#22120;&#38598;&#32676;</text></g><!--entity RabbitMQ--><g id="elem_RabbitMQ"><path d="M431.5,705.2869 C431.5,695.2869 473,695.2869 473,695.2869 C473,695.2869 514.5,695.2869 514.5,705.2869 L514.5,732.908 C514.5,742.908 473,742.908 473,742.908 C473,742.908 431.5,742.908 431.5,732.908 L431.5,705.2869 " fill="#F1F1F1" style="stroke:#181818;stroke-width:0.5;"/><path d="M431.5,705.2869 C431.5,715.2869 473,715.2869 473,715.2869 C473,715.2869 514.5,715.2869 514.5,705.2869 " fill="none" style="stroke:#181818;stroke-width:0.5;"/><text fill="#000000" font-family="sans-serif" font-size="14" lengthAdjust="spacing" textLength="63" x="441.5" y="734.3943">RabbitMQ</text></g><!--entity ??????--><g id="elem_&#20027;&#26381;&#21153;&#22120;&#38598;&#32676;"><polygon fill="#F1F1F1" points="22,576.7869,32,566.7869,146,566.7869,146,605.408,136,615.408,22,615.408,22,576.7869" style="stroke:#181818;stroke-width:0.5;"/><line style="stroke:#181818;stroke-width:0.5;" x1="136" x2="146" y1="576.7869" y2="566.7869"/><line style="stroke:#181818;stroke-width:0.5;" x1="22" x2="136" y1="576.7869" y2="576.7869"/><line style="stroke:#181818;stroke-width:0.5;" x1="136" x2="136" y1="576.7869" y2="615.408"/><text fill="#000000" font-family="sans-serif" font-size="14" lengthAdjust="spacing" textLength="84" x="37" y="601.8943">&#20027;&#26381;&#21153;&#22120;&#38598;&#32676;</text></g><!--entity ?Windows????HLK????--><g id="elem_&#21508;Windows&#31995;&#32479;&#29256;&#26412;HLK&#27979;&#35797;&#38598;&#32676;"><polygon fill="#F1F1F1" points="499,576.7869,509,566.7869,747,566.7869,747,605.408,737,615.408,499,615.408,499,576.7869" style="stroke:#181818;stroke-width:0.5;"/><line style="stroke:#181818;stroke-width:0.5;" x1="737" x2="747" y1="576.7869" y2="566.7869"/><line style="stroke:#181818;stroke-width:0.5;" x1="499" x2="737" y1="576.7869" y2="576.7869"/><line style="stroke:#181818;stroke-width:0.5;" x1="737" x2="737" y1="576.7869" y2="615.408"/><text fill="#000000" font-family="sans-serif" font-size="14" lengthAdjust="spacing" textLength="208" x="514" y="601.8943">&#21508;Windows&#31995;&#32479;&#29256;&#26412;HLK&#27979;&#35797;&#38598;&#32676;</text></g><!--entity ?????--><g id="elem_&#32593;&#31449;&#26381;&#21153;&#22120;"><polygon fill="#F1F1F1" points="181,576.7869,191,566.7869,291,566.7869,291,605.408,281,615.408,181,615.408,181,576.7869" style="stroke:#181818;stroke-width:0.5;"/><line style="stroke:#181818;stroke-width:0.5;" x1="281" x2="291" y1="576.7869" y2="566.7869"/><line style="stroke:#181818;stroke-width:0.5;" x1="181" x2="281" y1="576.7869" y2="576.7869"/><line style="stroke:#181818;stroke-width:0.5;" x1="281" x2="281" y1="576.7869" y2="615.408"/><text fill="#000000" font-family="sans-serif" font-size="14" lengthAdjust="spacing" textLength="70" x="196" y="601.8943">&#32593;&#31449;&#26381;&#21153;&#22120;</text></g><!--entity Redis--><g id="elem_Redis"><path d="M22,705.2869 C22,695.2869 50,695.2869 50,695.2869 C50,695.2869 78,695.2869 78,705.2869 L78,732.908 C78,742.908 50,742.908 50,742.908 C50,742.908 22,742.908 22,732.908 L22,705.2869 " fill="#F1F1F1" style="stroke:#181818;stroke-width:0.5;"/><path d="M22,705.2869 C22,715.2869 50,715.2869 50,715.2869 C50,715.2869 78,715.2869 78,705.2869 " fill="none" style="stroke:#181818;stroke-width:0.5;"/><text fill="#000000" font-family="sans-serif" font-size="14" lengthAdjust="spacing" textLength="36" x="32" y="734.3943">Redis</text></g><!--entity Tusd--><g id="elem_Tusd"><path d="M113,705.2869 C113,695.2869 139,695.2869 139,695.2869 C139,695.2869 165,695.2869 165,705.2869 L165,732.908 C165,742.908 139,742.908 139,742.908 C139,742.908 113,742.908 113,732.908 L113,705.2869 " fill="#F1F1F1" style="stroke:#181818;stroke-width:0.5;"/><path d="M113,705.2869 C113,715.2869 139,715.2869 139,715.2869 C139,715.2869 165,715.2869 165,705.2869 " fill="none" style="stroke:#181818;stroke-width:0.5;"/><text fill="#000000" font-family="sans-serif" font-size="14" lengthAdjust="spacing" textLength="32" x="123" y="734.3943">Tusd</text></g><!--entity MySQL--><g id="elem_MySQL"><path d="M200,705.2869 C200,695.2869 233,695.2869 233,695.2869 C233,695.2869 266,695.2869 266,705.2869 L266,732.908 C266,742.908 233,742.908 233,742.908 C233,742.908 200,742.908 200,732.908 L200,705.2869 " fill="#F1F1F1" style="stroke:#181818;stroke-width:0.5;"/><path d="M200,705.2869 C200,715.2869 233,715.2869 233,715.2869 C233,715.2869 266,715.2869 266,705.2869 " fill="none" style="stroke:#181818;stroke-width:0.5;"/><text fill="#000000" font-family="sans-serif" font-size="14" lengthAdjust="spacing" textLength="46" x="210" y="734.3943">MySQL</text></g><!--entity Fastlane--><g id="elem_Fastlane"><polygon fill="#F1F1F1" points="301.5,704.7869,311.5,694.7869,396.5,694.7869,396.5,733.408,386.5,743.408,301.5,743.408,301.5,704.7869" style="stroke:#181818;stroke-width:0.5;"/><line style="stroke:#181818;stroke-width:0.5;" x1="386.5" x2="396.5" y1="704.7869" y2="694.7869"/><line style="stroke:#181818;stroke-width:0.5;" x1="301.5" x2="386.5" y1="704.7869" y2="704.7869"/><line style="stroke:#181818;stroke-width:0.5;" x1="386.5" x2="386.5" y1="704.7869" y2="743.408"/><text fill="#000000" font-family="sans-serif" font-size="14" lengthAdjust="spacing" textLength="55" x="316.5" y="729.8943">Fastlane</text></g><!--link https to Nginx--><g id="link_https_Nginx"><path d="M315,226.0169 C315,243.0469 315,282.6769 315,308.4369 " fill="none" id="https-Nginx" style="stroke:#181818;stroke-width:1.0;"/></g><!--link Nginx to http--><g id="link_Nginx_http"><path d="M315,358.0069 C315,383.8169 315,423.6669 315,440.6569 " fill="none" id="Nginx-http" style="stroke:#181818;stroke-width:1.0;"/></g><!--link ??? to https--><g id="link_&#27983;&#35272;&#22120;_https"><path d="M212.03,99.9469 C240.36,131.8269 285.364,182.4423 303.754,203.1323 " fill="none" id="&#27983;&#35272;&#22120;-to-https" style="stroke:#181818;stroke-width:1.0;"/><polygon fill="#181818" points="307.74,207.6169,304.7506,198.2327,304.4183,203.8797,298.7712,203.5474,307.74,207.6169" style="stroke:#181818;stroke-width:1.0;"/></g><!--link OpenAPI to https--><g id="link_OpenAPI_https"><path d="M315,99.9469 C315,131.8269 315,180.9269 315,201.6169 " fill="none" id="OpenAPI-to-https" style="stroke:#181818;stroke-width:1.0;"/><polygon fill="#181818" points="315,207.6169,319,198.6169,315,202.6169,311,198.6169,315,207.6169" style="stroke:#181818;stroke-width:1.0;"/></g><!--link ??????? to https--><g id="link_&#33258;&#21160;&#21270;&#31614;&#21517;&#31243;&#24207;_https"><path d="M441.22,99.9469 C406.49,131.8269 350.8602,182.8695 328.3202,203.5595 " fill="none" id="&#33258;&#21160;&#21270;&#31614;&#21517;&#31243;&#24207;-to-https" style="stroke:#181818;stroke-width:1.0;"/><polygon fill="#181818" points="323.9,207.6169,333.2351,204.4776,327.5835,204.2357,327.8253,198.5841,323.9,207.6169" style="stroke:#181818;stroke-width:1.0;"/></g><!--link http to ??????--><g id="link_http_&#20027;&#26381;&#21153;&#22120;&#38598;&#32676;"><path d="M305.7,454.1469 C281.35,463.1569 214.12,489.3969 164,521.7869 C143.88,534.7869 127.8074,548.3448 112.6074,562.4548 " fill="none" id="http-to-&#20027;&#26381;&#21153;&#22120;&#38598;&#32676;" style="stroke:#181818;stroke-width:1.0;"/><polygon fill="#181818" points="108.21,566.5369,117.5274,563.3454,111.8745,563.1352,112.0847,557.4822,108.21,566.5369" style="stroke:#181818;stroke-width:1.0;"/></g><!--link http to ?????--><g id="link_http_&#32593;&#31449;&#26381;&#21153;&#22120;"><path d="M310.29,459.0969 C298.5,479.9169 270.307,529.7161 252.307,561.4961 " fill="none" id="http-to-&#32593;&#31449;&#26381;&#21153;&#22120;" style="stroke:#181818;stroke-width:1.0;"/><polygon fill="#181818" points="249.35,566.7169,257.266,560.8571,251.8142,562.3663,250.305,556.9144,249.35,566.7169" style="stroke:#181818;stroke-width:1.0;"/></g><!--link ?????? to Redis--><g id="link_&#20027;&#26381;&#21153;&#22120;&#38598;&#32676;_Redis"><path d="M77.6,615.9869 C71.49,638.6569 63.8834,666.8342 57.8134,689.3242 " fill="none" id="&#20027;&#26381;&#21153;&#22120;&#38598;&#32676;-to-Redis" style="stroke:#181818;stroke-width:1.0;"/><polygon fill="#181818" points="56.25,695.1169,62.457,687.4701,57.5529,690.2896,54.7333,685.3855,56.25,695.1169" style="stroke:#181818;stroke-width:1.0;"/></g><!--link ?????? to RabbitMQ--><g id="link_&#20027;&#26381;&#21153;&#22120;&#38598;&#32676;_RabbitMQ"><path d="M146.3,611.0069 C227.31,635.4469 364.3,677.1969 414,694.7869 C419.61,696.7769 419.8834,696.8039 425.6534,699.0339 " fill="none" id="&#20027;&#26381;&#21153;&#22120;&#38598;&#32676;-to-RabbitMQ" style="stroke:#181818;stroke-width:1.0;stroke-dasharray:7.0,7.0;"/><polygon fill="#181818" points="431.25,701.1969,424.2971,694.2214,426.5862,699.3944,421.4132,701.6835,431.25,701.1969" style="stroke:#181818;stroke-width:1.0;"/><text fill="#000000" font-family="sans-serif" font-size="13" lengthAdjust="spacing" textLength="52" x="320" y="660.8152">&#21457;&#36865;&#28040;&#24687;</text></g><!--link ?????? to Tusd--><g id="link_&#20027;&#26381;&#21153;&#22120;&#38598;&#32676;_Tusd"><path d="M94.35,615.9869 C104.24,638.6569 116.6691,667.1282 126.4891,689.6182 " fill="none" id="&#20027;&#26381;&#21153;&#22120;&#38598;&#32676;-to-Tusd" style="stroke:#181818;stroke-width:1.0;"/><polygon fill="#181818" points="128.89,695.1169,128.9544,685.2682,126.8892,690.5347,121.6228,688.4695,128.89,695.1169" style="stroke:#181818;stroke-width:1.0;"/></g><!--link ?????? to Fastlane--><g id="link_&#20027;&#26381;&#21153;&#22120;&#38598;&#32676;_Fastlane"><path d="M133.53,615.8369 C181.62,638.7069 248.6812,670.5907 296.0712,693.1207 " fill="none" id="&#20027;&#26381;&#21153;&#22120;&#38598;&#32676;-to-Fastlane" style="stroke:#181818;stroke-width:1.0;"/><polygon fill="#181818" points="301.49,695.6969,295.0793,688.2201,296.9743,693.5501,291.6444,695.4451,301.49,695.6969" style="stroke:#181818;stroke-width:1.0;"/></g><!--link ?????? to MySQL--><g id="link_&#20027;&#26381;&#21153;&#22120;&#38598;&#32676;_MySQL"><path d="M112.03,615.9869 C138.83,638.6569 174.4289,668.7522 201.0189,691.2422 " fill="none" id="&#20027;&#26381;&#21153;&#22120;&#38598;&#32676;-to-MySQL" style="stroke:#181818;stroke-width:1.0;"/><polygon fill="#181818" points="205.6,695.1169,201.3115,686.2507,201.7824,691.8879,196.1452,692.3589,205.6,695.1169" style="stroke:#181818;stroke-width:1.0;"/></g><!--reverse link ??????? to RabbitMQ--><g id="link_&#31614;&#21517;&#26381;&#21153;&#22120;&#38598;&#32676;_RabbitMQ"><path d="M412.8275,621.0889 C426.8575,643.7589 444.74,672.6269 458.66,695.1169 " fill="none" id="&#31614;&#21517;&#26381;&#21153;&#22120;&#38598;&#32676;-backto-RabbitMQ" style="stroke:#181818;stroke-width:1.0;stroke-dasharray:7.0,7.0;"/><polygon fill="#181818" points="409.67,615.9869,411.0049,625.7449,412.3013,620.2385,417.8076,621.5348,409.67,615.9869" style="stroke:#181818;stroke-width:1.0;"/><text fill="#000000" font-family="sans-serif" font-size="13" lengthAdjust="spacing" textLength="52" x="439" y="660.8152">&#28040;&#36153;&#28040;&#24687;</text></g><!--link ??????? to http--><g id="link_&#31614;&#21517;&#26381;&#21153;&#22120;&#38598;&#32676;_http"><path d="M381.48,566.7169 C363.26,534.9369 334.6968,485.1206 322.7468,464.3006 " fill="none" id="&#31614;&#21517;&#26381;&#21153;&#22120;&#38598;&#32676;-to-http" style="stroke:#181818;stroke-width:1.0;"/><polygon fill="#181818" points="319.76,459.0969,320.771,468.8937,322.249,463.4334,327.7094,464.9113,319.76,459.0969" style="stroke:#181818;stroke-width:1.0;"/></g><!--link ?Windows????HLK???? to http--><g id="link_&#21508;Windows&#31995;&#32479;&#29256;&#26412;HLK&#27979;&#35797;&#38598;&#32676;_http"><path d="M575.96,566.6969 C548.68,553.2069 513.58,536.1569 482,521.7869 C422.36,494.6369 354.9493,466.994 329.6793,456.734 " fill="none" id="&#21508;Windows&#31995;&#32479;&#29256;&#26412;HLK&#27979;&#35797;&#38598;&#32676;-to-http" style="stroke:#181818;stroke-width:1.0;"/><polygon fill="#181818" points="324.12,454.4769,330.9541,461.5688,328.7527,456.3578,333.9636,454.1564,324.12,454.4769" style="stroke:#181818;stroke-width:1.0;"/></g><!--SRC=[ZL7VIy9G67s_VyLzwsdpNKBe9OgqieAUhzlDHdett4P514bffedwa2094GX9F_31Z4hoh-dkwd_HlCwrvOGUDhZddE_xplc-XNt3qFHmAAIb437CT4gKr7J8_ZILO688ieAI6PG604WfrPGXRTL7vstsLMFz9Zm14BfIQFKgmuS2RRHzw8Q6oTBcgWyRNZxIOfjUrzdBW5RBh5sYdnLm2ZGa7Q0aXdPxcklozX0ILSPmFQcG8_vKY84pUqZ2a3iFm3Z42w1WQe97vu2oUaWci6ScpUVymVZSYK6hMQR5UplPw3RF1YsRb9614aZ7S0ib4eeHYqyBlj_xishEqEh5haBisJhhzbd_ZbqLhERpIdJDwfM6dHk_UEpZgU5syat4ig9xWHrJbxtlsF5sF3fjj8nqmxuijfC2u5u82aB4sOjp7myIU1qFF_xpPq1Mb_iRO5RBPPCm0QGeHjpTmZ2abTheB6kz5QniPrulleSvdBk6EVnaPu7NXekYwBLYcnY-VZXMWYkckmB_klcl_0S0]--></g></svg>