<?xml version="1.0" encoding="us-ascii" standalone="no"?><svg xmlns="http://www.w3.org/2000/svg" xmlns:xlink="http://www.w3.org/1999/xlink" contentStyleType="text/css" height="839px" preserveAspectRatio="none" style="width:647px;height:839px;background:#FFFFFF;" version="1.1" viewBox="0 0 647 839" width="647px" zoomAndPan="magnify"><defs/><g><!--cluster ????--><g id="cluster_&#21518;&#21488;&#31649;&#29702;"><rect fill="none" height="826" rx="2.5" ry="2.5" style="stroke:#181818;stroke-width:1.0;" width="521" x="120" y="7"/><text fill="#000000" font-family="sans-serif" font-size="14" font-weight="bold" lengthAdjust="spacing" textLength="56" x="352.5" y="24.1074">&#21518;&#21488;&#31649;&#29702;</text></g><g id="elem_&#29992;&#25143;&#26597;&#35810;&#19982;&#31649;&#29702;"><ellipse cx="220.7476" cy="177.1495" fill="#F1F1F1" rx="76.2476" ry="17.6495" style="stroke:#181818;stroke-width:0.5;"/><text fill="#000000" font-family="sans-serif" font-size="14" lengthAdjust="spacing" textLength="98" x="168.7476" y="181.9532">&#29992;&#25143;&#26597;&#35810;&#19982;&#31649;&#29702;</text></g><g id="elem_&#20923;&#32467;&#35299;&#20923;&#29992;&#25143;"><ellipse cx="494.9559" cy="211.1912" fill="#F1F1F1" rx="71.4559" ry="16.6912" style="stroke:#181818;stroke-width:0.5;"/><text fill="#000000" font-family="sans-serif" font-size="14" lengthAdjust="spacing" textLength="84" x="449.9559" y="215.9949">&#20923;&#32467;&#35299;&#20923;&#29992;&#25143;</text></g><g id="elem_&#37325;&#32622;&#29992;&#25143;&#23494;&#30721;"><ellipse cx="494.9559" cy="143.1912" fill="#F1F1F1" rx="71.4559" ry="16.6912" style="stroke:#181818;stroke-width:0.5;"/><text fill="#000000" font-family="sans-serif" font-size="14" lengthAdjust="spacing" textLength="84" x="449.9559" y="147.9949">&#37325;&#32622;&#29992;&#25143;&#23494;&#30721;</text></g><g id="elem_&#37325;&#32622;&#29992;&#25143;&#36830;&#32493;&#30331;&#24405;&#22833;&#36133;&#27425;&#25968;"><ellipse cx="494.827" cy="67.7654" fill="#F1F1F1" rx="104.327" ry="23.2654" style="stroke:#181818;stroke-width:0.5;"/><text fill="#000000" font-family="sans-serif" font-size="14" lengthAdjust="spacing" textLength="168" x="410.827" y="71.5623">&#37325;&#32622;&#29992;&#25143;&#36830;&#32493;&#30331;&#24405;&#22833;&#36133;&#27425;&#25968;</text></g><g id="elem_&#24212;&#29992;&#26597;&#35810;&#19982;&#23548;&#20986;"><ellipse cx="220.7476" cy="363.1495" fill="#F1F1F1" rx="76.2476" ry="17.6495" style="stroke:#181818;stroke-width:0.5;"/><text fill="#000000" font-family="sans-serif" font-size="14" lengthAdjust="spacing" textLength="98" x="168.7476" y="367.9532">&#24212;&#29992;&#26597;&#35810;&#19982;&#23548;&#20986;</text></g><g id="elem_&#20844;&#20849;&#35777;&#20070;&#31649;&#29702;"><ellipse cx="220.4559" cy="432.1912" fill="#F1F1F1" rx="71.4559" ry="16.6912" style="stroke:#181818;stroke-width:0.5;"/><text fill="#000000" font-family="sans-serif" font-size="14" lengthAdjust="spacing" textLength="84" x="175.4559" y="436.9949">&#20844;&#20849;&#35777;&#20070;&#31649;&#29702;</text></g><g id="elem_Android&#35777;&#20070;&#32452;&#32455;&#26032;&#22686;&#21644;&#21024;&#38500;"><ellipse cx="494.9481" cy="466.8896" fill="#F1F1F1" rx="107.4481" ry="23.8896" style="stroke:#181818;stroke-width:0.5;"/><text fill="#000000" font-family="sans-serif" font-size="14" lengthAdjust="spacing" textLength="175" x="407.4481" y="470.6865">Android&#35777;&#20070;&#32452;&#32455;&#26032;&#22686;&#21644;&#21024;&#38500;</text></g><g id="elem_Windows&#20844;&#20849;&#35777;&#20070;&#19978;&#20256;&#12289;&#28155;&#21152;&#19982;&#21024;&#38500;"><ellipse cx="494.8509" cy="378.8702" fill="#F1F1F1" rx="129.8509" ry="28.3702" style="stroke:#181818;stroke-width:0.5;"/><text fill="#000000" font-family="sans-serif" font-size="14" lengthAdjust="spacing" textLength="224" x="382.8509" y="382.6671">Windows&#20844;&#20849;&#35777;&#20070;&#19978;&#20256;&#12289;&#28155;&#21152;&#19982;&#21024;&#38500;</text></g><g id="elem_Apple&#20844;&#20849;&#35777;&#20070;&#30003;&#35831;&#12289;&#19978;&#20256;&#19982;&#21024;&#38500;"><ellipse cx="495.1059" cy="289.0212" fill="#F1F1F1" rx="120.6059" ry="26.5212" style="stroke:#181818;stroke-width:0.5;"/><text fill="#000000" font-family="sans-serif" font-size="14" lengthAdjust="spacing" textLength="204" x="393.1059" y="292.8181">Apple&#20844;&#20849;&#35777;&#20070;&#30003;&#35831;&#12289;&#19978;&#20256;&#19982;&#21024;&#38500;</text></g><g id="elem_Apple&#27979;&#35797;&#35774;&#22791;&#31649;&#29702;"><ellipse cx="220.4261" cy="502.7852" fill="#F1F1F1" rx="84.4261" ry="19.2852" style="stroke:#181818;stroke-width:0.5;"/><text fill="#000000" font-family="sans-serif" font-size="14" lengthAdjust="spacing" textLength="120" x="157.4261" y="507.5889">Apple&#27979;&#35797;&#35774;&#22791;&#31649;&#29702;</text></g><g id="elem_&#31995;&#32479;&#32479;&#35745;&#22270;&#34920;"><ellipse cx="220.4559" cy="581.1912" fill="#F1F1F1" rx="71.4559" ry="16.6912" style="stroke:#181818;stroke-width:0.5;"/><text fill="#000000" font-family="sans-serif" font-size="14" lengthAdjust="spacing" textLength="84" x="175.4559" y="585.9949">&#31995;&#32479;&#32479;&#35745;&#22270;&#34920;</text></g><g id="elem_&#21508;&#24179;&#21488;&#31614;&#21517;&#20219;&#21153;&#32791;&#26102;&#32479;&#35745;&#25240;&#32447;&#22270;"><ellipse cx="494.9437" cy="790.7887" fill="#F1F1F1" rx="116.9437" ry="25.7887" style="stroke:#181818;stroke-width:0.5;"/><text fill="#000000" font-family="sans-serif" font-size="14" lengthAdjust="spacing" textLength="196" x="396.9437" y="794.5856">&#21508;&#24179;&#21488;&#31614;&#21517;&#20219;&#21153;&#32791;&#26102;&#32479;&#35745;&#25240;&#32447;&#22270;</text></g><g id="elem_&#21508;&#24179;&#21488;&#31614;&#21517;&#25104;&#21151;&#29575;&#32479;&#35745;&#25240;&#32447;&#22270;"><ellipse cx="495.0926" cy="705.0185" fill="#F1F1F1" rx="110.5926" ry="24.5185" style="stroke:#181818;stroke-width:0.5;"/><text fill="#000000" font-family="sans-serif" font-size="14" lengthAdjust="spacing" textLength="182" x="404.0926" y="708.8154">&#21508;&#24179;&#21488;&#31614;&#21517;&#25104;&#21151;&#29575;&#32479;&#35745;&#25240;&#32447;&#22270;</text></g><g id="elem_&#21508;&#24179;&#21488;&#31614;&#21517;&#37327;&#32479;&#35745;&#25240;&#32447;&#22270;"><ellipse cx="495.2232" cy="623.0446" fill="#F1F1F1" rx="98.2232" ry="22.0446" style="stroke:#181818;stroke-width:0.5;"/><text fill="#000000" font-family="sans-serif" font-size="14" lengthAdjust="spacing" textLength="154" x="416.5784" y="627.428">&#21508;&#24179;&#21488;&#31614;&#21517;&#37327;&#32479;&#35745;&#25240;&#32447;&#22270;</text></g><g id="elem_&#24212;&#29992;&#20107;&#20214;&#32479;&#35745;&#26609;&#29366;&#22270;"><ellipse cx="494.7688" cy="545.7538" fill="#F1F1F1" rx="86.7688" ry="19.7538" style="stroke:#181818;stroke-width:0.5;"/><text fill="#000000" font-family="sans-serif" font-size="14" lengthAdjust="spacing" textLength="126" x="428.7688" y="550.5575">&#24212;&#29992;&#20107;&#20214;&#32479;&#35745;&#26609;&#29366;&#22270;</text></g><g id="elem_&#31995;&#32479;&#20844;&#21578;&#31649;&#29702;"><ellipse cx="220.4559" cy="649.1912" fill="#F1F1F1" rx="71.4559" ry="16.6912" style="stroke:#181818;stroke-width:0.5;"/><text fill="#000000" font-family="sans-serif" font-size="14" lengthAdjust="spacing" textLength="84" x="175.4559" y="653.9949">&#31995;&#32479;&#20844;&#21578;&#31649;&#29702;</text></g><!--entity ?????--><g id="elem_&#31995;&#32479;&#31649;&#29702;&#21592;"><ellipse cx="41" cy="444.5" fill="#F1F1F1" rx="16" ry="16" style="stroke:#181818;stroke-width:0.5;"/><path d="M41,464.5 C45,464.5 48,464.5 52,460.5 C60,460.5 68,468.5 68,476.5 L68,480.5 C68,484.5 64,488.5 60,488.5 L22,488.5 C18,488.5 14,484.5 14,480.5 L14,476.5 C14,468.5 22,460.5 30,460.5 C34,464.5 37,464.5 41,464.5 " fill="#F1F1F1" style="stroke:#181818;stroke-width:0.5;"/><text fill="#000000" font-family="sans-serif" font-size="14" lengthAdjust="spacing" textLength="70" x="6" y="504.1074">&#31995;&#32479;&#31649;&#29702;&#21592;</text></g><!--link ????? to ???????--><g id="link_&#31995;&#32479;&#31649;&#29702;&#21592;_&#29992;&#25143;&#26597;&#35810;&#19982;&#31649;&#29702;"><path d="M60.02,427.9 C73.3,399.42 92.4,360.61 112,328 C142.34,277.53 180.5445,226.7846 201.9745,199.2546 " fill="none" id="&#31995;&#32479;&#31649;&#29702;&#21592;-to-&#29992;&#25143;&#26597;&#35810;&#19982;&#31649;&#29702;" style="stroke:#181818;stroke-width:1.0;"/><polygon fill="#181818" points="205.66,194.52,196.9753,199.1649,202.5887,198.4655,203.2881,204.079,205.66,194.52" style="stroke:#181818;stroke-width:1.0;"/></g><!--link ??????? to ??????--><g id="link_&#29992;&#25143;&#26597;&#35810;&#19982;&#31649;&#29702;_&#20923;&#32467;&#35299;&#20923;&#29992;&#25143;"><path d="M287.81,185.27 C331.61,190.74 382.6763,197.1061 425.6563,202.4761 " fill="none" id="&#29992;&#25143;&#26597;&#35810;&#19982;&#31649;&#29702;-to-&#20923;&#32467;&#35299;&#20923;&#29992;&#25143;" style="stroke:#181818;stroke-width:1.0;stroke-dasharray:7.0,7.0;"/><polygon fill="#181818" points="431.61,203.22,423.1753,198.1351,426.6486,202.6001,422.1835,206.0733,431.61,203.22" style="stroke:#181818;stroke-width:1.0;"/></g><!--link ??????? to ??????--><g id="link_&#29992;&#25143;&#26597;&#35810;&#19982;&#31649;&#29702;_&#37325;&#32622;&#29992;&#25143;&#23494;&#30721;"><path d="M287.81,168.73 C331.61,163.26 382.6763,156.8939 425.6563,151.5239 " fill="none" id="&#29992;&#25143;&#26597;&#35810;&#19982;&#31649;&#29702;-to-&#37325;&#32622;&#29992;&#25143;&#23494;&#30721;" style="stroke:#181818;stroke-width:1.0;stroke-dasharray:7.0,7.0;"/><polygon fill="#181818" points="431.61,150.78,422.1835,147.9267,426.6486,151.3999,423.1753,155.8649,431.61,150.78" style="stroke:#181818;stroke-width:1.0;"/></g><!--link ??????? to ????????????--><g id="link_&#29992;&#25143;&#26597;&#35810;&#19982;&#31649;&#29702;_&#37325;&#32622;&#29992;&#25143;&#36830;&#32493;&#30331;&#24405;&#22833;&#36133;&#27425;&#25968;"><path d="M252.04,161.05 C280.74,146.42 325.11,124.71 365,109 C385.88,100.78 403.4126,94.7679 424.3626,88.2279 " fill="none" id="&#29992;&#25143;&#26597;&#35810;&#19982;&#31649;&#29702;-to-&#37325;&#32622;&#29992;&#25143;&#36830;&#32493;&#30331;&#24405;&#22833;&#36133;&#27425;&#25968;" style="stroke:#181818;stroke-width:1.0;stroke-dasharray:7.0,7.0;"/><polygon fill="#181818" points="430.09,86.44,420.3069,85.3036,425.3172,87.9299,422.6908,92.9402,430.09,86.44" style="stroke:#181818;stroke-width:1.0;"/></g><!--link ????? to ???????--><g id="link_&#31995;&#32479;&#31649;&#29702;&#21592;_&#24212;&#29992;&#26597;&#35810;&#19982;&#23548;&#20986;"><path d="M75.85,427.71 C86.53,416.89 98.96,406 112,398 C128.31,388 142.0474,382.2785 159.9174,376.8685 " fill="none" id="&#31995;&#32479;&#31649;&#29702;&#21592;-to-&#24212;&#29992;&#26597;&#35810;&#19982;&#23548;&#20986;" style="stroke:#181818;stroke-width:1.0;"/><polygon fill="#181818" points="165.66,375.13,155.8871,373.9094,160.8745,376.5788,158.2051,381.5662,165.66,375.13" style="stroke:#181818;stroke-width:1.0;"/></g><!--link ????? to ??????--><g id="link_&#31995;&#32479;&#31649;&#29702;&#21592;_&#20844;&#20849;&#35777;&#20070;&#31649;&#29702;"><path d="M76.22,461.06 C101.71,455.89 131.1094,449.921 160.2894,444.011 " fill="none" id="&#31995;&#32479;&#31649;&#29702;&#21592;-to-&#20844;&#20849;&#35777;&#20070;&#31649;&#29702;" style="stroke:#181818;stroke-width:1.0;"/><polygon fill="#181818" points="166.17,442.82,156.5551,440.6862,161.2695,443.8125,158.1431,448.5269,166.17,442.82" style="stroke:#181818;stroke-width:1.0;"/></g><!--link ?????? to Android?????????--><g id="link_&#20844;&#20849;&#35777;&#20070;&#31649;&#29702;_Android&#35777;&#20070;&#32452;&#32455;&#26032;&#22686;&#21644;&#21024;&#38500;"><path d="M283.33,439.94 C318.19,444.42 356.4789,449.3357 395.4089,454.3357 " fill="none" id="&#20844;&#20849;&#35777;&#20070;&#31649;&#29702;-to-Android&#35777;&#20070;&#32452;&#32455;&#26032;&#22686;&#21644;&#21024;&#38500;" style="stroke:#181818;stroke-width:1.0;stroke-dasharray:7.0,7.0;"/><polygon fill="#181818" points="401.36,455.1,392.9429,449.9861,396.4007,454.4631,391.9238,457.9209,401.36,455.1" style="stroke:#181818;stroke-width:1.0;"/></g><!--link ?????? to Windows????????????--><g id="link_&#20844;&#20849;&#35777;&#20070;&#31649;&#29702;_Windows&#20844;&#20849;&#35777;&#20070;&#19978;&#20256;&#12289;&#28155;&#21152;&#19982;&#21024;&#38500;"><path d="M275.66,421.47 C310.35,414.72 350.4703,406.9151 391.3103,398.9751 " fill="none" id="&#20844;&#20849;&#35777;&#20070;&#31649;&#29702;-to-Windows&#20844;&#20849;&#35777;&#20070;&#19978;&#20256;&#12289;&#28155;&#21152;&#19982;&#21024;&#38500;" style="stroke:#181818;stroke-width:1.0;stroke-dasharray:7.0,7.0;"/><polygon fill="#181818" points="397.2,397.83,387.602,395.6211,392.2919,398.7842,389.1288,403.4741,397.2,397.83" style="stroke:#181818;stroke-width:1.0;"/></g><!--link ?????? to Apple????????????--><g id="link_&#20844;&#20849;&#35777;&#20070;&#31649;&#29702;_Apple&#20844;&#20849;&#35777;&#20070;&#30003;&#35831;&#12289;&#19978;&#20256;&#19982;&#21024;&#38500;"><path d="M264.11,418.79 C277.82,413.48 292.65,406.56 305,398 C337.31,375.61 332.05,354.45 365,333 C380.17,323.12 392.1453,317.2542 409.4053,311.0342 " fill="none" id="&#20844;&#20849;&#35777;&#20070;&#31649;&#29702;-to-Apple&#20844;&#20849;&#35777;&#20070;&#30003;&#35831;&#12289;&#19978;&#20256;&#19982;&#21024;&#38500;" style="stroke:#181818;stroke-width:1.0;stroke-dasharray:7.0,7.0;"/><polygon fill="#181818" points="415.05,309,405.2269,308.2881,410.3461,310.6951,407.9391,315.8144,415.05,309" style="stroke:#181818;stroke-width:1.0;"/></g><!--link ????? to Apple??????--><g id="link_&#31995;&#32479;&#31649;&#29702;&#21592;_Apple&#27979;&#35797;&#35774;&#22791;&#31649;&#29702;"><path d="M76.22,474.75 C98.69,479.18 122.8732,483.9502 149.6732,489.2302 " fill="none" id="&#31995;&#32479;&#31649;&#29702;&#21592;-to-Apple&#27979;&#35797;&#35774;&#22791;&#31649;&#29702;" style="stroke:#181818;stroke-width:1.0;"/><polygon fill="#181818" points="155.56,490.39,147.5029,484.7257,150.6543,489.4235,145.9565,492.5749,155.56,490.39" style="stroke:#181818;stroke-width:1.0;"/></g><!--link ????? to ??????--><g id="link_&#31995;&#32479;&#31649;&#29702;&#21592;_&#31995;&#32479;&#32479;&#35745;&#22270;&#34920;"><path d="M75.24,508.31 C86.07,519.66 98.75,531.28 112,540 C130.77,552.35 148.1213,559.8524 168.0413,566.5324 " fill="none" id="&#31995;&#32479;&#31649;&#29702;&#21592;-to-&#31995;&#32479;&#32479;&#35745;&#22270;&#34920;" style="stroke:#181818;stroke-width:1.0;"/><polygon fill="#181818" points="173.73,568.44,166.4688,561.7861,168.9894,566.8503,163.9252,569.371,173.73,568.44" style="stroke:#181818;stroke-width:1.0;"/></g><!--link ?????? to ??????????????--><g id="link_&#31995;&#32479;&#32479;&#35745;&#22270;&#34920;_&#21508;&#24179;&#21488;&#31614;&#21517;&#20219;&#21153;&#32791;&#26102;&#32479;&#35745;&#25240;&#32447;&#22270;"><path d="M268.92,593.21 C281.8,598.3 294.95,605.35 305,615 C351.47,659.65 317.26,703.72 365,747 C377.62,758.44 387.7623,764.7443 403.8423,771.0343 " fill="none" id="&#31995;&#32479;&#32479;&#35745;&#22270;&#34920;-to-&#21508;&#24179;&#21488;&#31614;&#21517;&#20219;&#21153;&#32791;&#26102;&#32479;&#35745;&#25240;&#32447;&#22270;" style="stroke:#181818;stroke-width:1.0;stroke-dasharray:7.0,7.0;"/><polygon fill="#181818" points="409.43,773.22,402.5056,766.2162,404.7736,771.3985,399.5913,773.6665,409.43,773.22" style="stroke:#181818;stroke-width:1.0;"/></g><!--link ?????? to ?????????????--><g id="link_&#31995;&#32479;&#32479;&#35745;&#22270;&#34920;_&#21508;&#24179;&#21488;&#31614;&#21517;&#25104;&#21151;&#29575;&#32479;&#35745;&#25240;&#32447;&#22270;"><path d="M261.22,594.58 C275.44,600.1 291.32,607.07 305,615 C334.3,632 335.16,645.96 365,662 C383.09,671.72 398.0835,677.9158 417.5235,684.3458 " fill="none" id="&#31995;&#32479;&#32479;&#35745;&#22270;&#34920;-to-&#21508;&#24179;&#21488;&#31614;&#21517;&#25104;&#21151;&#29575;&#32479;&#35745;&#25240;&#32447;&#22270;" style="stroke:#181818;stroke-width:1.0;stroke-dasharray:7.0,7.0;"/><polygon fill="#181818" points="423.22,686.23,415.9314,679.6061,418.4729,684.6599,413.4192,687.2014,423.22,686.23" style="stroke:#181818;stroke-width:1.0;"/></g><!--link ?????? to ???????????--><g id="link_&#31995;&#32479;&#32479;&#35745;&#22270;&#34920;_&#21508;&#24179;&#21488;&#31614;&#21517;&#37327;&#32479;&#35745;&#25240;&#32447;&#22270;"><path d="M280.29,590.06 C319.33,596.08 365.1401,603.1354 407.9301,609.7354 " fill="none" id="&#31995;&#32479;&#32479;&#35745;&#22270;&#34920;-to-&#21508;&#24179;&#21488;&#31614;&#21517;&#37327;&#32479;&#35745;&#25240;&#32447;&#22270;" style="stroke:#181818;stroke-width:1.0;stroke-dasharray:7.0,7.0;"/><polygon fill="#181818" points="413.86,610.65,405.5749,605.3248,408.9184,609.8878,404.3554,613.2313,413.86,610.65" style="stroke:#181818;stroke-width:1.0;"/></g><!--link ?????? to ?????????--><g id="link_&#31995;&#32479;&#32479;&#35745;&#22270;&#34920;_&#24212;&#29992;&#20107;&#20214;&#32479;&#35745;&#26609;&#29366;&#22270;"><path d="M283.33,573.06 C323.46,567.9 370.0389,561.9245 412.6189,556.4545 " fill="none" id="&#31995;&#32479;&#32479;&#35745;&#22270;&#34920;-to-&#24212;&#29992;&#20107;&#20214;&#32479;&#35745;&#26609;&#29366;&#22270;" style="stroke:#181818;stroke-width:1.0;stroke-dasharray:7.0,7.0;"/><polygon fill="#181818" points="418.57,555.69,409.1337,552.8694,413.6108,556.3271,410.153,560.8041,418.57,555.69" style="stroke:#181818;stroke-width:1.0;"/></g><!--link ????? to ??????--><g id="link_&#31995;&#32479;&#31649;&#29702;&#21592;_&#31995;&#32479;&#20844;&#21578;&#31649;&#29702;"><path d="M51.52,508.09 C61.36,541.17 79.92,587.07 112,615 C125.73,626.95 137.9091,633.0331 155.1891,638.0631 " fill="none" id="&#31995;&#32479;&#31649;&#29702;&#21592;-to-&#31995;&#32479;&#20844;&#21578;&#31649;&#29702;" style="stroke:#181818;stroke-width:1.0;"/><polygon fill="#181818" points="160.95,639.74,153.4266,633.384,156.1493,638.3426,151.1907,641.0652,160.95,639.74" style="stroke:#181818;stroke-width:1.0;"/></g><!--SRC=[bLVTJzjM57_tNs7nmdW0tlSmYKdRMgrIcVgmPpV9GaGIHqbGLKsLY4hYA7maC3vAin7IaX9La8I5GeWRyiVCrtR-YrtxskPS-zxWye3C-RZd_CxvdNCliolvV2Rt_U9Y9Ycbyskfv494JYskvMBp4Gd_YYQaU5PA2K9kDP7EIFXJb29vEViY_peP4wLNiPoSYWd9s1zvCI-BsKHy9Iz64zbO99-Gqu8Wp5gVKZgEZOs-QgWDlTr4_no9Vmgp8lxvpjXlw-LRezCqQgKvHuQ6-rXCovvdOkcbvQT8kJIx1LfbNDwZsZOjquQRcdg3mvcTfdViVH5LJdoXQZkesgDbE81szycJlH5cIPBY_FmF8ioNKi2aAGKZS_f4a3wbW1ZeK008hG1eA0M4HFS4mF5welVRgBJbbVTOdHm_5AnRCauBsc176tpMXaDjtDGBNMtSqVVllFgDJmpr4hkXqG4wkpAlMvFZ6YhV44cWeYGQNH8x90sD7vT6EZKuJKZOCWyyAjUHEYGg5v5UlzOFUpvPlptPN_Ta61Cy3ks-8sc3qzWMy6oE1OX40s1G2mnMt-pU4fKF1oL3vTF9yHajmnNK_sxGiecoROmwH8QRCTbhyL73s5DHJx60UN6YW2pP5i6SVHi9Z9vNkALqD2idegAKMVrllI19B_L31SyXsjiocorjK21ERbb-JwIZygkSkFmJCVDfd_pspEoSWJ8-UVQh_cNJx1wuWiJp5s8Y8x6yKr84ApEhSPn7D1LdcPZAPrHfewr31qfx4mshWH6R2OTfXdPYG_CRUGYn0lubBYnWjGVNvyP0xREO0jvdoQp13Drfk4iVzjoNgdbU9iGX1dEKXbnOdiOZkrwkUJmE785pizryVFycEnZOjxB0wlTmaEsEjlkeLpB72XuAlLgRbFRcw3kM36Nb51LRz2g3g8oB2ssmhbyqjT7OcYUARSwCsGSPwYxgl5_AP98ny_eJgjwoZCXkjuq83SpEFJfJ-9k31uMtPzZ0E1lbCPZibam5_RWBfmIuhQ2huDx6NGLDqniji_i1NtlkSuIKk8HZ_cMUVxG-R3j7GHOU4P4Raw48Nf6u3lf1ppsSbCaDZBfVaJ9qTSKBLBoY7qXmQJeQTSDG5Mk_VpZ1AuPiSiVGMIhm86rGqRwUuZ7NRrNSHIiczB1BHmMswuhjYIFJ7fQQIjHfbxq8KFtURBPTQBKDTDUtsc1pGLDnBarp_KW_SjQ6Ndbd3CVOX-rWyQhIC7QKKDOJfSgn0ol2iMXS6PMR1mk2m2h8RiM5zaPWqP198O4fjRTra5PJZ8DK2sdCev_0doGV6TcM0MeAGH6vb1udwmpNznluopyaDALdc50v36Tp8C1t8IWYtGyz025Fu4r4IFVWY70T-JCpfIPmWgWxbkgNxrK8smKM3x7vHPQn_t9IUctK1wZOD_ORk0RQODCSZRn_JEq6asEyf_NRjZ7wbvPPrncUglC2UMWJsRPY3Cz9TRmdEDogz15wjMgEUyx3oIKOUNW7KbzUowr0RAxSffhuurewcemzZKxJcMz7g58ttczOSwHKNQEVfKZifIoladprWu-eV4JgmdsbCcliU_DDAxNr49sgjqa36n7A0NOfb0DiOJY7G7-P3tAIWgyWh4PX4uu2h25U0ttdXo6JpyNFAP-QpmpyTlyV]--></g></svg>