<?xml version="1.0" encoding="us-ascii" standalone="no"?><svg xmlns="http://www.w3.org/2000/svg" xmlns:xlink="http://www.w3.org/1999/xlink" contentStyleType="text/css" height="562px" preserveAspectRatio="none" style="width:617px;height:562px;background:#FFFFFF;" version="1.1" viewBox="0 0 617 562" width="617px" zoomAndPan="magnify"><defs/><g><!--cluster ????--><g id="cluster_&#35777;&#20070;&#31649;&#29702;"><rect fill="none" height="549" rx="2.5" ry="2.5" style="stroke:#181818;stroke-width:1.0;" width="507" x="104.5" y="7"/><text fill="#000000" font-family="sans-serif" font-size="14" font-weight="bold" lengthAdjust="spacing" textLength="56" x="330" y="24.1074">&#35777;&#20070;&#31649;&#29702;</text></g><g id="elem_Android&#35777;&#20070;&#30003;&#35831;&#19982;&#21024;&#38500;"><ellipse cx="224.7711" cy="65.9542" fill="#F1F1F1" rx="95.2711" ry="21.4542" style="stroke:#181818;stroke-width:0.5;"/><text fill="#000000" font-family="sans-serif" font-size="14" lengthAdjust="spacing" textLength="147" x="148.6672" y="70.6405">Android&#35777;&#20070;&#30003;&#35831;&#19982;&#21024;&#38500;</text></g><g id="elem_GooglePlay&#30456;&#20851;&#29983;&#25104;&#19979;&#36733;"><ellipse cx="225.0098" cy="144.802" fill="#F1F1F1" rx="99.5098" ry="22.302" style="stroke:#181818;stroke-width:0.5;"/><text fill="#000000" font-family="sans-serif" font-size="14" lengthAdjust="spacing" textLength="157" x="145.2577" y="149.0534">GooglePlay&#30456;&#20851;&#29983;&#25104;&#19979;&#36733;</text></g><g id="elem_&#19978;&#20256;&#35777;&#20070;"><ellipse cx="492.2907" cy="272.8608" fill="#F1F1F1" rx="51.7907" ry="16.3608" style="stroke:#181818;stroke-width:0.5;"/><text fill="#000000" font-family="sans-serif" font-size="14" lengthAdjust="spacing" textLength="56" x="461.2907" y="277.6645">&#19978;&#20256;&#35777;&#20070;</text></g><g id="elem_&#37096;&#32626;&#35777;&#20070;"><ellipse cx="492.2907" cy="204.8608" fill="#F1F1F1" rx="51.7907" ry="16.3608" style="stroke:#181818;stroke-width:0.5;"/><text fill="#000000" font-family="sans-serif" font-size="14" lengthAdjust="spacing" textLength="56" x="461.2907" y="209.6645">&#37096;&#32626;&#35777;&#20070;</text></g><g id="elem_&#21152;&#23494;&#31169;&#38053;"><ellipse cx="492.2907" cy="136.8608" fill="#F1F1F1" rx="51.7907" ry="16.3608" style="stroke:#181818;stroke-width:0.5;"/><text fill="#000000" font-family="sans-serif" font-size="14" lengthAdjust="spacing" textLength="56" x="461.2907" y="141.6645">&#21152;&#23494;&#31169;&#38053;</text></g><g id="elem_&#21319;&#32423;&#31614;&#21517;&#23494;&#38053;"><ellipse cx="492.4559" cy="69.1912" fill="#F1F1F1" rx="71.4559" ry="16.6912" style="stroke:#181818;stroke-width:0.5;"/><text fill="#000000" font-family="sans-serif" font-size="14" lengthAdjust="spacing" textLength="84" x="447.4559" y="73.9949">&#21319;&#32423;&#31614;&#21517;&#23494;&#38053;</text></g><g id="elem_Windows&#35777;&#20070;"><ellipse cx="224.9559" cy="219.1912" fill="#F1F1F1" rx="71.4559" ry="16.6912" style="stroke:#181818;stroke-width:0.5;"/><text fill="#000000" font-family="sans-serif" font-size="14" lengthAdjust="spacing" textLength="84" x="179.9559" y="223.9949">Windows&#35777;&#20070;</text></g><g id="elem_&#25551;&#36848;&#25991;&#20214;&#30003;&#35831;&#12289;&#26356;&#26032;&#19982;&#21024;&#38500;"><ellipse cx="224.827" cy="293.7654" fill="#F1F1F1" rx="104.327" ry="23.2654" style="stroke:#181818;stroke-width:0.5;"/><text fill="#000000" font-family="sans-serif" font-size="14" lengthAdjust="spacing" textLength="168" x="140.827" y="297.5623">&#25551;&#36848;&#25991;&#20214;&#30003;&#35831;&#12289;&#26356;&#26032;&#19982;&#21024;&#38500;</text></g><g id="elem_Push&#35777;&#20070;&#30003;&#35831;"><ellipse cx="224.7869" cy="369.9574" fill="#F1F1F1" rx="72.7869" ry="16.9574" style="stroke:#181818;stroke-width:0.5;"/><text fill="#000000" font-family="sans-serif" font-size="14" lengthAdjust="spacing" textLength="88" x="177.7869" y="374.7611">Push&#35777;&#20070;&#30003;&#35831;</text></g><g id="elem_Apple BundleId&#30003;&#35831;"><ellipse cx="225.0921" cy="442.0184" fill="#F1F1F1" rx="85.5921" ry="19.5184" style="stroke:#181818;stroke-width:0.5;"/><text fill="#000000" font-family="sans-serif" font-size="14" lengthAdjust="spacing" textLength="123" x="160.5921" y="446.8221">Apple BundleId&#30003;&#35831;</text></g><g id="elem_Apple BundleId&#33021;&#21147;&#30340;&#22686;&#20943;"><ellipse cx="492.4985" cy="441.9997" fill="#F1F1F1" rx="102.9985" ry="22.9997" style="stroke:#181818;stroke-width:0.5;"/><text fill="#000000" font-family="sans-serif" font-size="14" lengthAdjust="spacing" textLength="165" x="409.7441" y="445.8933">Apple BundleId&#33021;&#21147;&#30340;&#22686;&#20943;</text></g><g id="elem_Facebook&#23494;&#38053;&#25955;&#21015;&#29983;&#25104;"><ellipse cx="224.7711" cy="517.9542" fill="#F1F1F1" rx="95.2711" ry="21.4542" style="stroke:#181818;stroke-width:0.5;"/><text fill="#000000" font-family="sans-serif" font-size="14" lengthAdjust="spacing" textLength="147" x="148.6672" y="522.6405">Facebook&#23494;&#38053;&#25955;&#21015;&#29983;&#25104;</text></g><!--entity ??--><g id="elem_&#29992;&#25143;"><ellipse cx="33" cy="270.5" fill="#F1F1F1" rx="16" ry="16" style="stroke:#181818;stroke-width:0.5;"/><path d="M33,290.5 C37,290.5 40,290.5 44,286.5 C52,286.5 60,294.5 60,302.5 L60,306.5 C60,310.5 56,314.5 52,314.5 L14,314.5 C10,314.5 6,310.5 6,306.5 L6,302.5 C6,294.5 14,286.5 22,286.5 C26,290.5 29,290.5 33,290.5 " fill="#F1F1F1" style="stroke:#181818;stroke-width:0.5;"/><text fill="#000000" font-family="sans-serif" font-size="14" lengthAdjust="spacing" textLength="28" x="19" y="330.1074">&#29992;&#25143;</text></g><!--link ?? to Android???????--><g id="link_&#29992;&#25143;_Android&#35777;&#20070;&#30003;&#35831;&#19982;&#21024;&#38500;"><path d="M36.71,253.67 C41.72,211.05 55.97,144.62 96.5,105 C109.66,92.13 121.2411,85.3769 138.8211,79.5869 " fill="none" id="&#29992;&#25143;-to-Android&#35777;&#20070;&#30003;&#35831;&#19982;&#21024;&#38500;" style="stroke:#181818;stroke-width:1.0;"/><polygon fill="#181818" points="144.52,77.71,134.7204,76.7262,139.7709,79.2741,137.223,84.3246,144.52,77.71" style="stroke:#181818;stroke-width:1.0;"/></g><!--link ?? to GooglePlay??????--><g id="link_&#29992;&#25143;_GooglePlay&#30456;&#20851;&#29983;&#25104;&#19979;&#36733;"><path d="M48.34,253.96 C58.5,230.81 74.31,202.84 96.5,185 C111.06,173.3 123.3609,166.8763 141.2209,160.9963 " fill="none" id="&#29992;&#25143;-to-GooglePlay&#30456;&#20851;&#29983;&#25104;&#19979;&#36733;" style="stroke:#181818;stroke-width:1.0;"/><polygon fill="#181818" points="146.92,159.12,137.1205,158.1351,142.1708,160.6836,139.6222,165.7338,146.92,159.12" style="stroke:#181818;stroke-width:1.0;"/></g><!--link GooglePlay?????? to ????--><g id="link_GooglePlay&#30456;&#20851;&#29983;&#25104;&#19979;&#36733;_&#19978;&#20256;&#35777;&#20070;"><path d="M284.17,163.23 C299.45,169.14 315.55,176.43 329.5,185 C360.07,203.78 358.5,220.95 389.5,239 C408.21,249.9 425.1405,256.2529 444.3705,261.7429 " fill="none" id="GooglePlay&#30456;&#20851;&#29983;&#25104;&#19979;&#36733;-to-&#19978;&#20256;&#35777;&#20070;" style="stroke:#181818;stroke-width:1.0;stroke-dasharray:7.0,7.0;"/><polygon fill="#181818" points="450.14,263.39,442.5839,257.073,445.3321,262.0174,440.3877,264.7656,450.14,263.39" style="stroke:#181818;stroke-width:1.0;"/></g><!--link GooglePlay?????? to ????--><g id="link_GooglePlay&#30456;&#20851;&#29983;&#25104;&#19979;&#36733;_&#37096;&#32626;&#35777;&#20070;"><path d="M296.1,160.84 C344.96,171.88 402.6477,184.917 443.7877,194.217 " fill="none" id="GooglePlay&#30456;&#20851;&#29983;&#25104;&#19979;&#36733;-to-&#37096;&#32626;&#35777;&#20070;" style="stroke:#181818;stroke-width:1.0;stroke-dasharray:7.0,7.0;"/><polygon fill="#181818" points="449.64,195.54,441.7435,189.654,444.7631,194.4375,439.9795,197.4571,449.64,195.54" style="stroke:#181818;stroke-width:1.0;"/></g><!--link GooglePlay?????? to ????--><g id="link_GooglePlay&#30456;&#20851;&#29983;&#25104;&#19979;&#36733;_&#21152;&#23494;&#31169;&#38053;"><path d="M323.73,142.06 C363.36,140.86 401.4727,139.7097 434.5127,138.7197 " fill="none" id="GooglePlay&#30456;&#20851;&#29983;&#25104;&#19979;&#36733;-to-&#21152;&#23494;&#31169;&#38053;" style="stroke:#181818;stroke-width:1.0;stroke-dasharray:7.0,7.0;"/><polygon fill="#181818" points="440.51,138.54,431.3942,134.8113,435.5122,138.6898,431.6338,142.8078,440.51,138.54" style="stroke:#181818;stroke-width:1.0;"/></g><!--link GooglePlay?????? to ??????--><g id="link_GooglePlay&#30456;&#20851;&#29983;&#25104;&#19979;&#36733;_&#21319;&#32423;&#31614;&#21517;&#23494;&#38053;"><path d="M287.58,127.37 C336.29,113.43 397.3919,95.942 441.0719,83.432 " fill="none" id="GooglePlay&#30456;&#20851;&#29983;&#25104;&#19979;&#36733;-to-&#21319;&#32423;&#31614;&#21517;&#23494;&#38053;" style="stroke:#181818;stroke-width:1.0;stroke-dasharray:7.0,7.0;"/><polygon fill="#181818" points="446.84,81.78,437.0865,80.4126,442.0333,83.1567,439.2892,88.1034,446.84,81.78" style="stroke:#181818;stroke-width:1.0;"/></g><!--link ?? to Windows??--><g id="link_&#29992;&#25143;_Windows&#35777;&#20070;"><path d="M60.6,273.84 C71.31,266.46 84.06,258.56 96.5,253 C119.61,242.66 140.6811,236.3008 163.8111,230.8308 " fill="none" id="&#29992;&#25143;-to-Windows&#35777;&#20070;" style="stroke:#181818;stroke-width:1.0;"/><polygon fill="#181818" points="169.65,229.45,159.971,227.6286,164.7842,230.6007,161.8122,235.4139,169.65,229.45" style="stroke:#181818;stroke-width:1.0;"/></g><!--link ?? to Apple BundleId??--><g id="link_&#29992;&#25143;_Apple BundleId&#30003;&#35831;"><path d="M48.04,334.26 C58.14,357.71 73.98,386.09 96.5,404 C112.86,417.01 127.8153,423.9412 147.7753,429.5712 " fill="none" id="&#29992;&#25143;-to-Apple BundleId&#30003;&#35831;" style="stroke:#181818;stroke-width:1.0;"/><polygon fill="#181818" points="153.55,431.2,145.9739,424.907,148.7378,429.8426,143.8021,432.6065,153.55,431.2" style="stroke:#181818;stroke-width:1.0;"/></g><!--link Apple BundleId?? to Apple BundleId?????--><g id="link_Apple BundleId&#30003;&#35831;_Apple BundleId&#33021;&#21147;&#30340;&#22686;&#20943;"><path d="M310.74,442 C335.78,442 357.45,442 383.46,442 " fill="none" id="Apple BundleId&#30003;&#35831;-to-Apple BundleId&#33021;&#21147;&#30340;&#22686;&#20943;" style="stroke:#181818;stroke-width:1.0;stroke-dasharray:7.0,7.0;"/><polygon fill="#181818" points="389.46,442,380.46,438,384.46,442,380.46,446,389.46,442" style="stroke:#181818;stroke-width:1.0;"/></g><!--link ?? to ????????????--><g id="link_&#29992;&#25143;_&#25551;&#36848;&#25991;&#20214;&#30003;&#35831;&#12289;&#26356;&#26032;&#19982;&#21024;&#38500;"><path d="M60.82,294 C76.78,294 92.16,294 114.18,294 " fill="none" id="&#29992;&#25143;-to-&#25551;&#36848;&#25991;&#20214;&#30003;&#35831;&#12289;&#26356;&#26032;&#19982;&#21024;&#38500;" style="stroke:#181818;stroke-width:1.0;"/><polygon fill="#181818" points="120.18,294,111.18,290,115.18,294,111.18,298,120.18,294" style="stroke:#181818;stroke-width:1.0;"/></g><!--link ?? to Push????--><g id="link_&#29992;&#25143;_Push&#35777;&#20070;&#30003;&#35831;"><path d="M60.62,314.11 C71.34,321.49 84.08,329.39 96.5,335 C119.51,345.39 140.4624,351.8922 163.5224,357.5422 " fill="none" id="&#29992;&#25143;-to-Push&#35777;&#20070;&#30003;&#35831;" style="stroke:#181818;stroke-width:1.0;"/><polygon fill="#181818" points="169.35,358.97,161.5605,352.9431,164.4936,357.7801,159.6567,360.7133,169.35,358.97" style="stroke:#181818;stroke-width:1.0;"/></g><!--link ?? to Facebook??????--><g id="link_&#29992;&#25143;_Facebook&#23494;&#38053;&#25955;&#21015;&#29983;&#25104;"><path d="M37.06,334.26 C42.36,376.02 56.86,440.5 96.5,479 C109.7,491.82 121.3014,498.5621 138.8714,504.3521 " fill="none" id="&#29992;&#25143;-to-Facebook&#23494;&#38053;&#25955;&#21015;&#29983;&#25104;" style="stroke:#181818;stroke-width:1.0;"/><polygon fill="#181818" points="144.57,506.23,137.2741,499.6141,139.8212,504.6651,134.7702,507.2122,144.57,506.23" style="stroke:#181818;stroke-width:1.0;"/></g><!--SRC=[bLPTRzf857tthx1uoUOXoVi-h9ILThTLApMhFkop2rw20XW1KLLLbO8QC28Va3GVJTc6q8O6LGcG9Kq8Bk77hCSs_sB77kFCZ6SSjmyLkVVSkNFkFVTwPfRp-KpkvuM5J59AvrTJoVceabfOpSbpKGd-5qj8yQoK4eJSIYATaU1FKOhcbUpp_AkaB4elvPoIaeMa_7TUp2jYDX5VpeknH5QEvXDAMX246Vkdb8v3iDdNJArXj9lWuw7uMfWHuR-VpBssKRunEqspLffrRM2u1ysaxLb6JYykFGRgXTKja2xpuWxKjaYRFjpGjMkOpkeqlMFlYg1oJAMgRODgZxJ11Fhj5y_sHfX1bnJdvduHyViI3lpIX8DnS_94xFg40-T0fiA8a0wC3U70AP4zmUXuFJ7wRL3QzCfxf4sExWlMBPad1NsmhG- -wiEXFcuQXQu-xXXxjrxzniUcTW73m6WVd5vQLwt9KGsKhv75Lr6KZIo9avAanizBCWrCJWeIRvb77fJhG1iYrvIHKRyo3dgKhT-UxArvDiW9Fmxil4VNnavZ8_2pEGWi4qc08IriiFfMzmQvA1w43PHF9aUdf0rMqFYdGTecwfOvwY0RRCPajyLdZUSEP1s0mE_5oOBTaetmtvdQIDZeUOLRJCUoIY8cIfcL_zOAalJ2E53X78BTJQlPqWS553Gjor-9T4nvcHENVaCmollepwTMvnGhuwEdJunl6rPtVsf8F7ik9Z8IApebHQ4pinA7zuYbuYo8fNu5bJROF72fj3V0iEeRiKWuJX4oY4sD1daCeGF_IvoVXswFBXN6O4qX0iXJI6OD8cIdyLrwl-U-LQspCX8E0imI7lJ1yZoUs8ropTEnxmXuDoUCqliFuV34rCh2Lh_70srtiDK7lP8rLk5G6DNQfBGxItvZqL1MJa2nHQuod9LvVguFreppfZuQs_D4gCsTCUSWKzi1dG-BcKnIjgw-WEeD2uHskmD2Ch0wT-1KvMyE7XNUdc4JusoKXsYoMn98-k4GJWcejc8VRkffP3HQLlSJ_F1H3vSIJFlEElji_t20vA96DlJLP7dytqbO36E_HsbYcXnqlmDrw3cBvw1uIRsJyENfkhHrKrFjFV_f6AuQjD6fnOaVfGyg-lSJEE_6ZGRRQQSbGfmY4hcT2iC05CaEmAjEFHnHwvob0EftLlD-8chhuBPljyGHXgx1-pIjjKFZqDqXHkMzEHp384w4hR9AmznMmy4dQfK7n5Q62sbScfLh389es7NPgH2lLeOocPgQhbFAx6nmlyw2q7xjXKNpz1WqO9GwEL2VLk5syDdGr-fXzKRumJyWw81JGciymgRBaJn73Ru1y72O3UaWz4I4FO8t8c7Z_JF3Z-GFKL1Xy94IXFjjJNJjjS1OV4xFi7NaGFvG51Yzb9HUcVK1AFRDlGQiWJxOi4OZ5u9wZ0vnJPEtRNFqBs6oFtLmkCuApYCScRPKStY62ZDzdUDhbeWtgbLht7DVL5DveHSvVUUbrTmopiarEoeJVrrDnvBourY0otex0fMw-M7T7YArwc9-bwBo2qLPGJSrzZ-3yY6gngpmHc0yN9bbZH38eEf6X62t8nAyzc7mU6F2uF6kXSBxMYemNkSeFraALdSY0iUEhHrUryZJmwY7ZA15H7hvOe1l-Fy1]--></g></svg>