<?xml version="1.0" encoding="us-ascii" standalone="no"?><svg xmlns="http://www.w3.org/2000/svg" xmlns:xlink="http://www.w3.org/1999/xlink" contentStyleType="text/css" height="638px" preserveAspectRatio="none" style="width:909px;height:638px;background:#FFFFFF;" version="1.1" viewBox="0 0 909 638" width="909px" zoomAndPan="magnify"><defs/><g><text fill="#000000" font-family="sans-serif" font-size="14" font-weight="bold" lengthAdjust="spacing" textLength="70" x="418" y="35.1074">&#30331;&#24405;&#27963;&#21160;&#22270;</text><ellipse cx="285.625" cy="59.6211" fill="#222222" rx="10" ry="10" style="stroke:#222222;stroke-width:1.0;"/><polygon fill="#F1F1F1" points="215.625,89.6211,365.625,89.6211,355.625,107.6016,365.625,125.582,215.625,125.582" style="stroke:#181818;stroke-width:0.5;"/><text fill="#000000" font-family="sans-serif" font-size="12" lengthAdjust="spacing" textLength="120" x="225.625" y="112.5703">&#29992;&#25143;&#36755;&#20837;&#33521;&#25991;&#21517;&#21644;&#23494;&#30721;</text><path d="M196.625,145.582 L191.625,163.5625 L196.625,181.543 M374.625,145.582 L379.625,163.5625 L374.625,181.543 " fill="#F1F1F1" style="stroke:#181818;stroke-width:0.5;"/><text fill="#000000" font-family="sans-serif" font-size="12" lengthAdjust="spacing" textLength="168" x="201.625" y="168.5313">&#26816;&#26597;&#33521;&#25991;&#21517;&#21644;&#23494;&#30721;&#23383;&#31526;&#26159;&#21542;&#21512;&#27861;</text><polygon fill="#F1F1F1" points="186.625,201.543,384.625,201.543,396.625,213.543,384.625,225.543,186.625,225.543,174.625,213.543,186.625,201.543" style="stroke:#181818;stroke-width:0.5;"/><text fill="#000000" font-family="sans-serif" font-size="11" lengthAdjust="spacing" textLength="198" x="186.625" y="218.0977">&#26816;&#32034;Redis&#65292;&#35813;&#29992;&#25143;&#30331;&#38470;&#22833;&#36133;&#27425;&#25968;&#22823;&#20110;3&#27425;</text><text fill="#000000" font-family="sans-serif" font-size="11" lengthAdjust="spacing" textLength="19" x="155.625" y="210.7822">true</text><text fill="#000000" font-family="sans-serif" font-size="11" lengthAdjust="spacing" textLength="24" x="396.625" y="210.7822">false</text><polygon fill="#F1F1F1" points="20,235.543,136,235.543,146,253.5234,136,271.5039,20,271.5039" style="stroke:#181818;stroke-width:0.5;"/><text fill="#000000" font-family="sans-serif" font-size="12" lengthAdjust="spacing" textLength="96" x="30" y="258.4922">&#39029;&#38754;&#25552;&#31034;&#38480;&#21046;&#30331;&#24405;</text><ellipse cx="78" cy="301.5039" fill="none" rx="10" ry="10" style="stroke:#222222;stroke-width:1.5;"/><line style="stroke:#222222;stroke-width:2.5;" x1="71.8128" x2="84.1872" y1="295.3167" y2="307.6911"/><line style="stroke:#222222;stroke-width:2.5;" x1="84.1872" x2="71.8128" y1="295.3167" y2="307.6911"/><path d="M344.25,235.543 L339.25,253.5234 L344.25,271.5039 M642.25,235.543 L647.25,253.5234 L642.25,271.5039 " fill="#F1F1F1" style="stroke:#181818;stroke-width:0.5;"/><text fill="#000000" font-family="sans-serif" font-size="12" lengthAdjust="spacing" textLength="288" x="349.25" y="258.4922">&#26681;&#25454;&#33521;&#25991;&#21517;&#26816;&#32034;&#25968;&#25454;&#24211;&#65292;&#29992;&#25143;&#26159;&#21542;&#23384;&#22312;&#65292;&#29366;&#24577;&#26159;&#21542;&#27491;&#24120;</text><rect fill="#F1F1F1" height="35.9609" rx="12.5" ry="12.5" style="stroke:#181818;stroke-width:0.5;" width="177" x="404.75" y="291.5039"/><text fill="#000000" font-family="sans-serif" font-size="12" lengthAdjust="spacing" textLength="157" x="414.75" y="314.4531">MD5&#31639;&#27861;&#21152;&#30416;&#35745;&#31639;&#23494;&#30721;&#25955;&#21015;&#20540;</text><polygon fill="#F1F1F1" points="427.25,347.4648,559.25,347.4648,571.25,359.4648,559.25,371.4648,427.25,371.4648,415.25,359.4648,427.25,347.4648" style="stroke:#181818;stroke-width:0.5;"/><text fill="#000000" font-family="sans-serif" font-size="11" lengthAdjust="spacing" textLength="132" x="427.25" y="364.0195">&#19982;&#25968;&#25454;&#24211;&#20013;&#25955;&#21015;&#20540;&#26159;&#21542;&#30456;&#31561;</text><text fill="#000000" font-family="sans-serif" font-size="11" lengthAdjust="spacing" textLength="24" x="391.25" y="356.7041">false</text><text fill="#000000" font-family="sans-serif" font-size="11" lengthAdjust="spacing" textLength="19" x="571.25" y="356.7041">true</text><polygon fill="#F1F1F1" points="186,381.4648,445,381.4648,435,417.4258,176,417.4258" style="stroke:#181818;stroke-width:0.5;"/><text fill="#000000" font-family="sans-serif" font-size="12" lengthAdjust="spacing" textLength="249" x="186" y="404.4141">Redis&#20013;&#35760;&#24405;&#29992;&#25143;&#30331;&#38470;&#22833;&#36133;&#27425;&#25968;&#65292;&#26377;&#25928;&#26399;&#33267;&#26126;&#26085;</text><ellipse cx="310.5" cy="447.4258" fill="none" rx="10" ry="10" style="stroke:#222222;stroke-width:1.5;"/><line style="stroke:#222222;stroke-width:2.5;" x1="304.3128" x2="316.6872" y1="441.2386" y2="453.613"/><line style="stroke:#222222;stroke-width:2.5;" x1="316.6872" x2="304.3128" y1="441.2386" y2="453.613"/><rect fill="#F1F1F1" height="35.9609" rx="12.5" ry="12.5" style="stroke:#181818;stroke-width:0.5;" width="149" x="601.5" y="381.4648"/><text fill="#000000" font-family="sans-serif" font-size="12" lengthAdjust="spacing" textLength="129" x="611.5" y="404.4141">&#38543;&#26426;&#29983;&#25104;128&#20301;&#20250;&#35805;&#23494;&#38053;</text><polygon fill="#F1F1F1" points="475,437.4258,887,437.4258,877,473.3867,465,473.3867" style="stroke:#181818;stroke-width:0.5;"/><text fill="#000000" font-family="sans-serif" font-size="12" lengthAdjust="spacing" textLength="402" x="475" y="460.375">&#20250;&#35805;&#23494;&#38053;&#12289;&#29992;&#25143;&#33521;&#25991;&#21517;&#21644;&#30331;&#24405;IP&#23384;&#20837;Redis &amp;&amp; &#25968;&#25454;&#24211;&#25554;&#20837;&#29992;&#25143;&#30331;&#24405;&#20107;&#20214;&#20803;&#32452;</text><rect fill="#F1F1F1" height="35.9609" rx="12.5" ry="12.5" style="stroke:#181818;stroke-width:0.5;" width="330" x="511" y="493.3867"/><text fill="#000000" font-family="sans-serif" font-size="12" lengthAdjust="spacing" textLength="310" x="521" y="516.3359">Redis&#20013;&#28165;&#38500;&#30331;&#38470;&#22833;&#36133;&#27425;&#25968; &amp;&amp; &#25509;&#21475;&#36820;&#22238;&#35774;&#32622;&#27983;&#35272;&#22120;Cookie</text><polygon fill="#F1F1F1" points="618,549.3477,734,549.3477,744,567.3281,734,585.3086,618,585.3086" style="stroke:#181818;stroke-width:0.5;"/><text fill="#000000" font-family="sans-serif" font-size="12" lengthAdjust="spacing" textLength="96" x="628" y="572.2969">&#39029;&#38754;&#25552;&#31034;&#30331;&#24405;&#25104;&#21151;</text><ellipse cx="676" cy="616.3086" fill="none" rx="11" ry="11" style="stroke:#222222;stroke-width:1.0;"/><ellipse cx="676" cy="616.3086" fill="#222222" rx="6" ry="6" style="stroke:#222222;stroke-width:1.0;"/><line style="stroke:#181818;stroke-width:1.0;" x1="285.625" x2="285.625" y1="69.6211" y2="89.6211"/><polygon fill="#181818" points="281.625,79.6211,285.625,89.6211,289.625,79.6211,285.625,83.6211" style="stroke:#181818;stroke-width:1.0;"/><line style="stroke:#181818;stroke-width:1.0;" x1="285.625" x2="285.625" y1="125.582" y2="145.582"/><polygon fill="#181818" points="281.625,135.582,285.625,145.582,289.625,135.582,285.625,139.582" style="stroke:#181818;stroke-width:1.0;"/><line style="stroke:#181818;stroke-width:1.0;" x1="78" x2="78" y1="271.5039" y2="291.5039"/><polygon fill="#181818" points="74,281.5039,78,291.5039,82,281.5039,78,285.5039" style="stroke:#181818;stroke-width:1.0;"/><line style="stroke:#181818;stroke-width:1.0;" x1="493.25" x2="493.25" y1="271.5039" y2="291.5039"/><polygon fill="#181818" points="489.25,281.5039,493.25,291.5039,497.25,281.5039,493.25,285.5039" style="stroke:#181818;stroke-width:1.0;"/><line style="stroke:#181818;stroke-width:1.0;" x1="310.5" x2="310.5" y1="417.4258" y2="437.4258"/><polygon fill="#181818" points="306.5,427.4258,310.5,437.4258,314.5,427.4258,310.5,431.4258" style="stroke:#181818;stroke-width:1.0;"/><line style="stroke:#181818;stroke-width:1.0;" x1="676" x2="676" y1="417.4258" y2="437.4258"/><polygon fill="#181818" points="672,427.4258,676,437.4258,680,427.4258,676,431.4258" style="stroke:#181818;stroke-width:1.0;"/><line style="stroke:#181818;stroke-width:1.0;" x1="676" x2="676" y1="473.3867" y2="493.3867"/><polygon fill="#181818" points="672,483.3867,676,493.3867,680,483.3867,676,487.3867" style="stroke:#181818;stroke-width:1.0;"/><line style="stroke:#181818;stroke-width:1.0;" x1="676" x2="676" y1="529.3477" y2="549.3477"/><polygon fill="#181818" points="672,539.3477,676,549.3477,680,539.3477,676,543.3477" style="stroke:#181818;stroke-width:1.0;"/><line style="stroke:#181818;stroke-width:1.0;" x1="676" x2="676" y1="585.3086" y2="605.3086"/><polygon fill="#181818" points="672,595.3086,676,605.3086,680,595.3086,676,599.3086" style="stroke:#181818;stroke-width:1.0;"/><line style="stroke:#181818;stroke-width:1.0;" x1="415.25" x2="310.5" y1="359.4648" y2="359.4648"/><line style="stroke:#181818;stroke-width:1.0;" x1="310.5" x2="310.5" y1="359.4648" y2="381.4648"/><polygon fill="#181818" points="306.5,371.4648,310.5,381.4648,314.5,371.4648,310.5,375.4648" style="stroke:#181818;stroke-width:1.0;"/><line style="stroke:#181818;stroke-width:1.0;" x1="571.25" x2="676" y1="359.4648" y2="359.4648"/><line style="stroke:#181818;stroke-width:1.0;" x1="676" x2="676" y1="359.4648" y2="381.4648"/><polygon fill="#181818" points="672,371.4648,676,381.4648,680,371.4648,676,375.4648" style="stroke:#181818;stroke-width:1.0;"/><line style="stroke:#181818;stroke-width:1.0;" x1="493.25" x2="493.25" y1="327.4648" y2="347.4648"/><polygon fill="#181818" points="489.25,337.4648,493.25,347.4648,497.25,337.4648,493.25,341.4648" style="stroke:#181818;stroke-width:1.0;"/><line style="stroke:#181818;stroke-width:1.0;" x1="174.625" x2="78" y1="213.543" y2="213.543"/><line style="stroke:#181818;stroke-width:1.0;" x1="78" x2="78" y1="213.543" y2="235.543"/><polygon fill="#181818" points="74,225.543,78,235.543,82,225.543,78,229.543" style="stroke:#181818;stroke-width:1.0;"/><line style="stroke:#181818;stroke-width:1.0;" x1="396.625" x2="493.25" y1="213.543" y2="213.543"/><line style="stroke:#181818;stroke-width:1.0;" x1="493.25" x2="493.25" y1="213.543" y2="235.543"/><polygon fill="#181818" points="489.25,225.543,493.25,235.543,497.25,225.543,493.25,229.543" style="stroke:#181818;stroke-width:1.0;"/><line style="stroke:#181818;stroke-width:1.0;" x1="285.625" x2="285.625" y1="181.543" y2="201.543"/><polygon fill="#181818" points="281.625,191.543,285.625,201.543,289.625,191.543,285.625,195.543" style="stroke:#181818;stroke-width:1.0;"/><!--SRC=[lLbRSnfN4dxdLx0laPEgn9NTR6hBIhdAYPsrQfqg9V5c7rDZCPA94502USjlo39YaCJ5ChfPs18sikIB05ri8H3mOtREcPcd_GlRv_HXBZ20RBas3x4uqzEd- -lkh_kS6ReRZOOZLovV3WUaO7HcAl3LM6ZgiZGMzT_pH-z_wVDB4zFIr9TtvAZayKGc_S6m1B-zFuI2Fd_K7mhU2Ff-ZTuFoDwx0NzGzlmfF2rDJ4dUcOZycpmTzOz9WP5nRoZeyGn5_L4GeqTxP7w97jV9mXxPR7g68b5fEkePkaBVPVHTXMpiqUrJcYhHz0x9lD1RERBvJ6qLw6nPFpdI6s-9Ka4LsaQTD5QCmZlZwVDXU5_BxL7bn8WbwU8hKZmcSvd_dYsHmXiolw5Mz_N50xgQ8DaKMLvIgqNwja3AyzhsxB3tk-_0fvderQlCXks2yNe9DQ4Ekdr6pZ9qlVn7UE9oE3ZX_UmpBwX3NR1C3v9aVusjcZl0AYpHSWhsryixREMme3z_WsQ3g6V82_-X5NhpCOdlQ4yUeZbgDQOdZfaw_0sAjBSlJOrKMQKh5VYRcJqM2aRzmPdGJ8JRRZp9q7nDosrH9Vlrd_-cDbBgsHEz_1GK6SixtEv62rmJSfjP4Zi32t-w_bUjj4QFLlHI0Vx0RUdA2wAiWG03LW2ncb3hxyd-EiqrRyz4V4mXXW2t-Kzi5d6p8uq28wFusY-opnzXbaUaUpBYlLA1K9FQOxfQ8S-VeGACDedFQVM7e1LXKskBR7jpaLjZbtJgjIMFNcfgZPAPNJ-4GfD-6HmtSYLmS2mo5Vaz8aSYaChCMSmdcibgnPf8LILB5hQkiaGDXJqUp69qpCfYJ6AHWnXJEmxTkNQ5leZHBHSXA-BPboIhG62wOkqVzrw2rxNZvnnHJ3FS6kmoDkP9yK0_te7iOibIt5LhwR_0Zy-zqRjoq7ifEZqZV-vXAUZmrjZ84kKzEiQs3Cr4qLGcAGTz7ZaGaRsNnYNuHxoEbMebFhV9Z2dOXKO9P_RNINwFBIwyfn11laZtNv1gjSj3hjtCJBAm3UdQ8p-PA0D4hQRDdLc1jYLm7sspgkqdsmZOVE0xSHWPIPGgu7ml9C5qca_I5ONcj_J44LrFqxKTMzgrrJ6i-BySBplQVIiKNRbYNnfKKv1bt7HMYrOfPPOPexITO0LggvqEUqtNQJLkR1IxdUQg1rNJS7SsYG8HjSCUy_81RFpZPYzeSrvQhRvMQpKiPxLLehdJxWOn7fgUX0Bj5hN8Nwqkg6VRo5Tw-eHaLf4dHdmTD8-rLpwX1mzCCiV2OtLe8_vkdcLcUAK9oHzar8WEc6PWvGEPwR5Pr_x2DsPaPwjrR2ci6PWFC5qvzkqbg0R8PhMQ8baWmxIv0RIERYC1PW4NtJm65NPYrGjxBenfZvs808-TWma41RQZfsoIUetKSanxTpyNNHGQS7m7XG1ao6ZHeK-FIAO2FqNCK80ZpqB0spQpuD6w4q5JamXNfaoJZqcAvwbujjcasmctletwa8UuFBS1PDHg4j8AVwgdYz24NVehjYZSmqJIgj3TPJrvY2jORuDnjlUNFZXZ20VWZ36pusml1g0kAwYTaEBGWzL0CW-WwDsyjndHaKSSIa16sUw0mdgCs9cuH7-Nxyd1Q3SylBFbar3Wm44aNSVzD63-x3pOZPgTVMm8En5lFIBbcd6oy8mrcbrWio8fCrZqrZhDloR5Xw29JLjS1ahMqTI6a9uweiGzxvW2h67MoCK6X4PxS4eITRje1_wzeGLCmGD8Pz9QOnDWwPqBccxp3uT3P4CR3X8_CjRs-yFHcPzWihldMku8CeOazlNoh8ldc4qqdo8B1MWJWeoJCGWkb2nPR08BmBuqhT2dSqR1nk58eQXuv3haiLwPWoSZe-QVnlD7MZh1M8AhiNGuYK9ei6PdFZZpyN-HACjQhSK0pYeCqP5H41iPlVUDMjynOciaSqAKUP8yX7bRZyNXsHUmX3z0b4S14W-TH7FqfJcoUOpTaja3aEbp3R3AHZSOuUeY8t6-2ZGFR3vodKM0ctkkiTxaFAH0jP5NgpLylpr9c6p5L-ri9IB6RJmlMv635SW6nmu3sQfNOjZPgXrPY8aziYnLcUcP7f6r7zBihCN1vmrMcCenxirbJcoSN9R8T03Layi6SRoDFVhsKbRe0r138X6Si9GqbajkquLGOfkvNI2mxzSdFJx4Qt6Am8n16mTvhTNtOPO-bzSEqOlvtYVyUYl1Tla0fdNClDp6WLuRYHICqFPo6k2xomiNG-1ZEQMSqvjpE9724j0O3AdcBDeMwbzSvqKKESVKD91shWLzqo6_pok59o6D9UaE8vK2s2Yk2hJz9ZkXzYGa79QQSI77ts6N17nOjIzg1tNoRB7Z4VFrzALRFEpFERaujy0nbSqgOl6K5XH-eEy_ZN4KXS_ugbe7rmhka9BC8mC6LPiSVQz0PBJwnY_IdJl-w4y_iz0vz9cz6qJrurDyWHs1axjwGPXhnEfwyv7Lko7RC7hGvFH6WvmSefnMVqoVvT7ZuOx0_SiVz8N-7V6EtlXaWKAq0GIjdd2jaRunw7pR5NfXzIU3tg7lWw37cNcz7BaVGNSwncCs7r-1AOCqIte3M45XjNssePuTmycNjERKMb6jBREKupCQYjtupNXr0070lTWkxSdu0e6- -VCjlLJiEnRmu9ennUib8n_JNufJ8tstg9TNyFzQKg7vjnyIN_7U4JIJBUlj2yMNWOy6thpr3zJlUZpXaJD5XgsJniS7_WE2Qa5_iLgz5Wu7P3mcYpFF-KjMQ7I4on-MH8YWd-LZUEh_vosojIMk2fPtoDA6MZtKIorZhSJczMK0unKq1zpVB7oQoUYjYjiUuSc9oxwf2No4mdWF3aFt8FBkbKZdOsS6rgVZPalR_ukPHJiGVCZFUserBKQxNjTpAETubUUgyiQyis5VJLOgB9ZyN6QTmWI7Grmu-VOSN_HM5XoTbEz7Gw40JZ5MWyNWuhn05hRX3tn6vkEanC-P7HyT82mESrrYX5UVZb6Fk-aswZdl1pbONMY8ZQoJuG5CH6dhRi1rO3NDxZAuVKcWb-TnT1sstG0wGlhtK6WY88y6fFliw1a_QiUMGOYPqUVUbLKnle2Y_BgW7J9XIdz7784Z9piaVaBAPoHH6-x4ZGTEsvqLNwwCkJsjSMYReb89hRQBATmUHYzYKbWEJtxrXpIDIDZXSyOUlpeXKEzc-uoZFqfZyfrGQ5ACw_nZ12hlIPE2cwenjTvmfIHnJVUHE2iLKdneBmN6O_X99Vx-rvlNlZQ_cB3pztmAdtqlHUHllu55lV6MPNl7CQ5wEDm14Jh9BZHCYJv3EoCrjAbdtjcPNLmwGG_W5J7S-PYFvlZHZ6N9zpD1Nq0UyI5Qx5DipmfpVhaIez3IgH5FTRG9VdyaaDVgZqZf2Rl6ubrTBpL9aO-CWP3aCwypiNXjPdOC2EAk37jhDirkfFdt5YnhE5ivUfljZdBZ8TIaQPNT1d7kSjShgCkfr8rZs8jsiMvYTDJiw4pahhrNCAtdZy3DsxT7qU0VfKWq80LbiysnHEK9FIwUO7XipQMBvf7PJMziUURQX1r-E5nUNhBSme1y1CNqZQ_fXTMMU2Z0K5P5tTnkixlDKevw4ca_e4EZ48wHAMstekKEi1spUzLAXZNe1wS04nIpu-iYp9VczIKRGBCfeUdSVbktawYK2w2ImS51F2pZeN2154thq2x8CvImI61m0lQnLdHn5pjvBxAPfCyroC8cQwopkS7EEDxXbuvMpLp8O06liZhODZI9VR96QluV]--></g></svg>