<?xml version="1.0" encoding="us-ascii" standalone="no"?><svg xmlns="http://www.w3.org/2000/svg" xmlns:xlink="http://www.w3.org/1999/xlink" contentStyleType="text/css" height="386px" preserveAspectRatio="none" style="width:1693px;height:386px;background:#FFFFFF;" version="1.1" viewBox="0 0 1693 386" width="1693px" zoomAndPan="magnify"><defs/><g><!--class t_user--><g id="elem_t_user"><rect fill="#F1F1F1" height="48" id="t_user" rx="2.5" ry="2.5" style="stroke:#181818;stroke-width:0.5;" width="72" x="321.5" y="115"/><ellipse cx="336.5" cy="131" fill="#ADD1B2" rx="11" ry="11" style="stroke:#181818;stroke-width:1.0;"/><path d="M335.8438,136.8594 Q333.8594,136.8594 332.6875,135.3906 Q331.5313,133.9063 331.5313,130.8281 Q331.5313,128.2188 332.75,126.4688 Q333.9844,124.7188 336.1094,124.7188 Q336.6094,124.7188 337.1406,124.8594 Q337.5781,125.0469 337.8438,125.0469 Q338.0625,125.0469 338.1563,125 Q338.2656,124.9531 338.7188,124.3594 L339.4844,128.0938 L338.5938,128.3594 Q338.1406,126.9063 337.5313,126.3125 Q336.9375,125.7031 335.9844,125.7031 Q334.7656,125.7031 334.0469,127.1406 Q333.3281,128.5625 333.3281,130.75 Q333.3281,133.1563 333.9375,134.4531 Q334.5625,135.7344 335.9219,135.7344 Q336.875,135.7344 337.5625,135.0469 Q338.25,134.3438 338.5781,132.8438 L339.4844,133.25 Q339.0781,134.9531 338.1094,135.9063 Q337.1563,136.8594 335.8438,136.8594 Z " fill="#000000"/><text fill="#000000" font-family="sans-serif" font-size="14" lengthAdjust="spacing" textLength="40" x="350.5" y="136.7969">t_user</text><line style="stroke:#181818;stroke-width:0.5;" x1="322.5" x2="392.5" y1="147" y2="147"/><line style="stroke:#181818;stroke-width:0.5;" x1="322.5" x2="392.5" y1="155" y2="155"/></g><!--class t_file--><g id="elem_t_file"><rect fill="#F1F1F1" height="48" id="t_file" rx="2.5" ry="2.5" style="stroke:#181818;stroke-width:0.5;" width="62" x="267.5" y="223"/><ellipse cx="282.5" cy="239" fill="#ADD1B2" rx="11" ry="11" style="stroke:#181818;stroke-width:1.0;"/><path d="M281.8438,244.8594 Q279.8594,244.8594 278.6875,243.3906 Q277.5313,241.9063 277.5313,238.8281 Q277.5313,236.2188 278.75,234.4688 Q279.9844,232.7188 282.1094,232.7188 Q282.6094,232.7188 283.1406,232.8594 Q283.5781,233.0469 283.8438,233.0469 Q284.0625,233.0469 284.1563,233 Q284.2656,232.9531 284.7188,232.3594 L285.4844,236.0938 L284.5938,236.3594 Q284.1406,234.9063 283.5313,234.3125 Q282.9375,233.7031 281.9844,233.7031 Q280.7656,233.7031 280.0469,235.1406 Q279.3281,236.5625 279.3281,238.75 Q279.3281,241.1563 279.9375,242.4531 Q280.5625,243.7344 281.9219,243.7344 Q282.875,243.7344 283.5625,243.0469 Q284.25,242.3438 284.5781,240.8438 L285.4844,241.25 Q285.0781,242.9531 284.1094,243.9063 Q283.1563,244.8594 281.8438,244.8594 Z " fill="#000000"/><text fill="#000000" font-family="sans-serif" font-size="14" lengthAdjust="spacing" textLength="30" x="296.5" y="244.7969">t_file</text><line style="stroke:#181818;stroke-width:0.5;" x1="268.5" x2="328.5" y1="255" y2="255"/><line style="stroke:#181818;stroke-width:0.5;" x1="268.5" x2="328.5" y1="263" y2="263"/></g><!--class t_event--><g id="elem_t_event"><rect fill="#F1F1F1" height="48" id="t_event" rx="2.5" ry="2.5" style="stroke:#181818;stroke-width:0.5;" width="79" x="504" y="223"/><ellipse cx="519" cy="239" fill="#ADD1B2" rx="11" ry="11" style="stroke:#181818;stroke-width:1.0;"/><path d="M518.3438,244.8594 Q516.3594,244.8594 515.1875,243.3906 Q514.0313,241.9063 514.0313,238.8281 Q514.0313,236.2188 515.25,234.4688 Q516.4844,232.7188 518.6094,232.7188 Q519.1094,232.7188 519.6406,232.8594 Q520.0781,233.0469 520.3438,233.0469 Q520.5625,233.0469 520.6563,233 Q520.7656,232.9531 521.2188,232.3594 L521.9844,236.0938 L521.0938,236.3594 Q520.6406,234.9063 520.0313,234.3125 Q519.4375,233.7031 518.4844,233.7031 Q517.2656,233.7031 516.5469,235.1406 Q515.8281,236.5625 515.8281,238.75 Q515.8281,241.1563 516.4375,242.4531 Q517.0625,243.7344 518.4219,243.7344 Q519.375,243.7344 520.0625,243.0469 Q520.75,242.3438 521.0781,240.8438 L521.9844,241.25 Q521.5781,242.9531 520.6094,243.9063 Q519.6563,244.8594 518.3438,244.8594 Z " fill="#000000"/><text fill="#000000" font-family="sans-serif" font-size="14" lengthAdjust="spacing" textLength="47" x="533" y="244.7969">t_event</text><line style="stroke:#181818;stroke-width:0.5;" x1="505" x2="582" y1="255" y2="255"/><line style="stroke:#181818;stroke-width:0.5;" x1="505" x2="582" y1="263" y2="263"/></g><!--class t_app--><g id="elem_t_app"><rect fill="#F1F1F1" height="48" id="t_app" rx="2.5" ry="2.5" style="stroke:#181818;stroke-width:0.5;" width="68" x="757.5" y="115"/><ellipse cx="772.5" cy="131" fill="#ADD1B2" rx="11" ry="11" style="stroke:#181818;stroke-width:1.0;"/><path d="M771.8438,136.8594 Q769.8594,136.8594 768.6875,135.3906 Q767.5313,133.9063 767.5313,130.8281 Q767.5313,128.2188 768.75,126.4688 Q769.9844,124.7188 772.1094,124.7188 Q772.6094,124.7188 773.1406,124.8594 Q773.5781,125.0469 773.8438,125.0469 Q774.0625,125.0469 774.1563,125 Q774.2656,124.9531 774.7188,124.3594 L775.4844,128.0938 L774.5938,128.3594 Q774.1406,126.9063 773.5313,126.3125 Q772.9375,125.7031 771.9844,125.7031 Q770.7656,125.7031 770.0469,127.1406 Q769.3281,128.5625 769.3281,130.75 Q769.3281,133.1563 769.9375,134.4531 Q770.5625,135.7344 771.9219,135.7344 Q772.875,135.7344 773.5625,135.0469 Q774.25,134.3438 774.5781,132.8438 L775.4844,133.25 Q775.0781,134.9531 774.1094,135.9063 Q773.1563,136.8594 771.8438,136.8594 Z " fill="#000000"/><text fill="#000000" font-family="sans-serif" font-size="14" lengthAdjust="spacing" textLength="36" x="786.5" y="136.7969">t_app</text><line style="stroke:#181818;stroke-width:0.5;" x1="758.5" x2="824.5" y1="147" y2="147"/><line style="stroke:#181818;stroke-width:0.5;" x1="758.5" x2="824.5" y1="155" y2="155"/></g><!--class t_user_role--><g id="elem_t_user_role"><rect fill="#F1F1F1" height="48" id="t_user_role" rx="2.5" ry="2.5" style="stroke:#181818;stroke-width:0.5;" width="104" x="364.5" y="223"/><ellipse cx="379.5" cy="239" fill="#ADD1B2" rx="11" ry="11" style="stroke:#181818;stroke-width:1.0;"/><path d="M378.8438,244.8594 Q376.8594,244.8594 375.6875,243.3906 Q374.5313,241.9063 374.5313,238.8281 Q374.5313,236.2188 375.75,234.4688 Q376.9844,232.7188 379.1094,232.7188 Q379.6094,232.7188 380.1406,232.8594 Q380.5781,233.0469 380.8438,233.0469 Q381.0625,233.0469 381.1563,233 Q381.2656,232.9531 381.7188,232.3594 L382.4844,236.0938 L381.5938,236.3594 Q381.1406,234.9063 380.5313,234.3125 Q379.9375,233.7031 378.9844,233.7031 Q377.7656,233.7031 377.0469,235.1406 Q376.3281,236.5625 376.3281,238.75 Q376.3281,241.1563 376.9375,242.4531 Q377.5625,243.7344 378.9219,243.7344 Q379.875,243.7344 380.5625,243.0469 Q381.25,242.3438 381.5781,240.8438 L382.4844,241.25 Q382.0781,242.9531 381.1094,243.9063 Q380.1563,244.8594 378.8438,244.8594 Z " fill="#000000"/><text fill="#000000" font-family="sans-serif" font-size="14" lengthAdjust="spacing" textLength="72" x="393.5" y="244.7969">t_user_role</text><line style="stroke:#181818;stroke-width:0.5;" x1="365.5" x2="467.5" y1="255" y2="255"/><line style="stroke:#181818;stroke-width:0.5;" x1="365.5" x2="467.5" y1="263" y2="263"/></g><!--class t_authorization--><g id="elem_t_authorization"><rect fill="#F1F1F1" height="48" id="t_authorization" rx="2.5" ry="2.5" style="stroke:#181818;stroke-width:0.5;" width="125" x="213" y="7"/><ellipse cx="228" cy="23" fill="#ADD1B2" rx="11" ry="11" style="stroke:#181818;stroke-width:1.0;"/><path d="M227.3438,28.8594 Q225.3594,28.8594 224.1875,27.3906 Q223.0313,25.9063 223.0313,22.8281 Q223.0313,20.2188 224.25,18.4688 Q225.4844,16.7188 227.6094,16.7188 Q228.1094,16.7188 228.6406,16.8594 Q229.0781,17.0469 229.3438,17.0469 Q229.5625,17.0469 229.6563,17 Q229.7656,16.9531 230.2188,16.3594 L230.9844,20.0938 L230.0938,20.3594 Q229.6406,18.9063 229.0313,18.3125 Q228.4375,17.7031 227.4844,17.7031 Q226.2656,17.7031 225.5469,19.1406 Q224.8281,20.5625 224.8281,22.75 Q224.8281,25.1563 225.4375,26.4531 Q226.0625,27.7344 227.4219,27.7344 Q228.375,27.7344 229.0625,27.0469 Q229.75,26.3438 230.0781,24.8438 L230.9844,25.25 Q230.5781,26.9531 229.6094,27.9063 Q228.6563,28.8594 227.3438,28.8594 Z " fill="#000000"/><text fill="#000000" font-family="sans-serif" font-size="14" lengthAdjust="spacing" textLength="93" x="242" y="28.7969">t_authorization</text><line style="stroke:#181818;stroke-width:0.5;" x1="214" x2="337" y1="39" y2="39"/><line style="stroke:#181818;stroke-width:0.5;" x1="214" x2="337" y1="47" y2="47"/></g><!--class t_authorization_action_relation--><g id="elem_t_authorization_action_relation"><rect fill="#F1F1F1" height="48" id="t_authorization_action_relation" rx="2.5" ry="2.5" style="stroke:#181818;stroke-width:0.5;" width="226" x="428.5" y="115"/><ellipse cx="443.5" cy="131" fill="#ADD1B2" rx="11" ry="11" style="stroke:#181818;stroke-width:1.0;"/><path d="M442.8438,136.8594 Q440.8594,136.8594 439.6875,135.3906 Q438.5313,133.9063 438.5313,130.8281 Q438.5313,128.2188 439.75,126.4688 Q440.9844,124.7188 443.1094,124.7188 Q443.6094,124.7188 444.1406,124.8594 Q444.5781,125.0469 444.8438,125.0469 Q445.0625,125.0469 445.1563,125 Q445.2656,124.9531 445.7188,124.3594 L446.4844,128.0938 L445.5938,128.3594 Q445.1406,126.9063 444.5313,126.3125 Q443.9375,125.7031 442.9844,125.7031 Q441.7656,125.7031 441.0469,127.1406 Q440.3281,128.5625 440.3281,130.75 Q440.3281,133.1563 440.9375,134.4531 Q441.5625,135.7344 442.9219,135.7344 Q443.875,135.7344 444.5625,135.0469 Q445.25,134.3438 445.5781,132.8438 L446.4844,133.25 Q446.0781,134.9531 445.1094,135.9063 Q444.1563,136.8594 442.8438,136.8594 Z " fill="#000000"/><text fill="#000000" font-family="sans-serif" font-size="14" lengthAdjust="spacing" textLength="194" x="457.5" y="136.7969">t_authorization_action_relation</text><line style="stroke:#181818;stroke-width:0.5;" x1="429.5" x2="653.5" y1="147" y2="147"/><line style="stroke:#181818;stroke-width:0.5;" x1="429.5" x2="653.5" y1="155" y2="155"/></g><!--class t_authorization_action--><g id="elem_t_authorization_action"><rect fill="#F1F1F1" height="48" id="t_authorization_action" rx="2.5" ry="2.5" style="stroke:#181818;stroke-width:0.5;" width="171" x="7" y="7"/><ellipse cx="22" cy="23" fill="#ADD1B2" rx="11" ry="11" style="stroke:#181818;stroke-width:1.0;"/><path d="M21.3438,28.8594 Q19.3594,28.8594 18.1875,27.3906 Q17.0313,25.9063 17.0313,22.8281 Q17.0313,20.2188 18.25,18.4688 Q19.4844,16.7188 21.6094,16.7188 Q22.1094,16.7188 22.6406,16.8594 Q23.0781,17.0469 23.3438,17.0469 Q23.5625,17.0469 23.6563,17 Q23.7656,16.9531 24.2188,16.3594 L24.9844,20.0938 L24.0938,20.3594 Q23.6406,18.9063 23.0313,18.3125 Q22.4375,17.7031 21.4844,17.7031 Q20.2656,17.7031 19.5469,19.1406 Q18.8281,20.5625 18.8281,22.75 Q18.8281,25.1563 19.4375,26.4531 Q20.0625,27.7344 21.4219,27.7344 Q22.375,27.7344 23.0625,27.0469 Q23.75,26.3438 24.0781,24.8438 L24.9844,25.25 Q24.5781,26.9531 23.6094,27.9063 Q22.6563,28.8594 21.3438,28.8594 Z " fill="#000000"/><text fill="#000000" font-family="sans-serif" font-size="14" lengthAdjust="spacing" textLength="139" x="36" y="28.7969">t_authorization_action</text><line style="stroke:#181818;stroke-width:0.5;" x1="8" x2="177" y1="39" y2="39"/><line style="stroke:#181818;stroke-width:0.5;" x1="8" x2="177" y1="47" y2="47"/></g><!--class t_android_sign_job--><g id="elem_t_android_sign_job"><rect fill="#F1F1F1" height="48" id="t_android_sign_job" rx="2.5" ry="2.5" style="stroke:#181818;stroke-width:0.5;" width="153" x="373" y="7"/><ellipse cx="388" cy="23" fill="#ADD1B2" rx="11" ry="11" style="stroke:#181818;stroke-width:1.0;"/><path d="M387.3438,28.8594 Q385.3594,28.8594 384.1875,27.3906 Q383.0313,25.9063 383.0313,22.8281 Q383.0313,20.2188 384.25,18.4688 Q385.4844,16.7188 387.6094,16.7188 Q388.1094,16.7188 388.6406,16.8594 Q389.0781,17.0469 389.3438,17.0469 Q389.5625,17.0469 389.6563,17 Q389.7656,16.9531 390.2188,16.3594 L390.9844,20.0938 L390.0938,20.3594 Q389.6406,18.9063 389.0313,18.3125 Q388.4375,17.7031 387.4844,17.7031 Q386.2656,17.7031 385.5469,19.1406 Q384.8281,20.5625 384.8281,22.75 Q384.8281,25.1563 385.4375,26.4531 Q386.0625,27.7344 387.4219,27.7344 Q388.375,27.7344 389.0625,27.0469 Q389.75,26.3438 390.0781,24.8438 L390.9844,25.25 Q390.5781,26.9531 389.6094,27.9063 Q388.6563,28.8594 387.3438,28.8594 Z " fill="#000000"/><text fill="#000000" font-family="sans-serif" font-size="14" lengthAdjust="spacing" textLength="121" x="402" y="28.7969">t_android_sign_job</text><line style="stroke:#181818;stroke-width:0.5;" x1="374" x2="525" y1="39" y2="39"/><line style="stroke:#181818;stroke-width:0.5;" x1="374" x2="525" y1="47" y2="47"/></g><!--class t_win_sign_job--><g id="elem_t_win_sign_job"><rect fill="#F1F1F1" height="48" id="t_win_sign_job" rx="2.5" ry="2.5" style="stroke:#181818;stroke-width:0.5;" width="125" x="561" y="7"/><ellipse cx="576" cy="23" fill="#ADD1B2" rx="11" ry="11" style="stroke:#181818;stroke-width:1.0;"/><path d="M575.3438,28.8594 Q573.3594,28.8594 572.1875,27.3906 Q571.0313,25.9063 571.0313,22.8281 Q571.0313,20.2188 572.25,18.4688 Q573.4844,16.7188 575.6094,16.7188 Q576.1094,16.7188 576.6406,16.8594 Q577.0781,17.0469 577.3438,17.0469 Q577.5625,17.0469 577.6563,17 Q577.7656,16.9531 578.2188,16.3594 L578.9844,20.0938 L578.0938,20.3594 Q577.6406,18.9063 577.0313,18.3125 Q576.4375,17.7031 575.4844,17.7031 Q574.2656,17.7031 573.5469,19.1406 Q572.8281,20.5625 572.8281,22.75 Q572.8281,25.1563 573.4375,26.4531 Q574.0625,27.7344 575.4219,27.7344 Q576.375,27.7344 577.0625,27.0469 Q577.75,26.3438 578.0781,24.8438 L578.9844,25.25 Q578.5781,26.9531 577.6094,27.9063 Q576.6563,28.8594 575.3438,28.8594 Z " fill="#000000"/><text fill="#000000" font-family="sans-serif" font-size="14" lengthAdjust="spacing" textLength="93" x="590" y="28.7969">t_win_sign_job</text><line style="stroke:#181818;stroke-width:0.5;" x1="562" x2="685" y1="39" y2="39"/><line style="stroke:#181818;stroke-width:0.5;" x1="562" x2="685" y1="47" y2="47"/></g><!--class t_apple_sign_job--><g id="elem_t_apple_sign_job"><rect fill="#F1F1F1" height="48" id="t_apple_sign_job" rx="2.5" ry="2.5" style="stroke:#181818;stroke-width:0.5;" width="140" x="721.5" y="7"/><ellipse cx="736.5" cy="23" fill="#ADD1B2" rx="11" ry="11" style="stroke:#181818;stroke-width:1.0;"/><path d="M735.8438,28.8594 Q733.8594,28.8594 732.6875,27.3906 Q731.5313,25.9063 731.5313,22.8281 Q731.5313,20.2188 732.75,18.4688 Q733.9844,16.7188 736.1094,16.7188 Q736.6094,16.7188 737.1406,16.8594 Q737.5781,17.0469 737.8438,17.0469 Q738.0625,17.0469 738.1563,17 Q738.2656,16.9531 738.7188,16.3594 L739.4844,20.0938 L738.5938,20.3594 Q738.1406,18.9063 737.5313,18.3125 Q736.9375,17.7031 735.9844,17.7031 Q734.7656,17.7031 734.0469,19.1406 Q733.3281,20.5625 733.3281,22.75 Q733.3281,25.1563 733.9375,26.4531 Q734.5625,27.7344 735.9219,27.7344 Q736.875,27.7344 737.5625,27.0469 Q738.25,26.3438 738.5781,24.8438 L739.4844,25.25 Q739.0781,26.9531 738.1094,27.9063 Q737.1563,28.8594 735.8438,28.8594 Z " fill="#000000"/><text fill="#000000" font-family="sans-serif" font-size="14" lengthAdjust="spacing" textLength="108" x="750.5" y="28.7969">t_apple_sign_job</text><line style="stroke:#181818;stroke-width:0.5;" x1="722.5" x2="860.5" y1="39" y2="39"/><line style="stroke:#181818;stroke-width:0.5;" x1="722.5" x2="860.5" y1="47" y2="47"/></g><!--class t_todo--><g id="elem_t_todo"><rect fill="#F1F1F1" height="48" id="t_todo" rx="2.5" ry="2.5" style="stroke:#181818;stroke-width:0.5;" width="72" x="1216.5" y="7"/><ellipse cx="1231.5" cy="23" fill="#ADD1B2" rx="11" ry="11" style="stroke:#181818;stroke-width:1.0;"/><path d="M1230.8438,28.8594 Q1228.8594,28.8594 1227.6875,27.3906 Q1226.5313,25.9063 1226.5313,22.8281 Q1226.5313,20.2188 1227.75,18.4688 Q1228.9844,16.7188 1231.1094,16.7188 Q1231.6094,16.7188 1232.1406,16.8594 Q1232.5781,17.0469 1232.8438,17.0469 Q1233.0625,17.0469 1233.1563,17 Q1233.2656,16.9531 1233.7188,16.3594 L1234.4844,20.0938 L1233.5938,20.3594 Q1233.1406,18.9063 1232.5313,18.3125 Q1231.9375,17.7031 1230.9844,17.7031 Q1229.7656,17.7031 1229.0469,19.1406 Q1228.3281,20.5625 1228.3281,22.75 Q1228.3281,25.1563 1228.9375,26.4531 Q1229.5625,27.7344 1230.9219,27.7344 Q1231.875,27.7344 1232.5625,27.0469 Q1233.25,26.3438 1233.5781,24.8438 L1234.4844,25.25 Q1234.0781,26.9531 1233.1094,27.9063 Q1232.1563,28.8594 1230.8438,28.8594 Z " fill="#000000"/><text fill="#000000" font-family="sans-serif" font-size="14" lengthAdjust="spacing" textLength="40" x="1245.5" y="28.7969">t_todo</text><line style="stroke:#181818;stroke-width:0.5;" x1="1217.5" x2="1287.5" y1="39" y2="39"/><line style="stroke:#181818;stroke-width:0.5;" x1="1217.5" x2="1287.5" y1="47" y2="47"/></g><!--class t_todo_approver--><g id="elem_t_todo_approver"><rect fill="#F1F1F1" height="48" id="t_todo_approver" rx="2.5" ry="2.5" style="stroke:#181818;stroke-width:0.5;" width="137" x="618" y="223"/><ellipse cx="633" cy="239" fill="#ADD1B2" rx="11" ry="11" style="stroke:#181818;stroke-width:1.0;"/><path d="M632.3438,244.8594 Q630.3594,244.8594 629.1875,243.3906 Q628.0313,241.9063 628.0313,238.8281 Q628.0313,236.2188 629.25,234.4688 Q630.4844,232.7188 632.6094,232.7188 Q633.1094,232.7188 633.6406,232.8594 Q634.0781,233.0469 634.3438,233.0469 Q634.5625,233.0469 634.6563,233 Q634.7656,232.9531 635.2188,232.3594 L635.9844,236.0938 L635.0938,236.3594 Q634.6406,234.9063 634.0313,234.3125 Q633.4375,233.7031 632.4844,233.7031 Q631.2656,233.7031 630.5469,235.1406 Q629.8281,236.5625 629.8281,238.75 Q629.8281,241.1563 630.4375,242.4531 Q631.0625,243.7344 632.4219,243.7344 Q633.375,243.7344 634.0625,243.0469 Q634.75,242.3438 635.0781,240.8438 L635.9844,241.25 Q635.5781,242.9531 634.6094,243.9063 Q633.6563,244.8594 632.3438,244.8594 Z " fill="#000000"/><text fill="#000000" font-family="sans-serif" font-size="14" lengthAdjust="spacing" textLength="105" x="647" y="244.7969">t_todo_approver</text><line style="stroke:#181818;stroke-width:0.5;" x1="619" x2="754" y1="255" y2="255"/><line style="stroke:#181818;stroke-width:0.5;" x1="619" x2="754" y1="263" y2="263"/></g><!--class t_apple_account--><g id="elem_t_apple_account"><rect fill="#F1F1F1" height="48" id="t_apple_account" rx="2.5" ry="2.5" style="stroke:#181818;stroke-width:0.5;" width="137" x="790" y="223"/><ellipse cx="805" cy="239" fill="#ADD1B2" rx="11" ry="11" style="stroke:#181818;stroke-width:1.0;"/><path d="M804.3438,244.8594 Q802.3594,244.8594 801.1875,243.3906 Q800.0313,241.9063 800.0313,238.8281 Q800.0313,236.2188 801.25,234.4688 Q802.4844,232.7188 804.6094,232.7188 Q805.1094,232.7188 805.6406,232.8594 Q806.0781,233.0469 806.3438,233.0469 Q806.5625,233.0469 806.6563,233 Q806.7656,232.9531 807.2188,232.3594 L807.9844,236.0938 L807.0938,236.3594 Q806.6406,234.9063 806.0313,234.3125 Q805.4375,233.7031 804.4844,233.7031 Q803.2656,233.7031 802.5469,235.1406 Q801.8281,236.5625 801.8281,238.75 Q801.8281,241.1563 802.4375,242.4531 Q803.0625,243.7344 804.4219,243.7344 Q805.375,243.7344 806.0625,243.0469 Q806.75,242.3438 807.0781,240.8438 L807.9844,241.25 Q807.5781,242.9531 806.6094,243.9063 Q805.6563,244.8594 804.3438,244.8594 Z " fill="#000000"/><text fill="#000000" font-family="sans-serif" font-size="14" lengthAdjust="spacing" textLength="105" x="819" y="244.7969">t_apple_account</text><line style="stroke:#181818;stroke-width:0.5;" x1="791" x2="926" y1="255" y2="255"/><line style="stroke:#181818;stroke-width:0.5;" x1="791" x2="926" y1="263" y2="263"/></g><!--class t_android_cert--><g id="elem_t_android_cert"><rect fill="#F1F1F1" height="48" id="t_android_cert" rx="2.5" ry="2.5" style="stroke:#181818;stroke-width:0.5;" width="124" x="896.5" y="7"/><ellipse cx="911.5" cy="23" fill="#ADD1B2" rx="11" ry="11" style="stroke:#181818;stroke-width:1.0;"/><path d="M910.8438,28.8594 Q908.8594,28.8594 907.6875,27.3906 Q906.5313,25.9063 906.5313,22.8281 Q906.5313,20.2188 907.75,18.4688 Q908.9844,16.7188 911.1094,16.7188 Q911.6094,16.7188 912.1406,16.8594 Q912.5781,17.0469 912.8438,17.0469 Q913.0625,17.0469 913.1563,17 Q913.2656,16.9531 913.7188,16.3594 L914.4844,20.0938 L913.5938,20.3594 Q913.1406,18.9063 912.5313,18.3125 Q911.9375,17.7031 910.9844,17.7031 Q909.7656,17.7031 909.0469,19.1406 Q908.3281,20.5625 908.3281,22.75 Q908.3281,25.1563 908.9375,26.4531 Q909.5625,27.7344 910.9219,27.7344 Q911.875,27.7344 912.5625,27.0469 Q913.25,26.3438 913.5781,24.8438 L914.4844,25.25 Q914.0781,26.9531 913.1094,27.9063 Q912.1563,28.8594 910.8438,28.8594 Z " fill="#000000"/><text fill="#000000" font-family="sans-serif" font-size="14" lengthAdjust="spacing" textLength="92" x="925.5" y="28.7969">t_android_cert</text><line style="stroke:#181818;stroke-width:0.5;" x1="897.5" x2="1019.5" y1="39" y2="39"/><line style="stroke:#181818;stroke-width:0.5;" x1="897.5" x2="1019.5" y1="47" y2="47"/></g><!--class t_apple_bundle--><g id="elem_t_apple_bundle"><rect fill="#F1F1F1" height="48" id="t_apple_bundle" rx="2.5" ry="2.5" style="stroke:#181818;stroke-width:0.5;" width="130" x="1323.5" y="7"/><ellipse cx="1338.5" cy="23" fill="#ADD1B2" rx="11" ry="11" style="stroke:#181818;stroke-width:1.0;"/><path d="M1337.8438,28.8594 Q1335.8594,28.8594 1334.6875,27.3906 Q1333.5313,25.9063 1333.5313,22.8281 Q1333.5313,20.2188 1334.75,18.4688 Q1335.9844,16.7188 1338.1094,16.7188 Q1338.6094,16.7188 1339.1406,16.8594 Q1339.5781,17.0469 1339.8438,17.0469 Q1340.0625,17.0469 1340.1563,17 Q1340.2656,16.9531 1340.7188,16.3594 L1341.4844,20.0938 L1340.5938,20.3594 Q1340.1406,18.9063 1339.5313,18.3125 Q1338.9375,17.7031 1337.9844,17.7031 Q1336.7656,17.7031 1336.0469,19.1406 Q1335.3281,20.5625 1335.3281,22.75 Q1335.3281,25.1563 1335.9375,26.4531 Q1336.5625,27.7344 1337.9219,27.7344 Q1338.875,27.7344 1339.5625,27.0469 Q1340.25,26.3438 1340.5781,24.8438 L1341.4844,25.25 Q1341.0781,26.9531 1340.1094,27.9063 Q1339.1563,28.8594 1337.8438,28.8594 Z " fill="#000000"/><text fill="#000000" font-family="sans-serif" font-size="14" lengthAdjust="spacing" textLength="98" x="1352.5" y="28.7969">t_apple_bundle</text><line style="stroke:#181818;stroke-width:0.5;" x1="1324.5" x2="1452.5" y1="39" y2="39"/><line style="stroke:#181818;stroke-width:0.5;" x1="1324.5" x2="1452.5" y1="47" y2="47"/></g><!--class t_apple_bundle_relation--><g id="elem_t_apple_bundle_relation"><rect fill="#F1F1F1" height="48" id="t_apple_bundle_relation" rx="2.5" ry="2.5" style="stroke:#181818;stroke-width:0.5;" width="185" x="1392" y="115"/><ellipse cx="1407" cy="131" fill="#ADD1B2" rx="11" ry="11" style="stroke:#181818;stroke-width:1.0;"/><path d="M1406.3438,136.8594 Q1404.3594,136.8594 1403.1875,135.3906 Q1402.0313,133.9063 1402.0313,130.8281 Q1402.0313,128.2188 1403.25,126.4688 Q1404.4844,124.7188 1406.6094,124.7188 Q1407.1094,124.7188 1407.6406,124.8594 Q1408.0781,125.0469 1408.3438,125.0469 Q1408.5625,125.0469 1408.6563,125 Q1408.7656,124.9531 1409.2188,124.3594 L1409.9844,128.0938 L1409.0938,128.3594 Q1408.6406,126.9063 1408.0313,126.3125 Q1407.4375,125.7031 1406.4844,125.7031 Q1405.2656,125.7031 1404.5469,127.1406 Q1403.8281,128.5625 1403.8281,130.75 Q1403.8281,133.1563 1404.4375,134.4531 Q1405.0625,135.7344 1406.4219,135.7344 Q1407.375,135.7344 1408.0625,135.0469 Q1408.75,134.3438 1409.0781,132.8438 L1409.9844,133.25 Q1409.5781,134.9531 1408.6094,135.9063 Q1407.6563,136.8594 1406.3438,136.8594 Z " fill="#000000"/><text fill="#000000" font-family="sans-serif" font-size="14" lengthAdjust="spacing" textLength="153" x="1421" y="136.7969">t_apple_bundle_relation</text><line style="stroke:#181818;stroke-width:0.5;" x1="1393" x2="1576" y1="147" y2="147"/><line style="stroke:#181818;stroke-width:0.5;" x1="1393" x2="1576" y1="155" y2="155"/></g><!--class t_apple_bundle_capability--><g id="elem_t_apple_bundle_capability"><rect fill="#F1F1F1" height="48" id="t_apple_bundle_capability" rx="2.5" ry="2.5" style="stroke:#181818;stroke-width:0.5;" width="197" x="1489" y="7"/><ellipse cx="1504" cy="23" fill="#ADD1B2" rx="11" ry="11" style="stroke:#181818;stroke-width:1.0;"/><path d="M1503.3438,28.8594 Q1501.3594,28.8594 1500.1875,27.3906 Q1499.0313,25.9063 1499.0313,22.8281 Q1499.0313,20.2188 1500.25,18.4688 Q1501.4844,16.7188 1503.6094,16.7188 Q1504.1094,16.7188 1504.6406,16.8594 Q1505.0781,17.0469 1505.3438,17.0469 Q1505.5625,17.0469 1505.6563,17 Q1505.7656,16.9531 1506.2188,16.3594 L1506.9844,20.0938 L1506.0938,20.3594 Q1505.6406,18.9063 1505.0313,18.3125 Q1504.4375,17.7031 1503.4844,17.7031 Q1502.2656,17.7031 1501.5469,19.1406 Q1500.8281,20.5625 1500.8281,22.75 Q1500.8281,25.1563 1501.4375,26.4531 Q1502.0625,27.7344 1503.4219,27.7344 Q1504.375,27.7344 1505.0625,27.0469 Q1505.75,26.3438 1506.0781,24.8438 L1506.9844,25.25 Q1506.5781,26.9531 1505.6094,27.9063 Q1504.6563,28.8594 1503.3438,28.8594 Z " fill="#000000"/><text fill="#000000" font-family="sans-serif" font-size="14" lengthAdjust="spacing" textLength="165" x="1518" y="28.7969">t_apple_bundle_capability</text><line style="stroke:#181818;stroke-width:0.5;" x1="1490" x2="1685" y1="39" y2="39"/><line style="stroke:#181818;stroke-width:0.5;" x1="1490" x2="1685" y1="47" y2="47"/></g><!--class t_apple_profile--><g id="elem_t_apple_profile"><rect fill="#F1F1F1" height="48" id="t_apple_profile" rx="2.5" ry="2.5" style="stroke:#181818;stroke-width:0.5;" width="126" x="1055.5" y="7"/><ellipse cx="1070.5" cy="23" fill="#ADD1B2" rx="11" ry="11" style="stroke:#181818;stroke-width:1.0;"/><path d="M1069.8438,28.8594 Q1067.8594,28.8594 1066.6875,27.3906 Q1065.5313,25.9063 1065.5313,22.8281 Q1065.5313,20.2188 1066.75,18.4688 Q1067.9844,16.7188 1070.1094,16.7188 Q1070.6094,16.7188 1071.1406,16.8594 Q1071.5781,17.0469 1071.8438,17.0469 Q1072.0625,17.0469 1072.1563,17 Q1072.2656,16.9531 1072.7188,16.3594 L1073.4844,20.0938 L1072.5938,20.3594 Q1072.1406,18.9063 1071.5313,18.3125 Q1070.9375,17.7031 1069.9844,17.7031 Q1068.7656,17.7031 1068.0469,19.1406 Q1067.3281,20.5625 1067.3281,22.75 Q1067.3281,25.1563 1067.9375,26.4531 Q1068.5625,27.7344 1069.9219,27.7344 Q1070.875,27.7344 1071.5625,27.0469 Q1072.25,26.3438 1072.5781,24.8438 L1073.4844,25.25 Q1073.0781,26.9531 1072.1094,27.9063 Q1071.1563,28.8594 1069.8438,28.8594 Z " fill="#000000"/><text fill="#000000" font-family="sans-serif" font-size="14" lengthAdjust="spacing" textLength="94" x="1084.5" y="28.7969">t_apple_profile</text><line style="stroke:#181818;stroke-width:0.5;" x1="1056.5" x2="1180.5" y1="39" y2="39"/><line style="stroke:#181818;stroke-width:0.5;" x1="1056.5" x2="1180.5" y1="47" y2="47"/></g><!--class t_apple_device--><g id="elem_t_apple_device"><rect fill="#F1F1F1" height="48" id="t_apple_device" rx="2.5" ry="2.5" style="stroke:#181818;stroke-width:0.5;" width="128" x="794.5" y="331"/><ellipse cx="809.5" cy="347" fill="#ADD1B2" rx="11" ry="11" style="stroke:#181818;stroke-width:1.0;"/><path d="M808.8438,352.8594 Q806.8594,352.8594 805.6875,351.3906 Q804.5313,349.9063 804.5313,346.8281 Q804.5313,344.2188 805.75,342.4688 Q806.9844,340.7188 809.1094,340.7188 Q809.6094,340.7188 810.1406,340.8594 Q810.5781,341.0469 810.8438,341.0469 Q811.0625,341.0469 811.1563,341 Q811.2656,340.9531 811.7188,340.3594 L812.4844,344.0938 L811.5938,344.3594 Q811.1406,342.9063 810.5313,342.3125 Q809.9375,341.7031 808.9844,341.7031 Q807.7656,341.7031 807.0469,343.1406 Q806.3281,344.5625 806.3281,346.75 Q806.3281,349.1563 806.9375,350.4531 Q807.5625,351.7344 808.9219,351.7344 Q809.875,351.7344 810.5625,351.0469 Q811.25,350.3438 811.5781,348.8438 L812.4844,349.25 Q812.0781,350.9531 811.1094,351.9063 Q810.1563,352.8594 808.8438,352.8594 Z " fill="#000000"/><text fill="#000000" font-family="sans-serif" font-size="14" lengthAdjust="spacing" textLength="96" x="823.5" y="352.7969">t_apple_device</text><line style="stroke:#181818;stroke-width:0.5;" x1="795.5" x2="921.5" y1="363" y2="363"/><line style="stroke:#181818;stroke-width:0.5;" x1="795.5" x2="921.5" y1="371" y2="371"/></g><!--link t_user to t_file--><g id="link_t_user_t_file"><path codeLine="360" d="M325.5,171.24 C325.5,189.02 325.5,197.08 325.5,214.84 " fill="none" id="t_user-t_file" style="stroke:#181818;stroke-width:1.0;"/><line style="stroke:#181818;stroke-width:1.0;" x1="321.5" x2="329.5" y1="167.24" y2="167.24"/><line style="stroke:#181818;stroke-width:1.0;" x1="321.5" x2="329.5" y1="170.24" y2="170.24"/><line style="stroke:#181818;stroke-width:1.0;" x1="325.5" x2="325.5" y1="171.24" y2="163.24"/><line style="stroke:#181818;stroke-width:1.0;" x1="325.5" x2="331.5" y1="214.84" y2="222.84"/><line style="stroke:#181818;stroke-width:1.0;" x1="325.5" x2="319.5" y1="214.84" y2="222.84"/><line style="stroke:#181818;stroke-width:1.0;" x1="325.5" x2="325.5" y1="214.84" y2="222.84"/><line style="stroke:#181818;stroke-width:1.0;" x1="329.5" x2="321.5" y1="212.84" y2="212.84"/></g><!--link t_user to t_event--><g id="link_t_user_t_event"><path codeLine="361" d="M379,171.23 C379,192.81 379,213 379,213 C379,213 530.33,213 530.33,213 C530.33,213 530.33,209.2 530.33,214.65 " fill="none" id="t_user-t_event" style="stroke:#181818;stroke-width:1.0;"/><line style="stroke:#181818;stroke-width:1.0;" x1="375" x2="383" y1="167.23" y2="167.23"/><line style="stroke:#181818;stroke-width:1.0;" x1="375" x2="383" y1="170.23" y2="170.23"/><line style="stroke:#181818;stroke-width:1.0;" x1="379" x2="379" y1="171.23" y2="163.23"/><line style="stroke:#181818;stroke-width:1.0;" x1="530.33" x2="536.33" y1="214.65" y2="222.65"/><line style="stroke:#181818;stroke-width:1.0;" x1="530.33" x2="524.33" y1="214.65" y2="222.65"/><line style="stroke:#181818;stroke-width:1.0;" x1="530.33" x2="530.33" y1="214.65" y2="222.65"/><line style="stroke:#181818;stroke-width:1.0;" x1="534.33" x2="526.33" y1="212.65" y2="212.65"/></g><!--link t_app to t_event--><g id="link_t_app_t_event"><path codeLine="362" d="M779.17,171.16 C779.17,185.53 779.17,193 779.17,193 C779.17,193 556.67,193 556.67,193 C556.67,193 556.67,200.47 556.67,214.84 " fill="none" id="t_app-t_event" style="stroke:#181818;stroke-width:1.0;"/><line style="stroke:#181818;stroke-width:1.0;" x1="775.17" x2="783.17" y1="167.16" y2="167.16"/><line style="stroke:#181818;stroke-width:1.0;" x1="775.17" x2="783.17" y1="170.16" y2="170.16"/><line style="stroke:#181818;stroke-width:1.0;" x1="779.17" x2="779.17" y1="171.16" y2="163.16"/><line style="stroke:#181818;stroke-width:1.0;" x1="556.67" x2="562.67" y1="214.84" y2="222.84"/><line style="stroke:#181818;stroke-width:1.0;" x1="556.67" x2="550.67" y1="214.84" y2="222.84"/><line style="stroke:#181818;stroke-width:1.0;" x1="556.67" x2="556.67" y1="214.84" y2="222.84"/><line style="stroke:#181818;stroke-width:1.0;" x1="560.67" x2="552.67" y1="212.84" y2="212.84"/></g><!--link t_user to t_user_role--><g id="link_t_user_t_user_role"><path codeLine="363" d="M371.75,171.24 C371.75,189.02 371.75,197.08 371.75,214.84 " fill="none" id="t_user-t_user_role" style="stroke:#181818;stroke-width:1.0;"/><line style="stroke:#181818;stroke-width:1.0;" x1="367.75" x2="375.75" y1="167.24" y2="167.24"/><line style="stroke:#181818;stroke-width:1.0;" x1="367.75" x2="375.75" y1="170.24" y2="170.24"/><line style="stroke:#181818;stroke-width:1.0;" x1="371.75" x2="371.75" y1="171.24" y2="163.24"/><line style="stroke:#181818;stroke-width:1.0;" x1="371.75" x2="377.75" y1="214.84" y2="222.84"/><line style="stroke:#181818;stroke-width:1.0;" x1="371.75" x2="365.75" y1="214.84" y2="222.84"/><line style="stroke:#181818;stroke-width:1.0;" x1="371.75" x2="371.75" y1="214.84" y2="222.84"/><line style="stroke:#181818;stroke-width:1.0;" x1="375.75" x2="367.75" y1="212.84" y2="212.84"/></g><!--link t_app to t_user_role--><g id="link_t_app_t_user_role"><path codeLine="364" d="M768.33,171.35 C768.33,176.8 768.33,173 768.33,173 C768.33,173 448.5,173 448.5,173 C448.5,173 448.5,193.19 448.5,214.77 " fill="none" id="t_app-t_user_role" style="stroke:#181818;stroke-width:1.0;"/><line style="stroke:#181818;stroke-width:1.0;" x1="764.33" x2="772.33" y1="167.35" y2="167.35"/><line style="stroke:#181818;stroke-width:1.0;" x1="764.33" x2="772.33" y1="170.35" y2="170.35"/><line style="stroke:#181818;stroke-width:1.0;" x1="768.33" x2="768.33" y1="171.35" y2="163.35"/><line style="stroke:#181818;stroke-width:1.0;" x1="448.5" x2="454.5" y1="214.77" y2="222.77"/><line style="stroke:#181818;stroke-width:1.0;" x1="448.5" x2="442.5" y1="214.77" y2="222.77"/><line style="stroke:#181818;stroke-width:1.0;" x1="448.5" x2="448.5" y1="214.77" y2="222.77"/><line style="stroke:#181818;stroke-width:1.0;" x1="452.5" x2="444.5" y1="212.77" y2="212.77"/></g><!--link t_authorization to t_app--><g id="link_t_authorization_t_app"><path codeLine="365" d="M332.5,63.28 C332.5,75.19 332.5,79 332.5,79 C332.5,79 774.5,79 774.5,79 C774.5,79 774.5,90.25 774.5,106.94 " fill="none" id="t_authorization-t_app" style="stroke:#181818;stroke-width:1.0;"/><line style="stroke:#181818;stroke-width:1.0;" x1="332.5" x2="326.5" y1="63.28" y2="55.28"/><line style="stroke:#181818;stroke-width:1.0;" x1="332.5" x2="338.5" y1="63.28" y2="55.28"/><line style="stroke:#181818;stroke-width:1.0;" x1="332.5" x2="332.5" y1="63.28" y2="55.28"/><line style="stroke:#181818;stroke-width:1.0;" x1="328.5" x2="336.5" y1="65.28" y2="65.28"/><line style="stroke:#181818;stroke-width:1.0;" x1="778.5" x2="770.5" y1="110.94" y2="110.94"/><line style="stroke:#181818;stroke-width:1.0;" x1="778.5" x2="770.5" y1="107.94" y2="107.94"/><line style="stroke:#181818;stroke-width:1.0;" x1="774.5" x2="774.5" y1="106.94" y2="114.94"/></g><!--link t_authorization to t_authorization_action_relation--><g id="link_t_authorization_t_authorization_action_relation"><path codeLine="366" d="M327,63.06 C327,79.75 327,91 327,91 C327,91 477.25,91 477.25,91 C477.25,91 477.25,94.81 477.25,106.72 " fill="none" id="t_authorization-t_authorization_action_relation" style="stroke:#181818;stroke-width:1.0;"/><line style="stroke:#181818;stroke-width:1.0;" x1="323" x2="331" y1="59.06" y2="59.06"/><line style="stroke:#181818;stroke-width:1.0;" x1="323" x2="331" y1="62.06" y2="62.06"/><line style="stroke:#181818;stroke-width:1.0;" x1="327" x2="327" y1="63.06" y2="55.06"/><line style="stroke:#181818;stroke-width:1.0;" x1="477.25" x2="483.25" y1="106.72" y2="114.72"/><line style="stroke:#181818;stroke-width:1.0;" x1="477.25" x2="471.25" y1="106.72" y2="114.72"/><line style="stroke:#181818;stroke-width:1.0;" x1="477.25" x2="477.25" y1="106.72" y2="114.72"/><line style="stroke:#181818;stroke-width:1.0;" x1="481.25" x2="473.25" y1="104.72" y2="104.72"/></g><!--link t_authorization_action to t_authorization_action_relation--><g id="link_t_authorization_action_t_authorization_action_relation"><path codeLine="367" d="M92.5,63.38 C92.5,84.26 92.5,103 92.5,103 C92.5,103 452.88,103 452.88,103 C452.88,103 452.88,100.28 452.88,106.79 " fill="none" id="t_authorization_action-t_authorization_action_relation" style="stroke:#181818;stroke-width:1.0;"/><line style="stroke:#181818;stroke-width:1.0;" x1="88.5" x2="96.5" y1="59.38" y2="59.38"/><line style="stroke:#181818;stroke-width:1.0;" x1="88.5" x2="96.5" y1="62.38" y2="62.38"/><line style="stroke:#181818;stroke-width:1.0;" x1="92.5" x2="92.5" y1="63.38" y2="55.38"/><line style="stroke:#181818;stroke-width:1.0;" x1="452.88" x2="458.88" y1="106.79" y2="114.79"/><line style="stroke:#181818;stroke-width:1.0;" x1="452.88" x2="446.88" y1="106.79" y2="114.79"/><line style="stroke:#181818;stroke-width:1.0;" x1="452.88" x2="452.88" y1="106.79" y2="114.79"/><line style="stroke:#181818;stroke-width:1.0;" x1="456.88" x2="448.88" y1="104.79" y2="104.79"/></g><!--link t_android_sign_job to t_app--><g id="link_t_android_sign_job_t_app"><path codeLine="368" d="M501.62,63.21 C501.62,69.72 501.62,67 501.62,67 C501.62,67 791.5,67 791.5,67 C791.5,67 791.5,85.74 791.5,106.62 " fill="none" id="t_android_sign_job-t_app" style="stroke:#181818;stroke-width:1.0;"/><line style="stroke:#181818;stroke-width:1.0;" x1="501.62" x2="495.62" y1="63.21" y2="55.21"/><line style="stroke:#181818;stroke-width:1.0;" x1="501.62" x2="507.62" y1="63.21" y2="55.21"/><line style="stroke:#181818;stroke-width:1.0;" x1="501.62" x2="501.62" y1="63.21" y2="55.21"/><line style="stroke:#181818;stroke-width:1.0;" x1="497.62" x2="505.62" y1="65.21" y2="65.21"/><line style="stroke:#181818;stroke-width:1.0;" x1="795.5" x2="787.5" y1="110.62" y2="110.62"/><line style="stroke:#181818;stroke-width:1.0;" x1="795.5" x2="787.5" y1="107.62" y2="107.62"/><line style="stroke:#181818;stroke-width:1.0;" x1="791.5" x2="791.5" y1="106.62" y2="114.62"/></g><!--link t_win_sign_job to t_app--><g id="link_t_win_sign_job_t_app"><path codeLine="369" d="M670.25,63.24 C670.25,95.08 670.25,139 670.25,139 C670.25,139 713.54,139 749.4,139 " fill="none" id="t_win_sign_job-t_app" style="stroke:#181818;stroke-width:1.0;"/><line style="stroke:#181818;stroke-width:1.0;" x1="670.25" x2="664.25" y1="63.24" y2="55.24"/><line style="stroke:#181818;stroke-width:1.0;" x1="670.25" x2="676.25" y1="63.24" y2="55.24"/><line style="stroke:#181818;stroke-width:1.0;" x1="670.25" x2="670.25" y1="63.24" y2="55.24"/><line style="stroke:#181818;stroke-width:1.0;" x1="666.25" x2="674.25" y1="65.24" y2="65.24"/><line style="stroke:#181818;stroke-width:1.0;" x1="753.4" x2="753.4" y1="135" y2="143"/><line style="stroke:#181818;stroke-width:1.0;" x1="750.4" x2="750.4" y1="135" y2="143"/><line style="stroke:#181818;stroke-width:1.0;" x1="749.4" x2="757.4" y1="139" y2="139"/></g><!--link t_apple_sign_job to t_app--><g id="link_t_apple_sign_job_t_app"><path codeLine="370" d="M808.5,63.24 C808.5,81.02 808.5,89.08 808.5,106.84 " fill="none" id="t_apple_sign_job-t_app" style="stroke:#181818;stroke-width:1.0;"/><line style="stroke:#181818;stroke-width:1.0;" x1="808.5" x2="802.5" y1="63.24" y2="55.24"/><line style="stroke:#181818;stroke-width:1.0;" x1="808.5" x2="814.5" y1="63.24" y2="55.24"/><line style="stroke:#181818;stroke-width:1.0;" x1="808.5" x2="808.5" y1="63.24" y2="55.24"/><line style="stroke:#181818;stroke-width:1.0;" x1="804.5" x2="812.5" y1="65.24" y2="65.24"/><line style="stroke:#181818;stroke-width:1.0;" x1="812.5" x2="804.5" y1="110.84" y2="110.84"/><line style="stroke:#181818;stroke-width:1.0;" x1="812.5" x2="804.5" y1="107.84" y2="107.84"/><line style="stroke:#181818;stroke-width:1.0;" x1="808.5" x2="808.5" y1="106.84" y2="114.84"/></g><!--link t_todo to t_todo_approver--><g id="link_t_todo_t_todo_approver"><path codeLine="371" d="M1264.5,63.28 C1264.5,110.69 1264.5,203 1264.5,203 C1264.5,203 738.25,203 738.25,203 C738.25,203 738.25,204.67 738.25,214.94 " fill="none" id="t_todo-t_todo_approver" style="stroke:#181818;stroke-width:1.0;"/><line style="stroke:#181818;stroke-width:1.0;" x1="1260.5" x2="1268.5" y1="59.28" y2="59.28"/><line style="stroke:#181818;stroke-width:1.0;" x1="1260.5" x2="1268.5" y1="62.28" y2="62.28"/><line style="stroke:#181818;stroke-width:1.0;" x1="1264.5" x2="1264.5" y1="63.28" y2="55.28"/><line style="stroke:#181818;stroke-width:1.0;" x1="738.25" x2="744.25" y1="214.94" y2="222.94"/><line style="stroke:#181818;stroke-width:1.0;" x1="738.25" x2="732.25" y1="214.94" y2="222.94"/><line style="stroke:#181818;stroke-width:1.0;" x1="738.25" x2="738.25" y1="214.94" y2="222.94"/><line style="stroke:#181818;stroke-width:1.0;" x1="742.25" x2="734.25" y1="212.94" y2="212.94"/></g><!--link t_todo to t_app--><g id="link_t_todo_t_app"><path codeLine="372" d="M1240.5,63.24 C1240.5,96.44 1240.5,144 1240.5,144 C1240.5,144 938.4,144 833.62,144 " fill="none" id="t_todo-t_app" style="stroke:#181818;stroke-width:1.0;"/><line style="stroke:#181818;stroke-width:1.0;" x1="1236.5" x2="1244.5" y1="59.24" y2="59.24"/><line style="stroke:#181818;stroke-width:1.0;" x1="1236.5" x2="1244.5" y1="62.24" y2="62.24"/><line style="stroke:#181818;stroke-width:1.0;" x1="1240.5" x2="1240.5" y1="63.24" y2="55.24"/><line style="stroke:#181818;stroke-width:1.0;" x1="829.62" x2="829.62" y1="148" y2="140"/><line style="stroke:#181818;stroke-width:1.0;" x1="832.62" x2="832.62" y1="148" y2="140"/><line style="stroke:#181818;stroke-width:1.0;" x1="833.62" x2="825.62" y1="144" y2="144"/></g><!--link t_user to t_todo_approver--><g id="link_t_user_t_todo_approver"><path codeLine="373" d="M386.25,171.06 C386.25,181.33 386.25,183 386.25,183 C386.25,183 636.25,183 636.25,183 C636.25,183 636.25,196.68 636.25,214.8 " fill="none" id="t_user-t_todo_approver" style="stroke:#181818;stroke-width:1.0;"/><line style="stroke:#181818;stroke-width:1.0;" x1="382.25" x2="390.25" y1="167.06" y2="167.06"/><line style="stroke:#181818;stroke-width:1.0;" x1="382.25" x2="390.25" y1="170.06" y2="170.06"/><line style="stroke:#181818;stroke-width:1.0;" x1="386.25" x2="386.25" y1="171.06" y2="163.06"/><line style="stroke:#181818;stroke-width:1.0;" x1="636.25" x2="642.25" y1="214.8" y2="222.8"/><line style="stroke:#181818;stroke-width:1.0;" x1="636.25" x2="630.25" y1="214.8" y2="222.8"/><line style="stroke:#181818;stroke-width:1.0;" x1="636.25" x2="636.25" y1="214.8" y2="222.8"/><line style="stroke:#181818;stroke-width:1.0;" x1="640.25" x2="632.25" y1="212.8" y2="212.8"/></g><!--link t_app to t_apple_account--><g id="link_t_app_t_apple_account"><path codeLine="374" d="M807.75,171.24 C807.75,189.02 807.75,197.08 807.75,214.84 " fill="none" id="t_app-t_apple_account" style="stroke:#181818;stroke-width:1.0;"/><line style="stroke:#181818;stroke-width:1.0;" x1="807.75" x2="801.75" y1="171.24" y2="163.24"/><line style="stroke:#181818;stroke-width:1.0;" x1="807.75" x2="813.75" y1="171.24" y2="163.24"/><line style="stroke:#181818;stroke-width:1.0;" x1="807.75" x2="807.75" y1="171.24" y2="163.24"/><line style="stroke:#181818;stroke-width:1.0;" x1="803.75" x2="811.75" y1="173.24" y2="173.24"/><line style="stroke:#181818;stroke-width:1.0;" x1="811.75" x2="803.75" y1="218.84" y2="218.84"/><line style="stroke:#181818;stroke-width:1.0;" x1="811.75" x2="803.75" y1="215.84" y2="215.84"/><line style="stroke:#181818;stroke-width:1.0;" x1="807.75" x2="807.75" y1="214.84" y2="222.84"/></g><!--link t_android_cert to t_app--><g id="link_t_android_cert_t_app"><path codeLine="375" d="M911.75,63.21 C911.75,91.06 911.75,125 911.75,125 C911.75,125 869.19,125 833.64,125 " fill="none" id="t_android_cert-t_app" style="stroke:#181818;stroke-width:1.0;"/><line style="stroke:#181818;stroke-width:1.0;" x1="911.75" x2="905.75" y1="63.21" y2="55.21"/><line style="stroke:#181818;stroke-width:1.0;" x1="911.75" x2="917.75" y1="63.21" y2="55.21"/><line style="stroke:#181818;stroke-width:1.0;" x1="911.75" x2="911.75" y1="63.21" y2="55.21"/><line style="stroke:#181818;stroke-width:1.0;" x1="907.75" x2="915.75" y1="65.21" y2="65.21"/><line style="stroke:#181818;stroke-width:1.0;" x1="829.64" x2="829.64" y1="129" y2="121"/><line style="stroke:#181818;stroke-width:1.0;" x1="832.64" x2="832.64" y1="129" y2="121"/><line style="stroke:#181818;stroke-width:1.0;" x1="833.64" x2="825.64" y1="125" y2="125"/></g><!--link t_apple_bundle to t_apple_bundle_relation--><g id="link_t_apple_bundle_t_apple_bundle_relation"><path codeLine="376" d="M1422.75,63.24 C1422.75,81.02 1422.75,89.08 1422.75,106.84 " fill="none" id="t_apple_bundle-t_apple_bundle_relation" style="stroke:#181818;stroke-width:1.0;"/><line style="stroke:#181818;stroke-width:1.0;" x1="1418.75" x2="1426.75" y1="59.24" y2="59.24"/><line style="stroke:#181818;stroke-width:1.0;" x1="1418.75" x2="1426.75" y1="62.24" y2="62.24"/><line style="stroke:#181818;stroke-width:1.0;" x1="1422.75" x2="1422.75" y1="63.24" y2="55.24"/><line style="stroke:#181818;stroke-width:1.0;" x1="1422.75" x2="1428.75" y1="106.84" y2="114.84"/><line style="stroke:#181818;stroke-width:1.0;" x1="1422.75" x2="1416.75" y1="106.84" y2="114.84"/><line style="stroke:#181818;stroke-width:1.0;" x1="1422.75" x2="1422.75" y1="106.84" y2="114.84"/><line style="stroke:#181818;stroke-width:1.0;" x1="1426.75" x2="1418.75" y1="104.84" y2="104.84"/></g><!--link t_apple_bundle_capability to t_apple_bundle_relation--><g id="link_t_apple_bundle_capability_t_apple_bundle_relation"><path codeLine="377" d="M1533,63.24 C1533,81.02 1533,89.08 1533,106.84 " fill="none" id="t_apple_bundle_capability-t_apple_bundle_relation" style="stroke:#181818;stroke-width:1.0;"/><line style="stroke:#181818;stroke-width:1.0;" x1="1529" x2="1537" y1="59.24" y2="59.24"/><line style="stroke:#181818;stroke-width:1.0;" x1="1529" x2="1537" y1="62.24" y2="62.24"/><line style="stroke:#181818;stroke-width:1.0;" x1="1533" x2="1533" y1="63.24" y2="55.24"/><line style="stroke:#181818;stroke-width:1.0;" x1="1533" x2="1539" y1="106.84" y2="114.84"/><line style="stroke:#181818;stroke-width:1.0;" x1="1533" x2="1527" y1="106.84" y2="114.84"/><line style="stroke:#181818;stroke-width:1.0;" x1="1533" x2="1533" y1="106.84" y2="114.84"/><line style="stroke:#181818;stroke-width:1.0;" x1="1537" x2="1529" y1="104.84" y2="104.84"/></g><!--link t_apple_bundle to t_app--><g id="link_t_apple_bundle_t_app"><path codeLine="378" d="M1357.75,63.01 C1357.75,98.8 1357.75,154 1357.75,154 C1357.75,154 956.07,154 833.65,154 " fill="none" id="t_apple_bundle-t_app" style="stroke:#181818;stroke-width:1.0;"/><line style="stroke:#181818;stroke-width:1.0;" x1="1357.75" x2="1351.75" y1="63.01" y2="55.01"/><line style="stroke:#181818;stroke-width:1.0;" x1="1357.75" x2="1363.75" y1="63.01" y2="55.01"/><line style="stroke:#181818;stroke-width:1.0;" x1="1357.75" x2="1357.75" y1="63.01" y2="55.01"/><line style="stroke:#181818;stroke-width:1.0;" x1="1353.75" x2="1361.75" y1="65.01" y2="65.01"/><line style="stroke:#181818;stroke-width:1.0;" x1="829.65" x2="829.65" y1="158" y2="150"/><line style="stroke:#181818;stroke-width:1.0;" x1="832.65" x2="832.65" y1="158" y2="150"/><line style="stroke:#181818;stroke-width:1.0;" x1="833.65" x2="825.65" y1="154" y2="154"/></g><!--link t_apple_profile to t_app--><g id="link_t_apple_profile_t_app"><path codeLine="379" d="M1118.5,63.12 C1118.5,93.84 1118.5,135 1118.5,135 C1118.5,135 917.32,135 833.57,135 " fill="none" id="t_apple_profile-t_app" style="stroke:#181818;stroke-width:1.0;"/><line style="stroke:#181818;stroke-width:1.0;" x1="1118.5" x2="1112.5" y1="63.12" y2="55.12"/><line style="stroke:#181818;stroke-width:1.0;" x1="1118.5" x2="1124.5" y1="63.12" y2="55.12"/><line style="stroke:#181818;stroke-width:1.0;" x1="1118.5" x2="1118.5" y1="63.12" y2="55.12"/><line style="stroke:#181818;stroke-width:1.0;" x1="1114.5" x2="1122.5" y1="65.12" y2="65.12"/><line style="stroke:#181818;stroke-width:1.0;" x1="829.57" x2="829.57" y1="139" y2="131"/><line style="stroke:#181818;stroke-width:1.0;" x1="832.57" x2="832.57" y1="139" y2="131"/><line style="stroke:#181818;stroke-width:1.0;" x1="833.57" x2="825.57" y1="135" y2="135"/></g><!--link t_apple_account to t_apple_device--><g id="link_t_apple_account_t_apple_device"><path codeLine="380" d="M858.5,279.24 C858.5,297.02 858.5,305.08 858.5,322.84 " fill="none" id="t_apple_account-t_apple_device" style="stroke:#181818;stroke-width:1.0;"/><line style="stroke:#181818;stroke-width:1.0;" x1="854.5" x2="862.5" y1="275.24" y2="275.24"/><line style="stroke:#181818;stroke-width:1.0;" x1="854.5" x2="862.5" y1="278.24" y2="278.24"/><line style="stroke:#181818;stroke-width:1.0;" x1="858.5" x2="858.5" y1="279.24" y2="271.24"/><line style="stroke:#181818;stroke-width:1.0;" x1="858.5" x2="864.5" y1="322.84" y2="330.84"/><line style="stroke:#181818;stroke-width:1.0;" x1="858.5" x2="852.5" y1="322.84" y2="330.84"/><line style="stroke:#181818;stroke-width:1.0;" x1="858.5" x2="858.5" y1="322.84" y2="330.84"/><line style="stroke:#181818;stroke-width:1.0;" x1="862.5" x2="854.5" y1="320.84" y2="320.84"/></g><!--SRC=[xLphKnDP5l_ENv6ghLftfcAD2G_nGpumokwmmmWbwEv-wcgI1df8kZFT7PHHgt2Kjn9G41yeC8EFcX62uYeaFFwPt4xpQV-5FRTlf_lsCm6ChZFhXz7SFkVSq-UUyxldddDxv05UIBCIcmebUO5JXj9SI9IKVh6khku49oYyCXGgpRrKnzyNzrVK6pbjvQN2P6HE2bsjEn62Fr-6-4I85vHGHf3vFe5BXD8IdsAbeT00DnHYCuh8y49Sub8WB1GNK_hV9ufRXTBoZHD4nCcJPL42c-8OJWWDibAydvN-4cdw8YI8IaZ899Cm0Vz3XhDaQ5ElrVjZQERE2HlxZ_qcUttq2thADGSvEyWgh1GYfCqKALfzYsvcWRfOUCSd_hDp6wtUjzJzCfHcPVboWadmVPoiXDnJeTmeaAkp3xJdBYQPJHeiaMYpYwVqU0ODxvWy4jV7omedCGgVuaBuFxB2fj8Mbxhv4etULXVU7IoyDRcIhAmmIR6F5_pv5eVHp7JfOG7jpZkuWLB9oC0a3DcMrUGjJRvJXs-0LGW7_XE9gMk_eAsjS3I6HWkbmZsGTjtqds9-2WofUmutY4NKmdLqpmrG-dK1FProAgrR3vG6Gnmy70tN6zeJXmytnBGNl-0HyhCnHjQekB-kpcs7cuoV1sDtIhlhOKlkwLXnwzTYFay2ng1kZg7y70X2uuzH8Hy-O_nK7xzLxs-48wVAlpTV7imDKy8YaLXfRbFBlUz8Sq9BPniQMzDoDyAHQ8omEeRhOwN2chguP1-cn3N4qFZomSDL1r-ZCKkBa914FW5ZnUtduKYJCQncizh-1Wc8SEIq8SEWegGtnuWrY6Df-qz16xJwMdlxJ7sreix3Yvun97Pcv7w3FthAM0ZrtrDQRbvRtqEhO-5e15k_L9YrZLfpHM7L2hDe_L5BEftajBVFKVPzE0ehcDj1Otd3clCRwftrSBGXzZTHx4jodKbsY4nQt9hITdV3qSQODlqUPU-JqR-oSQv750VK-L_G-88P4M8ydd65e0bBLWHdPqjpIuvemb39EDtSWtTaKxin1qxZ1XisdNO9SF2HjtMpnaL1mMGATuKA83GwWjQtRH5ALfP2-5u-oTKaJB5W_3ecwFh2Ez6fBK77B9guqrJSogFjj-hYE7xVcUdwA0oe3t8NBxQT2xOwfTfaSMVPqzY0V0bBFHhJyPEoIhODnznjeerDNpZLfxSRl0ZqncQHBk-WdQn9bqeqUinFV9BU7EH-Da886qvL8WJT26bJGp0f_oFdOpNZXLPVe0rBLrXsLk4gnmOnkHaRrwdiWZWlvNlWy3LnFIEGJDFwUXxHo6-PRHQ4zIszs3XqjEkRW7UqLvEJKAgbawpIAqgfWAqFRM-Yx8PZw_i7BoJ4opBiVGRam-Qd8-cXbvQyZ0FsM2oAOUDnCICe_f58ONURHvvrp5I4RAOse2DRkVRYhZRnnanb6Kci1TfLxGv4APS1lA7VOm4CTtMnww_bRpnY1TfuiEM-6ocjh-2CQ1CIeINuTsbc5Cq-mAcHFeqrqb1EMSPdy4_8ZhAvuku-fbdRWxXG5- -WoHLdiElv1Xti6JXhIFoFhCABGYt3_cX6nFoW8HRW7V_w-r3n6Bpp-AmqVk6qjJUSYj9JQ1itiMQT9ccln05S2V4XFw3EPT7uwC7T9S89gVx1RmyEVfujJOzPaSM1-VpE8GTtdrL0WU3WvwwaUIc0P_MrEZzExGLsvr2dnzKdDmzMjjt-0O1ICpUf6kEhGDo3uPzmgayIVXVw1e0l19KwCQmkJlZQnTSeZCGbQnX4HX1KYY8Z73oYY2XPMOIv_7OfD8WOHYCmKomK06Q8MSWuWsKptuizDR44oAqkVoMAKT1mN22g3bhKyVl-gn3df83Tc1o2lFZyitPNkawbabWwusArtlJz6sEdSB8gh3p0L3ZG4_EwZ_MH69iUWCXYsHw8gZIhnFkjmeZOvpWB4GMqlNjmPbGNdg7z1Pl-Z1plvrAiTq49vYdhlwskuEF8mV02P380lcZYZPNEyo0cCS0akK4k6V12XbV3eHmGkxWxNLgRAELVMEg86IaUP13roJCrF-F8XIvpFTWMQVx3f7MzlC3B_Rx8NYhSKvyi7R-U58cXlH5YMvp6GO8nkGJF8GVHQmasS3Imr0K6bx7PFsSWg2gWFm0c-0Ve1uxBD0UBsPyS-FFb_X-I49lwNmqnUKYsuvCezR52EICqao9RaaAGgbIuLIgC7IswGGz60VzbO7g5Itdl_AJqPAJ24-FguYlB5Abq0BI1TC9BV1VDJAiJzz3j4M9HM0vjU0Gcze6_Oo3d7nqbmcMCmCUJlH5p7V3nP6y4xQrhkpcqUWkEC3OGqPClTpwX7sB_dqrySkJWqooiS7gW3vOtaUexTZfpw3pWKD58bI6JJ49CiRmW-nG9BxQZ9K27ExPuHAkFYbk_UkOIu64WXHTEil4u9yid-oGna_QH3QSuTFjXSUkDjhv_iB0EOEan2vRlcWLSYxi2Jjmh-fr9TGfoYhS9_NjNntcKszPUus8_XkT7jz3kpsWdYzOUe9zULeGfZxJo3u9NpZe9WDNaKwfEeeW9iJPzCn1SPLbKrwbIhSChaS4Dds8-VwBANXsPoBDZHs9QsnzJ5vTmbKeNZIQNqSWp0dLWK39eX2GS9H_E7BUWkFWhsJDmU_Fz6-FVzJ5rwcwfy0JlD3EtrLjPM_5pY4d9VNxXOwWzlOGUBrEztk-vk1B4HkPpiVLMXi2lR8NMh-YMckSnyUD5axK7QrFRwjD5egEz6s1LacjJsp1a-wIQkaAEmdOvNYAdWkud6ERsRYCugcxs6XClonckt0MWGLrVHx8Z0usrBz0AUH430Rs9c5eqHkWJRNeWBl-fcRIZC7Jhh8w289k00wttWPYyi5aXjeTxjMtvYD4znx4syWfbjo3GYZitYbkFx3Kn7ID8A0ArYP7ONoHni4RtKyfWMIdhCf2oogohkew08rkbOzWLBWbka8_Nfe6RIPHzhI7G-NN5q5okk3MiBezfkT7Ig-SVAtdLxmLujjS2Gj3Gs1w8AJ719GCPY0Sxy87OtuI9PcTG4WqfQEZXXKG0P69gp-QfxRu6h5Xnzvwj55e-K5TqXM-FMJ6tvvv44xhv7RnYPaFKf4_OLygnV-e7VpF_12zMH34f0sJfR2Zx4wIVT5lxS5qCgbse7_qn3irEwdO59wqci8vWJP-x6lhKveqDgvO-wFys-18ArLyn51KgS3cwCfJTHAdgLJkidVqScS8pof5hOdRZ25b5-ajXsKS2ie1x0fv5iYPtaDZkEoPvLlRfSOt_HbEcCpr9IE9W5_M9G9ITHLitjU4HIw7BWZyvQMhHv6ooJvHufT-dycOK-DONrCrvgcafyMpI3QaedyNNMAWihHnCFKcnnoaKdnPoeuwG0WYfb4KRV7esHBp0lIhULtTWj8fxEtYugbixv86D56AKm_TB_R9BNMcKlqTkBD9l7S1blBQTXUljnQUKGs7FuVh1H-yxmrRD1VBWIujc0BjQ22ximIs4_otSmJscHrbrCO_jF3xpwM483djzd0Hc41GFboOMLM-FbVBRnq8koETbMpU0JZP8PTvsI3i2k1m1ycWyQWW6f4EYetvNN9JyBftOG_9JWLt0iSwmi5S51sSq8wy9GSSbuvHN7cYzzBi66bA5SQKu-f7Xim4QGrV6i-HGBZXzUcHo5sgyRnqU2vUg2BsPQLn9EKG04ZuZWe1LZq6ggH07TmLu6phinmxdshgwBxHzVR6xhUCyXDsvrakjxHsTtxMUxmxNnzewkXWRWSNPG1vIv8snxrhECYsTdNuiJJf1s_ckxfRsTZlHQOkNacYnDfSLQxt0j9rZlctzPtVuZ7qCcDlRphOuveoSibCPipl0cX4ogHwpiXODnEmgBdfH0UrvonOi1wR6RzpHvVWGA6XhSWByXx-3Hohe7nBMw4z4NE2MbiIglYWu0hvbCfxNzMbr76UstqdgzV6m9t5qK2KCFHaXuST7YbimsTSw4GLqbVOQbDl6PYMTM-U-evTHxBKKcuTkhLr99U7Vz9sEeo8hnaSdeaNDqQxkZWkj1iJYtotdlkauwy9N_AJj_3ST5xjQQNob93QPeqGY_S6PXSSNMizsXvjZtPSyT3fZ3Jj507gQpuY2aOWrKbOiGh0CiBUb_LzTtG4m7gbtKv8v8mqUCdIrQm-y18MOetmgQ5yzz-hwhKs3ftTuhl3dXVSaN5r8JqAz5a3_YJD90yC2Yjx48hQ2MqNqCq3l-D_pN3pVTgdrGbTBE_5DmoCfvpzg2PnQREtcBffyx5fi9iwcsHu-YQbhtMR0oP9xqObYjWAchnazNAOIW80nJVC6suPyZkcsKDLtyuzom3Ej7t2erxLpNQetUa-cVrOmb17RhelvnlyGuDgraoUlNGsHZqTTW_gNttNawpxNe9tK_2RBIMvxOFjmw3eckHRIwLqFJVx0xoRgV3usgPxR-Vc1GodRZMIdmlQhXewd-kKVKmzRczlsrEAm6zJ9WOrAJs5TiAXpT5myrJJym3ACbwlN-OF4eHYzLIWVA3mVbYzqEEOXJLchvUJkabwzJZyqqq_RSBaeVFNwVm40]--></g></svg>