<?xml version="1.0" encoding="us-ascii" standalone="no"?><svg xmlns="http://www.w3.org/2000/svg" xmlns:xlink="http://www.w3.org/1999/xlink" contentStyleType="text/css" height="490px" preserveAspectRatio="none" style="width:552px;height:490px;background:#FFFFFF;" version="1.1" viewBox="0 0 552 490" width="552px" zoomAndPan="magnify"><defs/><g><!--cluster ????--><g id="cluster_&#31614;&#21517;&#31649;&#29702;"><rect fill="none" height="477" rx="2.5" ry="2.5" style="stroke:#181818;stroke-width:1.0;" width="442" x="104.5" y="7"/><text fill="#000000" font-family="sans-serif" font-size="14" font-weight="bold" lengthAdjust="spacing" textLength="56" x="297.5" y="24.1074">&#31614;&#21517;&#31649;&#29702;</text></g><g id="elem_Android apk&#12289;aab&#25991;&#20214;&#21644;&#34917;&#19969;&#31614;&#21517;"><ellipse cx="244.7896" cy="71.7579" fill="#F1F1F1" rx="124.2896" ry="27.2579" style="stroke:#181818;stroke-width:0.5;"/><text fill="#000000" font-family="sans-serif" font-size="14" lengthAdjust="spacing" textLength="212" x="138.7896" y="75.5548">Android apk&#12289;aab&#25991;&#20214;&#21644;&#34917;&#19969;&#31614;&#21517;</text></g><g id="elem_Windows PE&#25991;&#20214;&#31614;&#21517;"><ellipse cx="244.9552" cy="154.891" fill="#F1F1F1" rx="89.9552" ry="20.391" style="stroke:#181818;stroke-width:0.5;"/><text fill="#000000" font-family="sans-serif" font-size="14" lengthAdjust="spacing" textLength="134" x="174.9552" y="159.6948">Windows PE&#25991;&#20214;&#31614;&#21517;</text></g><g id="elem_WHQL&#35748;&#35777;"><ellipse cx="244.9845" cy="226.945" fill="#F1F1F1" rx="61.4845" ry="16.445" style="stroke:#181818;stroke-width:0.5;"/><text fill="#000000" font-family="sans-serif" font-size="14" lengthAdjust="spacing" textLength="69" x="207.4845" y="231.7487">WHQL&#35748;&#35777;</text></g><g id="elem_HLK&#27979;&#35797;"><ellipse cx="479.7997" cy="226.845" fill="#F1F1F1" rx="50.2997" ry="16.345" style="stroke:#181818;stroke-width:0.5;"/><text fill="#000000" font-family="sans-serif" font-size="14" lengthAdjust="spacing" textLength="54" x="449.7997" y="231.6487">HLK&#27979;&#35797;</text></g><g id="elem_iOS ipa&#25991;&#20214;&#31614;&#21517;"><ellipse cx="245.1807" cy="296.9361" fill="#F1F1F1" rx="77.6807" ry="17.9361" style="stroke:#181818;stroke-width:0.5;"/><text fill="#000000" font-family="sans-serif" font-size="14" lengthAdjust="spacing" textLength="102" x="191.1807" y="301.7399">iOS ipa&#25991;&#20214;&#31614;&#21517;</text></g><g id="elem_macOS pkg&#12289;dmg&#25991;&#20214;&#31614;&#21517;"><ellipse cx="245.2162" cy="373.9432" fill="#F1F1F1" rx="105.2162" ry="23.4432" style="stroke:#181818;stroke-width:0.5;"/><text fill="#000000" font-family="sans-serif" font-size="14" lengthAdjust="spacing" textLength="170" x="160.2162" y="377.7401">macOS pkg&#12289;dmg&#25991;&#20214;&#31614;&#21517;</text></g><g id="elem_&#33258;&#21160;&#21270;&#31614;&#21517;&#31243;&#24207;"><ellipse cx="245.2476" cy="450.1495" fill="#F1F1F1" rx="76.2476" ry="17.6495" style="stroke:#181818;stroke-width:0.5;"/><text fill="#000000" font-family="sans-serif" font-size="14" lengthAdjust="spacing" textLength="98" x="193.2476" y="454.9532">&#33258;&#21160;&#21270;&#31614;&#21517;&#31243;&#24207;</text></g><!--entity ??--><g id="elem_&#29992;&#25143;"><ellipse cx="33" cy="238.5" fill="#F1F1F1" rx="16" ry="16" style="stroke:#181818;stroke-width:0.5;"/><path d="M33,258.5 C37,258.5 40,258.5 44,254.5 C52,254.5 60,262.5 60,270.5 L60,274.5 C60,278.5 56,282.5 52,282.5 L14,282.5 C10,282.5 6,278.5 6,274.5 L6,270.5 C6,262.5 14,254.5 22,254.5 C26,258.5 29,258.5 33,258.5 " fill="#F1F1F1" style="stroke:#181818;stroke-width:0.5;"/><text fill="#000000" font-family="sans-serif" font-size="14" lengthAdjust="spacing" textLength="28" x="19" y="298.1074">&#29992;&#25143;</text></g><!--link ?? to Android apk?aab???????--><g id="link_&#29992;&#25143;_Android apk&#12289;aab&#25991;&#20214;&#21644;&#34917;&#19969;&#31614;&#21517;"><path d="M41.59,221.78 C49.78,189.19 65.96,144.33 96.5,117 C110.57,104.41 122.4304,97.3982 140.4104,90.8682 " fill="none" id="&#29992;&#25143;-to-Android apk&#12289;aab&#25991;&#20214;&#21644;&#34917;&#19969;&#31614;&#21517;" style="stroke:#181818;stroke-width:1.0;"/><polygon fill="#181818" points="146.05,88.82,136.2252,88.1326,141.3503,90.5268,138.9561,95.652,146.05,88.82" style="stroke:#181818;stroke-width:1.0;"/></g><!--link ?? to Windows PE????--><g id="link_&#29992;&#25143;_Windows PE&#25991;&#20214;&#31614;&#21517;"><path d="M60.54,224.95 C70.61,213.22 82.94,201.19 96.5,193 C118,180.01 138.0199,172.8061 162.0399,167.1461 " fill="none" id="&#29992;&#25143;-to-Windows PE&#25991;&#20214;&#31614;&#21517;" style="stroke:#181818;stroke-width:1.0;"/><polygon fill="#181818" points="167.88,165.77,158.2025,163.9408,163.0133,166.9168,160.0373,171.7276,167.88,165.77" style="stroke:#181818;stroke-width:1.0;"/></g><!--link ?? to WHQL??--><g id="link_&#29992;&#25143;_WHQL&#35748;&#35777;"><path d="M60.6,257.57 C93.6,252.07 144.6818,243.5573 186.4018,236.5973 " fill="none" id="&#29992;&#25143;-to-WHQL&#35748;&#35777;" style="stroke:#181818;stroke-width:1.0;"/><polygon fill="#181818" points="192.32,235.61,182.7845,233.1455,187.3882,236.4328,184.1009,241.0364,192.32,235.61" style="stroke:#181818;stroke-width:1.0;"/></g><!--link WHQL?? to HLK??--><g id="link_WHQL&#35748;&#35777;_HLK&#27979;&#35797;"><path d="M306.61,227 C344.77,227 387.41,227 423.29,227 " fill="none" id="WHQL&#35748;&#35777;-to-HLK&#27979;&#35797;" style="stroke:#181818;stroke-width:1.0;stroke-dasharray:7.0,7.0;"/><polygon fill="#181818" points="429.29,227,420.29,223,424.29,227,420.29,231,429.29,227" style="stroke:#181818;stroke-width:1.0;"/></g><!--link ?? to iOS ipa????--><g id="link_&#29992;&#25143;_iOS ipa&#25991;&#20214;&#31614;&#21517;"><path d="M60.6,266.43 C90.84,271.47 135.3216,278.8836 175.6416,285.6036 " fill="none" id="&#29992;&#25143;-to-iOS ipa&#25991;&#20214;&#31614;&#21517;" style="stroke:#181818;stroke-width:1.0;"/><polygon fill="#181818" points="181.56,286.59,173.3401,281.1648,176.628,285.768,172.0249,289.056,181.56,286.59" style="stroke:#181818;stroke-width:1.0;"/></g><!--link ?? to macOS pkg?dmg????--><g id="link_&#29992;&#25143;_macOS pkg&#12289;dmg&#25991;&#20214;&#31614;&#21517;"><path d="M60.57,299.39 C70.64,311.28 82.97,323.52 96.5,332 C116.24,344.37 133.9415,351.5748 156.3015,357.8248 " fill="none" id="&#29992;&#25143;-to-macOS pkg&#12289;dmg&#25991;&#20214;&#31614;&#21517;" style="stroke:#181818;stroke-width:1.0;"/><polygon fill="#181818" points="162.08,359.44,154.489,353.1649,157.2646,358.094,152.3354,360.8696,162.08,359.44" style="stroke:#181818;stroke-width:1.0;"/></g><!--link ?? to ???????--><g id="link_&#29992;&#25143;_&#33258;&#21160;&#21270;&#31614;&#21517;&#31243;&#24207;"><path d="M39.94,302.17 C47.24,337.06 63.04,386.36 96.5,415 C116.99,432.54 138.8129,440.5982 164.7029,445.2082 " fill="none" id="&#29992;&#25143;-to-&#33258;&#21160;&#21270;&#31614;&#21517;&#31243;&#24207;" style="stroke:#181818;stroke-width:1.0;"/><polygon fill="#181818" points="170.61,446.26,162.4506,440.7442,165.6874,445.3835,161.0482,448.6203,170.61,446.26" style="stroke:#181818;stroke-width:1.0;"/></g><!--SRC=[bLTFRzf85B_xKrXSiXoItFUmKbRQtLQjrAnwsBCBNe82605HLLMLWXem8dyWAKcQiWsX3Gsg4Y1BcX1SmeTPZss-nOuzuCopFOwRGmJlpxptU-_ttWnpAxbSEllpuc8w8QHoQyd4GaHABgvbnVc8WFz5uq8i8oGvBhiQJwK5_94N8ZafypptAY7omainAoL5BY7-dUDp4f-9nrPoV3IU4IEvk9JYE6xE_2YaOjXOxokwqj3QJVJna7_DpV7uxoUzrjPADtgdgLUBuQaC3MjO36NFqc9gQVanaY-CRXwgz8ixLDs6CdMugIhNE9pHQTh7tXLG-TWHghg3AZqemm7Kso-sx0qtHvBav-T_uUbyWO9E6YWyCeSdKka31Oq1XgA0G0M51YXeIB0d51ox9rg_ZOfRTdcFbCdHVS6wHVqahmvsrC5NTJXKnqqjtrN77QrsQzTlVAmh5zWDZVRHwQLnrPeSLL7fcaXS5INHO4cia10QEov4wXiS4f9kcGqUbUf86HBL395Mlz8EUWvPlpsfhTioZ8a-3ks-9sbJftbRq6SpBAX84807jQZ1wXlT6w9ou00oL3gP79r26QwWzay3oYRojZxg41bkncIlnKPDn_P5xMD1vyM8GcNfRU7E6TUF8ZyrURXk5iobL3GZnQEya5xzRpql22-q0nbF8ThRCfejTP0dFc5Y_5Sy5PLUPldbtuWLL3xwywdHERLAQ0aUFNsYVTiqkllJx_5dp_buMl1mJGeHh4klnd0AqMJCmyAGlw9o6sqTJ36qDz6m4kRUSDGeX89X2G4VRqWE6njPYAE_y0iBM6l3X4uUQA613sXew8az12U3tfttU-rRnJWh4Q8GWp3Ga0lArjZarafLcxUk8_3siTmS_FuXEpgmOqLHgzx6GROvskwZNj4OotW8j4frKjmBmpkL367v11LQS7NHgFJpStMmhfqtrT7Od9yfoS15R1saAxkeys4fdKw8njKNLBdnCYAxt38Y730wT-XKPcyA5XJMNl46njWW3y7qRealw8TT62Lmj9Mwg1rF8QtHChgVy4NdUAWKSTXtnjbdyuDb21SpaP5RqalZlXTnCRJzdeCJi-2e-nt9GrjPE4U5IyUxY5wNKvMoeIkokTS_7UCbGpRup7AwMEYZr45P_Nw2nrsxKN0xpR30nIeYY6rL63iGJsy7kkgEXo9fdRKKKFtEQDvFH7K3tVRDbbZ4K1MSJzDOFzGEfpj4Ax_NXsFinF0mMLPkw3joCFE9N64PKYjZQjAurClNb0c1OTPbjmnUgHxCzEJKxC7a45lhsyqpFsitzu9Qi_ZeDs0ETZ9CNLp5sy4b8rVLm-mDiPr_WD0-fmJcUCWRBeFo33Qu1i2sesI41u4d8kWHh149wk-U6ROdUuZy2aEF55ZNe6slFLUVrJNNGlf3ah3_Sa9ufTS7gD3NQmrS1dMmQOn6zazLgy_a67jplsthet-XpBpmy8YTvSdJcyYsPNruHkfZFyhfTGkFq2eLOzoRlgncF2DFSLVgoslP5HeRsB7yhskfQ49y7FNJ6Mz7g5pNFsoO0oLNPaQ_2n7nXIIjador_S-eT4Zgulff6FAhSGYQ-fKQc_hhBTRGZGZaG7Sfa0FTmc0Ehlv2qA3BZe9uDGgRC1JKDc8rq75-438vN9oSSgZPpC2l-_y1]--></g></svg>