<?xml version="1.0" encoding="us-ascii" standalone="no"?><svg xmlns="http://www.w3.org/2000/svg" xmlns:xlink="http://www.w3.org/1999/xlink" contentStyleType="text/css" height="417px" preserveAspectRatio="none" style="width:374px;height:417px;background:#FFFFFF;" version="1.1" viewBox="0 0 374 417" width="374px" zoomAndPan="magnify"><defs/><g><!--cluster ????--><g id="cluster_&#24453;&#21150;&#31649;&#29702;"><rect fill="none" height="404" rx="2.5" ry="2.5" style="stroke:#181818;stroke-width:1.0;" width="248" x="120" y="7"/><text fill="#000000" font-family="sans-serif" font-size="14" font-weight="bold" lengthAdjust="spacing" textLength="56" x="216" y="24.1074">&#24453;&#21150;&#31649;&#29702;</text></g><g id="elem_&#35777;&#20070;&#21363;&#23558;&#36807;&#26399;&#25552;&#37266;"><ellipse cx="243.8723" cy="63.1745" fill="#F1F1F1" rx="81.3723" ry="18.6745" style="stroke:#181818;stroke-width:0.5;"/><text fill="#000000" font-family="sans-serif" font-size="14" lengthAdjust="spacing" textLength="112" x="184.8723" y="67.9782">&#35777;&#20070;&#21363;&#23558;&#36807;&#26399;&#25552;&#37266;</text></g><g id="elem_&#29992;&#25143;&#30003;&#35831;&#21152;&#20837;&#24212;&#29992;"><ellipse cx="243.8723" cy="135.1745" fill="#F1F1F1" rx="81.3723" ry="18.6745" style="stroke:#181818;stroke-width:0.5;"/><text fill="#000000" font-family="sans-serif" font-size="14" lengthAdjust="spacing" textLength="112" x="184.8723" y="139.9782">&#29992;&#25143;&#30003;&#35831;&#21152;&#20837;&#24212;&#29992;</text></g><g id="elem_&#24212;&#29992;&#25104;&#21592;&#31532;&#19968;&#27425;&#20351;&#29992;&#31614;&#21517;"><ellipse cx="244.2232" cy="211.0446" fill="#F1F1F1" rx="98.2232" ry="22.0446" style="stroke:#181818;stroke-width:0.5;"/><text fill="#000000" font-family="sans-serif" font-size="14" lengthAdjust="spacing" textLength="154" x="165.5784" y="215.428">&#24212;&#29992;&#25104;&#21592;&#31532;&#19968;&#27425;&#20351;&#29992;&#31614;&#21517;</text></g><g id="elem_&#24212;&#29992;&#30003;&#35831;&#32465;&#23450;Apple&#36134;&#21495;"><ellipse cx="244.1884" cy="290.0377" fill="#F1F1F1" rx="95.6884" ry="21.5377" style="stroke:#181818;stroke-width:0.5;"/><text fill="#000000" font-family="sans-serif" font-size="14" lengthAdjust="spacing" textLength="148" x="167.7253" y="294.6811">&#24212;&#29992;&#30003;&#35831;&#32465;&#23450;Apple&#36134;&#21495;</text></g><g id="elem_&#24212;&#29992;&#30003;&#35831;&#27880;&#20876;Apple&#27979;&#35797;&#35774;&#22791;"><ellipse cx="243.8959" cy="370.9792" fill="#F1F1F1" rx="107.8959" ry="23.9792" style="stroke:#181818;stroke-width:0.5;"/><text fill="#000000" font-family="sans-serif" font-size="14" lengthAdjust="spacing" textLength="176" x="155.8959" y="374.7761">&#24212;&#29992;&#30003;&#35831;&#27880;&#20876;Apple&#27979;&#35797;&#35774;&#22791;</text></g><!--entity ?????--><g id="elem_&#24212;&#29992;&#31649;&#29702;&#21592;"><ellipse cx="41" cy="111.5" fill="#F1F1F1" rx="16" ry="16" style="stroke:#181818;stroke-width:0.5;"/><path d="M41,131.5 C45,131.5 48,131.5 52,127.5 C60,127.5 68,135.5 68,143.5 L68,147.5 C68,151.5 64,155.5 60,155.5 L22,155.5 C18,155.5 14,151.5 14,147.5 L14,143.5 C14,135.5 22,127.5 30,127.5 C34,131.5 37,131.5 41,131.5 " fill="#F1F1F1" style="stroke:#181818;stroke-width:0.5;"/><text fill="#000000" font-family="sans-serif" font-size="14" lengthAdjust="spacing" textLength="70" x="6" y="171.1074">&#24212;&#29992;&#31649;&#29702;&#21592;</text></g><!--entity ?????--><g id="elem_&#31995;&#32479;&#31649;&#29702;&#21592;"><ellipse cx="41" cy="306.5" fill="#F1F1F1" rx="16" ry="16" style="stroke:#181818;stroke-width:0.5;"/><path d="M41,326.5 C45,326.5 48,326.5 52,322.5 C60,322.5 68,330.5 68,338.5 L68,342.5 C68,346.5 64,350.5 60,350.5 L22,350.5 C18,350.5 14,346.5 14,342.5 L14,338.5 C14,330.5 22,322.5 30,322.5 C34,326.5 37,326.5 41,326.5 " fill="#F1F1F1" style="stroke:#181818;stroke-width:0.5;"/><text fill="#000000" font-family="sans-serif" font-size="14" lengthAdjust="spacing" textLength="70" x="6" y="366.1074">&#31995;&#32479;&#31649;&#29702;&#21592;</text></g><!--link ????? to ????????--><g id="link_&#24212;&#29992;&#31649;&#29702;&#21592;_&#35777;&#20070;&#21363;&#23558;&#36807;&#26399;&#25552;&#37266;"><path d="M76.24,115.6 C87.41,109.76 100.03,103.66 112,99 C135.62,89.79 156.6993,83.4652 179.9393,77.4852 " fill="none" id="&#24212;&#29992;&#31649;&#29702;&#21592;-to-&#35777;&#20070;&#21363;&#23558;&#36807;&#26399;&#25552;&#37266;" style="stroke:#181818;stroke-width:1.0;"/><polygon fill="#181818" points="185.75,75.99,176.0371,74.359,180.9077,77.236,178.0307,82.1066,185.75,75.99" style="stroke:#181818;stroke-width:1.0;"/></g><!--link ????? to ????????--><g id="link_&#24212;&#29992;&#31649;&#29702;&#21592;_&#29992;&#25143;&#30003;&#35831;&#21152;&#20837;&#24212;&#29992;"><path d="M76.1,135 C99.73,135 126.23,135 156.27,135 " fill="none" id="&#24212;&#29992;&#31649;&#29702;&#21592;-to-&#29992;&#25143;&#30003;&#35831;&#21152;&#20837;&#24212;&#29992;" style="stroke:#181818;stroke-width:1.0;"/><polygon fill="#181818" points="162.27,135,153.27,131,157.27,135,153.27,139,162.27,135" style="stroke:#181818;stroke-width:1.0;"/></g><!--link ????? to ???????????--><g id="link_&#24212;&#29992;&#31649;&#29702;&#21592;_&#24212;&#29992;&#25104;&#21592;&#31532;&#19968;&#27425;&#20351;&#29992;&#31614;&#21517;"><path d="M76.32,154.2 C87.5,160.03 100.1,166.17 112,171 C133.7,179.81 152.3465,186.0577 174.1465,192.5077 " fill="none" id="&#24212;&#29992;&#31649;&#29702;&#21592;-to-&#24212;&#29992;&#25104;&#21592;&#31532;&#19968;&#27425;&#20351;&#29992;&#31614;&#21517;" style="stroke:#181818;stroke-width:1.0;"/><polygon fill="#181818" points="179.9,194.21,172.4047,187.8209,175.1055,192.7914,170.135,195.4922,179.9,194.21" style="stroke:#181818;stroke-width:1.0;"/></g><!--link ????? to ??????Apple??--><g id="link_&#31995;&#32479;&#31649;&#29702;&#21592;_&#24212;&#29992;&#30003;&#35831;&#32465;&#23450;Apple&#36134;&#21495;"><path d="M76.1,323.21 C102.31,318 133.5353,311.7804 166.1153,305.3004 " fill="none" id="&#31995;&#32479;&#31649;&#29702;&#21592;-to-&#24212;&#29992;&#30003;&#35831;&#32465;&#23450;Apple&#36134;&#21495;" style="stroke:#181818;stroke-width:1.0;"/><polygon fill="#181818" points="172,304.13,162.3926,301.9625,167.0961,305.1054,163.9532,309.8088,172,304.13" style="stroke:#181818;stroke-width:1.0;"/></g><!--link ????? to ??????Apple????--><g id="link_&#31995;&#32479;&#31649;&#29702;&#21592;_&#24212;&#29992;&#30003;&#35831;&#27880;&#20876;Apple&#27979;&#35797;&#35774;&#22791;"><path d="M76.1,336.96 C100.18,341.87 127.5909,347.4614 158.1009,353.6814 " fill="none" id="&#31995;&#32479;&#31649;&#29702;&#21592;-to-&#24212;&#29992;&#30003;&#35831;&#27880;&#20876;Apple&#27979;&#35797;&#35774;&#22791;" style="stroke:#181818;stroke-width:1.0;"/><polygon fill="#181818" points="163.98,354.88,155.9604,349.1628,159.0808,353.8812,154.3624,357.0016,163.98,354.88" style="stroke:#181818;stroke-width:1.0;"/></g><!--SRC=[bLTTJnfP6BwVNp7nnlL2lT-BJTnaTzkqITtqOg-dm28H60AOfccQI2eCmG_GejQo5McbaaO15wl85FanEsTc-1TxPWwCxpbpPfnwOSRt-tc_pkliIZQRoloyk9YAIydiMYA-498JYskPo7n8mh_2CIcQbXA2a5cD9LCI_XIbK5PEFy- -YaT4wMKa8oSYGZpoTrRCoc8w5bt9Yk5OEXBAnkIa80YprgUKZ69XewSQQbrlDT37G_6rC2lYdv-CQailtXZjXb4fp4reQ535P9hsB1L9BYq_Hig5sSdHBEFY3bMsQPessDJKQ-pER3SSitTvL3fcN5LsKBbBqx03xVQBGtiZp98WnVdvNqGOByM0GLCCJkIqHH0-nO0OQ5S02Cq0Q2W6X4JN1C1nQgBtMgYmvQJtI1qVtIUiKp1ESbf_H-j_rGO3RTJGSnrjrDQhjqx-HiU6Ue7Lq70VdLwQLytnKGKLhmd5bL7YZKw9xPA6vksNHkhhd6v8M387F2hMa3eWh2aYlNQb7tGPMgyrhguxD8m9caExxqdOm1fV0jhsa02UQ02SrWA3rJCxDuJ5uA1eg7WoFZgbQJY3-ZzrcZPMjerXcz1mCSPxJM_KqBSlQXy969U75n0bNy8TCxEHmEWvYLjAXjDoB2nAgTN_rdEIz48_KF0Sehqjiz7K-ZcYD4tBNx5aM7wP4PT_8s8Czz6VJytsAKZZewTFz6-RPcT_IeWzUox6KX9FEo65C3Er6iLnX1DHdeYfV4Mb5jewc41fRQ91sJLYCy4mpT1AV6Yia8CGC-1Vui82PZjm6JKEQaR21pmZoSt135rfk4llzzotidbM98r31EOe3dcm78xJx7gnulInomIEpLPZ-ls7vA1ZZ0DiBB3vCGpmNA7j7keMp962Hq8lLyQ5lJa1Fh1a8aidAD-SxYpmrX94nlcvrb_NpnlQS6JDqgJJu9jicp7KNTJ-i9HAnIFcrHTKlk78aArkov06CDjtw5IP4zu8l4dr0Y7mrmiV4bVuGO02hmw-S1_Ky03Fl3xWiMRE8RtUD3kVy6F772i5xFQTUVRP-h05wULCQEIbv77SRoDEXRxVfUyknpdgV4VAm67cpr7-ahcDuCASiDGDGrMitVxf6AyNiiMPPGbDQVsIzlq4pxX-e-9QMcuf5Jk9b6yxmrY1QF8LODQPOv6Kpbu4g7PdDbhtf-06kkrP9R7RGbDnF0rp_L0_dEmDlVJU68omaeU6rMEbkh6Z11CVAsKlGR0c9YBrIwDq3KG832ilkoNgKkLq9hUdfYkK8TjRszrdVjBktWigxTMFV1ZSxlGGTVKgNjqk6dcX7kxU6M_b7sXe7ok1Uto63zUZvJswmJK0ZXoWaJu8F151JNYDI51zzynuQteFaLzYu4XHwvegsslkwhEhvbf8VyWorb-EIw-CMX_bUqQrZjEWzJVDuT3vTzMkCp7ZREwtBMFuBqspNZiyOcSvSduJshPY3Cv8Vfp37AvRseHUBfkZxkISclOPESTTeI-lPLOWDch7Yh-k9SFnoEEm7yzyEqIbcl5XmneefJmL-bqAHLx8yYg9Lz__Z8g792-Ujoitnymbw9TgwpprvTjT0miHI05MAP02B64m1LTzkMSw2O592AzGMCI30RQHLm4P-q6QYL5XUufXUtS6lkZ_1m00]--></g></svg>